<svg width="311" height="313" viewBox="0 0 311 313" fill="none" xmlns="http://www.w3.org/2000/svg">
<path d="M0.0764072 303.788C0.180727 304.658 0.389642 305.493 0.689395 306.279L1.15657 306.101C1.45144 306.874 1.83847 307.597 2.30299 308.254L1.89466 308.543C2.39364 309.249 2.97795 309.883 3.63143 310.429L3.95208 310.046C4.57681 310.568 5.26726 311.004 6.00745 311.338L5.80178 311.794C6.57494 312.143 7.40053 312.387 8.26256 312.509L8.33285 312.014C8.729 312.071 9.13347 312.1 9.54462 312.1L10.9784 312.1L10.9784 312.6L13.8458 312.6L13.8458 312.1L16.7133 312.1L16.7133 312.6L19.5807 312.6L19.5807 312.1L22.4482 312.1L22.4482 312.6L25.3157 312.6L25.3157 312.1L28.1831 312.1L28.1831 312.6L31.0506 312.6L31.0506 312.1L33.9181 312.1L33.9181 312.6L36.7855 312.6L36.7855 312.1L39.653 312.1L39.653 312.6L42.5205 312.6L42.5205 312.1L45.3879 312.1L45.3879 312.6L48.2554 312.6L48.2554 312.1L51.1228 312.1L51.1228 312.6L53.9903 312.6L53.9903 312.1L56.8578 312.1L56.8578 312.6L59.7252 312.6L59.7252 312.1L62.5927 312.1L62.5927 312.6L65.4602 312.6L65.4602 312.1L68.3276 312.1L68.3276 312.6L71.1951 312.6L71.1951 312.1L74.0625 312.1L74.0625 312.6L76.93 312.6L76.93 312.1L79.7975 312.1L79.7975 312.6L82.6649 312.6L82.6649 312.1L85.5324 312.1L85.5324 312.6L88.3998 312.6L88.3998 312.1L91.2673 312.1L91.2673 312.6L94.1348 312.6L94.1348 312.1L97.0022 312.1L97.0022 312.6L99.8697 312.6L99.8697 312.1L102.737 312.1L102.737 312.6L105.605 312.6L105.605 312.1L108.472 312.1L108.472 312.6L111.34 312.6L111.34 312.1L114.207 312.1L114.207 312.6L117.074 312.6L117.074 312.1L119.942 312.1L119.942 312.6L122.809 312.6L122.809 312.1L125.677 312.1L125.677 312.6L128.544 312.6L128.544 312.1L131.412 312.1L131.412 312.6L134.279 312.6L134.279 312.1L137.147 312.1L137.147 312.6L140.014 312.6L140.014 312.1L142.882 312.1L142.882 312.6L145.749 312.6L145.749 312.1L148.617 312.1L148.617 312.6L151.484 312.6L151.484 312.1L154.351 312.1L154.351 312.6L157.219 312.6L157.219 312.1L160.086 312.1L160.086 312.6L162.954 312.6L162.954 312.1L165.821 312.1L165.821 312.6L168.689 312.6L168.689 312.1L171.556 312.1L171.556 312.6L174.424 312.6L174.424 312.1L177.291 312.1L177.291 312.6L180.159 312.6L180.159 312.1L183.026 312.1L183.026 312.6L185.894 312.6L185.894 312.1L188.761 312.1L188.761 312.6L191.628 312.6L191.628 312.1L194.496 312.1L194.496 312.6L197.363 312.6L197.363 312.1L200.231 312.1L200.231 312.6L203.098 312.6L203.098 312.1L205.966 312.1L205.966 312.6L208.833 312.6L208.833 312.1L211.701 312.1L211.701 312.6L214.568 312.6L214.568 312.1L217.436 312.1L217.436 312.6L220.303 312.6L220.303 312.1L223.171 312.1L223.171 312.6L226.038 312.6L226.038 312.1L228.906 312.1L228.906 312.6L231.773 312.6L231.773 312.1L233.207 312.1C233.618 312.1 234.022 312.071 234.419 312.014L234.489 312.509C235.351 312.387 236.176 312.143 236.95 311.794L236.744 311.338C237.484 311.004 238.175 310.568 238.799 310.046L239.12 310.429C239.773 309.883 240.358 309.249 240.857 308.543L240.448 308.254C240.913 307.597 241.3 306.874 241.595 306.101L242.062 306.279C242.362 305.493 242.571 304.658 242.675 303.788L242.179 303.729C242.227 303.328 242.251 302.92 242.251 302.505L242.251 301.045L242.751 301.045L242.751 298.126L242.251 298.126L242.251 295.207L242.751 295.207L242.751 292.287L242.251 292.287L242.251 289.368L242.751 289.368L242.751 286.449L242.251 286.449L242.251 283.529L242.751 283.529L242.751 280.61L242.251 280.61L242.251 277.691L242.751 277.691L242.751 274.771L242.251 274.771L242.251 271.852L242.751 271.852L242.751 268.933L242.251 268.933L242.251 266.013L242.751 266.013L242.751 263.094L242.251 263.094L242.251 260.175L242.751 260.175L242.751 257.255L242.251 257.255L242.251 254.336L242.751 254.336L242.751 251.417L242.251 251.417L242.251 248.498L242.751 248.498L242.751 245.578L242.251 245.578L242.251 242.659L242.751 242.659L242.751 239.74L242.251 239.74L242.251 236.82L242.751 236.82L242.751 233.901L242.251 233.901L242.251 230.982L242.751 230.982L242.751 228.062L242.251 228.062L242.251 225.143L242.751 225.143L242.751 222.224L242.251 222.224L242.251 219.304L242.751 219.304L242.751 216.385L242.251 216.385L242.251 213.466L242.751 213.466L242.751 210.546L242.251 210.546L242.251 207.627L242.751 207.627L242.751 204.708L242.251 204.708L242.251 201.788L242.751 201.788L242.751 198.869L242.251 198.869L242.251 195.95L242.751 195.95L242.751 193.03L242.251 193.03L242.251 190.111L242.751 190.111L242.751 187.192L242.251 187.192L242.251 184.273L242.751 184.273L242.751 181.353L242.251 181.353L242.251 178.434L242.751 178.434L242.751 175.515L242.251 175.515L242.251 172.595L242.751 172.595L242.751 169.676L242.251 169.676L242.251 166.757L242.751 166.757L242.751 163.837L242.251 163.837L242.251 160.918L242.751 160.918L242.751 157.999L242.251 157.999L242.251 155.079L242.751 155.079L242.751 152.16L242.251 152.16L242.251 149.241L242.751 149.241L242.751 146.321L242.251 146.321L242.251 143.402L242.751 143.402L242.751 140.483L242.251 140.483L242.251 137.564L242.751 137.564L242.751 134.644L242.251 134.644L242.251 131.725L242.751 131.725L242.751 128.806L242.251 128.806L242.251 125.886L242.751 125.886L242.751 122.967L242.251 122.967L242.251 120.048L242.751 120.048L242.751 117.128L242.251 117.128L242.251 114.209L242.751 114.209L242.751 111.29L242.251 111.29L242.251 108.37L242.751 108.37L242.751 105.451L242.251 105.451L242.251 103.991C242.251 103.192 242.411 102.429 242.699 101.733L243.161 101.924C243.709 100.604 244.764 99.5485 246.084 99.0012L245.893 98.5393C246.589 98.2505 247.352 98.0914 248.151 98.0914L249.61 98.0914L249.61 98.5914L252.527 98.5914L252.527 98.0914L255.444 98.0914L255.444 98.5914L258.36 98.5914L258.36 98.0914L261.277 98.0914L261.277 98.5914L264.194 98.5914L264.194 98.0914L267.111 98.0914L267.111 98.5914L270.028 98.5914L270.028 98.0914L272.945 98.0914L272.945 98.5914L275.862 98.5914L275.862 98.0914L278.779 98.0914L278.779 98.5914L281.696 98.5914L281.696 98.0914L284.612 98.0914L284.612 98.5914L287.529 98.5914L287.529 98.0914L290.446 98.0914L290.446 98.5914L293.363 98.5914L293.363 98.0914L296.28 98.0914L296.28 98.5914L299.197 98.5914L299.197 98.0914L300.655 98.0914C301.067 98.0914 301.471 98.0623 301.867 98.0061L301.937 98.5011C302.799 98.3787 303.625 98.1346 304.398 97.7857L304.193 97.3299C304.933 96.9959 305.623 96.5598 306.248 96.0376L306.569 96.4213C307.222 95.8751 307.806 95.2404 308.305 94.5343L307.897 94.2458C308.362 93.5885 308.749 92.8657 309.043 92.0925L309.511 92.2707C309.81 91.4847 310.019 90.6496 310.124 89.7801L309.627 89.7205C309.675 89.32 309.7 88.9115 309.7 88.4967L309.7 87.0966L310.2 87.0966L310.2 84.2965L309.7 84.2965L309.7 81.4965L310.2 81.4965L310.2 78.6964L309.7 78.6964L309.7 75.8963L310.2 75.8963L310.2 73.0962L309.7 73.0962L309.7 70.2961L310.2 70.2961L310.2 67.496L309.7 67.496L309.7 64.696L310.2 64.696L310.2 61.8959L309.7 61.8959L309.7 59.0958L310.2 59.0958L310.2 56.2957L309.7 56.2957L309.7 53.4956L310.2 53.4956L310.2 50.6955L309.7 50.6955L309.7 47.8955L310.2 47.8955L310.2 45.0954L309.7 45.0954L309.7 42.2953L310.2 42.2953L310.2 39.4952L309.7 39.4952L309.7 36.6951L310.2 36.6951L310.2 33.895L309.7 33.895L309.7 31.095L310.2 31.095L310.2 28.2949L309.7 28.2949L309.7 25.4948L310.2 25.4948L310.2 22.6947L309.7 22.6947L309.7 19.8946L310.2 19.8946L310.2 17.0945L309.7 17.0945L309.7 14.2945L310.2 14.2945L310.2 11.4944L309.7 11.4944L309.7 10.0943C309.7 9.67949 309.675 9.27104 309.627 8.87047L310.124 8.81093C310.019 7.94136 309.81 7.10628 309.511 6.3203L309.043 6.49849C308.749 5.7253 308.362 5.00249 307.897 4.3452L308.305 4.05663C307.806 3.35057 307.222 2.7159 306.569 2.16973L306.248 2.55336C305.623 2.03121 304.933 1.59508 304.193 1.26103L304.398 0.805315C303.625 0.456377 302.799 0.212267 301.937 0.0898611L301.867 0.584917C301.471 0.528673 301.067 0.49959 300.655 0.49959L299.23 0.49959L299.23 -0.000409808L296.379 -0.000409684L296.379 0.49959L293.528 0.49959L293.528 -0.000409559L290.676 -0.000409434L290.676 0.499591L287.825 0.499591L287.825 -0.00040931L284.974 -0.000409185L284.974 0.499591L282.123 0.499591L282.123 -0.000409061L279.272 -0.000408936L279.272 0.499591L276.421 0.499591L276.421 -0.000408811L273.569 -0.000408687L273.569 0.499591L270.718 0.499591L270.718 -0.000408562L267.867 -0.000408437L267.867 0.499592L265.016 0.499592L265.016 -0.000408313L262.165 -0.000408188L262.165 0.499592L259.314 0.499592L259.314 -0.000408063L256.463 -0.000407939L256.463 0.499592L253.611 0.499592L253.611 -0.000407814L250.76 -0.00040769L250.76 0.499592L247.909 0.499592L247.909 -0.000407565L245.058 -0.00040744L245.058 0.499593L242.207 0.499593L242.207 -0.000407316L239.356 -0.000407191L239.356 0.499593L236.505 0.499593L236.505 -0.000407066L233.653 -0.000406942L233.653 0.499593L230.802 0.499593L230.802 -0.000406817L227.951 -0.000406693L227.951 0.499593L226.526 0.499593C226.114 0.499593 225.71 0.528677 225.314 0.584921L225.243 0.0898644C224.381 0.21227 223.556 0.456381 222.783 0.805319L222.988 1.26104C222.248 1.59508 221.558 2.03121 220.933 2.55337L220.612 2.16973C219.959 2.7159 219.375 3.35058 218.876 4.05663L219.284 4.34521C218.819 5.00249 218.432 5.7253 218.137 6.4985L217.67 6.32033C217.371 7.10631 217.162 7.94134 217.057 8.8109L217.554 8.87047C217.506 9.27105 217.481 9.67949 217.481 10.0943L217.481 11.5358L216.981 11.5358L216.981 14.4189L217.481 14.4189L217.481 17.302L216.981 17.302L216.981 20.185L217.481 20.185L217.481 23.068L216.981 23.068L216.981 25.9511L217.481 25.9511L217.481 28.8342L216.981 28.8342L216.981 31.7172L217.481 31.7172L217.481 34.6003L216.981 34.6003L216.981 37.4833L217.481 37.4833L217.481 40.3664L216.981 40.3664L216.981 43.2494L217.481 43.2494L217.481 46.1325L216.981 46.1325L216.981 49.0155L217.481 49.0155L217.481 50.4571C217.481 51.2561 217.322 52.0193 217.033 52.7156L216.571 52.5241C216.024 53.8441 214.968 54.9 213.648 55.4473L213.84 55.9092C213.143 56.198 212.38 56.3571 211.581 56.3571L210.138 56.3571L210.138 55.8571L207.252 55.8571L207.252 56.3571L204.365 56.3571L204.365 55.8571L201.479 55.8571L201.479 56.3571L198.593 56.3571L198.593 55.8571L195.707 55.8571L195.707 56.3571L192.82 56.3571L192.82 55.8571L189.934 55.8571L189.934 56.3571L187.048 56.3571L187.048 55.8571L184.162 55.8571L184.162 56.3571L181.275 56.3571L181.275 55.8571L178.389 55.8571L178.389 56.3571L175.503 56.3571L175.503 55.8571L172.617 55.8571L172.617 56.3571L169.731 56.3571L169.731 55.8571L166.844 55.8571L166.844 56.3571L163.958 56.3571L163.958 55.8571L161.072 55.8571L161.072 56.3571L158.186 56.3571L158.186 55.8571L155.299 55.8571L155.299 56.3571L152.413 56.3571L152.413 55.8571L149.527 55.8571L149.527 56.3571L146.641 56.3571L146.641 55.8571L143.754 55.8571L143.754 56.3571L140.868 56.3571L140.868 55.8571L137.982 55.8571L137.982 56.3571L135.096 56.3571L135.096 55.8571L132.21 55.8571L132.21 56.3571L129.323 56.3571L129.323 55.8571L126.437 55.8571L126.437 56.3571L123.551 56.3571L123.551 55.8571L120.665 55.8571L120.665 56.3571L117.778 56.3571L117.778 55.8571L114.892 55.8571L114.892 56.3571L112.006 56.3571L112.006 55.8571L109.12 55.8571L109.12 56.3571L106.233 56.3571L106.233 55.8571L103.347 55.8571L103.347 56.3571L100.461 56.3571L100.461 55.8571L97.5748 55.8571L97.5748 56.3571L94.6885 56.3571L94.6885 55.8571L91.8023 55.8571L91.8023 56.3571L88.9161 56.3571L88.9161 55.8571L86.0298 55.8571L86.0298 56.3571L83.1436 56.3571L83.1436 55.8571L80.2574 55.8571L80.2574 56.3571L77.3711 56.3571L77.3711 55.8571L74.4849 55.8571L74.4849 56.3571L71.5987 56.3571L71.5987 55.8571L68.7125 55.8571L68.7125 56.3571L65.8262 56.3571L65.8262 55.8571L62.94 55.8571L62.94 56.3571L60.0538 56.3571L60.0538 55.8571L57.1675 55.8571L57.1675 56.3571L54.2813 56.3571L54.2813 55.8571L51.3951 55.8571L51.3951 56.3571L48.5088 56.3571L48.5088 55.8571L45.6226 55.8571L45.6226 56.3571L42.7364 56.3571L42.7364 55.8571L39.8501 55.8571L39.8501 56.3571L36.9639 56.3571L36.9639 55.8571L34.0777 55.8571L34.0777 56.3571L31.1915 56.3571L31.1915 55.8571L28.3052 55.8571L28.3052 56.3571L25.419 56.3571L25.419 55.8571L22.5328 55.8571L22.5328 56.3571L19.6465 56.3571L19.6465 55.8571L16.7603 55.8571L16.7603 56.3571L13.8741 56.3571L13.8741 55.8571L10.9878 55.8571L10.9878 56.3571L9.5446 56.3571C9.13346 56.3571 8.72898 56.3862 8.33284 56.4424L8.26254 55.9474C7.40051 56.0698 6.57493 56.3139 5.80176 56.6628L6.00744 57.1185C5.26724 57.4526 4.5768 57.8887 3.95206 58.4108L3.63141 58.0272C2.97794 58.5734 2.39363 59.2081 1.89465 59.9141L2.30297 60.2027C1.83846 60.86 1.45142 61.5828 1.15656 62.356L0.689383 62.1778C0.389631 62.9638 0.180717 63.7988 0.0763966 64.6684L0.572837 64.728C0.524784 65.1285 0.499989 65.537 0.499989 65.9518L0.499989 67.3942L-1.07183e-05 67.3942L-1.05922e-05 70.279L0.499989 70.279L0.49999 73.1638L-1.04661e-05 73.1638L-1.034e-05 76.0486L0.49999 76.0486L0.49999 78.9334L-1.02139e-05 78.9334L-1.00878e-05 81.8182L0.49999 81.8182L0.49999 84.703L-9.96168e-06 84.703L-9.83558e-06 87.5878L0.49999 87.5878L0.49999 90.4725L-9.70948e-06 90.4725L-9.58338e-06 93.3573L0.49999 93.3573L0.499991 96.2421L-9.45729e-06 96.2421L-9.33119e-06 99.1269L0.499991 99.1269L0.499991 102.012L-9.20509e-06 102.012L-9.07899e-06 104.897L0.499991 104.897L0.499991 107.781L-8.95289e-06 107.781L-8.8268e-06 110.666L0.499991 110.666L0.499991 113.551L-8.7007e-06 113.551L-8.5746e-06 116.436L0.499991 116.436L0.499992 119.32L-8.4485e-06 119.32L-8.3224e-06 122.205L0.499992 122.205L0.499992 125.09L-8.1963e-06 125.09L-8.07021e-06 127.975L0.499992 127.975L0.499992 130.86L-7.94411e-06 130.86L-7.81801e-06 133.744L0.499992 133.744L0.499992 136.629L-7.69191e-06 136.629L-7.56581e-06 139.514L0.499992 139.514L0.499993 142.399L-7.43971e-06 142.399L-7.31361e-06 145.284L0.499993 145.284L0.499993 148.168L-7.18752e-06 148.168L-7.06142e-06 151.053L0.499993 151.053L0.499993 153.938L-6.93532e-06 153.938L-6.80922e-06 156.823L0.499993 156.823L0.499993 159.708L-6.68312e-06 159.708L-6.55702e-06 162.592L0.499993 162.592L0.499994 165.477L-6.43093e-06 165.477L-6.30483e-06 168.362L0.499994 168.362L0.499994 171.247L-6.17873e-06 171.247L-6.05263e-06 174.132L0.499994 174.132L0.499994 177.016L-5.92653e-06 177.016L-5.80043e-06 179.901L0.499994 179.901L0.499994 182.786L-5.67433e-06 182.786L-5.54824e-06 185.671L0.499994 185.671L0.499995 188.556L-5.42214e-06 188.556L-5.29604e-06 191.44L0.499995 191.44L0.499995 194.325L-5.16994e-06 194.325L-5.04384e-06 197.21L0.499995 197.21L0.499995 200.095L-4.91774e-06 200.095L-4.79165e-06 202.98L0.499995 202.98L0.499995 205.864L-4.66555e-06 205.864L-4.53945e-06 208.749L0.499995 208.749L0.499996 211.634L-4.41335e-06 211.634L-4.28725e-06 214.519L0.499996 214.519L0.499996 217.404L-4.16115e-06 217.404L-4.03506e-06 220.288L0.499996 220.288L0.499996 223.173L-3.90896e-06 223.173L-3.78286e-06 226.058L0.499996 226.058L0.499996 228.943L-3.65676e-06 228.943L-3.53066e-06 231.828L0.499996 231.828L0.499997 234.712L-3.40456e-06 234.712L-3.27846e-06 237.597L0.499997 237.597L0.499997 240.482L-3.15237e-06 240.482L-3.02627e-06 243.367L0.499997 243.367L0.499997 246.251L-2.90017e-06 246.251L-2.77407e-06 249.136L0.499997 249.136L0.499997 252.021L-2.64797e-06 252.021L-2.52187e-06 254.906L0.499997 254.906L0.499998 257.791L-2.39578e-06 257.791L-2.26968e-06 260.675L0.499998 260.675L0.499998 263.56L-2.14358e-06 263.56L-2.01748e-06 266.445L0.499998 266.445L0.499998 269.33L-1.89138e-06 269.33L-1.76528e-06 272.215L0.499998 272.215L0.499998 275.099L-1.63918e-06 275.099L-1.51309e-06 277.984L0.499998 277.984L0.499999 280.869L-1.38699e-06 280.869L-1.26089e-06 283.754L0.499999 283.754L0.499999 286.639L-1.13479e-06 286.639L-1.00869e-06 289.523L0.499999 289.523L0.499999 292.408L-8.82594e-07 292.408L-7.56495e-07 295.293L0.499999 295.293L0.499999 298.178L-6.30397e-07 298.178L-5.04299e-07 301.063L0.499999 301.063L0.5 302.505C0.5 302.92 0.524794 303.328 0.572848 303.729L0.0764072 303.788Z" stroke="#5B5B5B" stroke-dasharray="2.88 2.88"/>
</svg>
