<svg width="257" height="549" viewBox="0 0 257 549" fill="none" xmlns="http://www.w3.org/2000/svg">
<path d="M-287.866 15.4744C-287.682 13.947 -287.315 12.4802 -286.788 11.0996L-286.321 11.2779C-285.792 9.89029 -285.097 8.59271 -284.262 7.41248L-284.67 7.1238C-283.793 5.88387 -282.767 4.76932 -281.619 3.8102L-281.298 4.19393C-280.175 3.25562 -278.933 2.47133 -277.6 1.8703L-277.806 1.41452C-276.447 0.801933 -274.997 0.373382 -273.483 0.158498L-273.413 0.653538C-272.699 0.5523 -271.971 0.500001 -271.231 0.500001L-268.835 0.500001L-268.835 8.37743e-07L-264.042 1.04722e-06L-264.042 0.500001L-259.25 0.500001L-259.25 1.25669e-06L-254.458 1.46616e-06L-254.458 0.500001L-249.666 0.500002L-249.666 1.67564e-06L-244.874 1.88511e-06L-244.874 0.500002L-240.082 0.500002L-240.082 2.09458e-06L-235.289 2.30405e-06L-235.289 0.500002L-230.497 0.500003L-230.497 2.51353e-06L-225.705 2.723e-06L-225.705 0.500003L-220.913 0.500003L-220.913 2.93247e-06L-216.121 3.14195e-06L-216.121 0.500003L-211.328 0.500003L-211.328 3.35142e-06L-206.536 3.56089e-06L-206.536 0.500004L-201.744 0.500004L-201.744 3.77037e-06L-196.952 3.97984e-06L-196.952 0.500004L-192.16 0.500004L-192.16 4.18931e-06L-187.368 4.39878e-06L-187.368 0.500004L-182.575 0.500005L-182.575 4.60826e-06L-177.783 4.81773e-06L-177.783 0.500005L-172.991 0.500005L-172.991 5.0272e-06L-168.199 5.23668e-06L-168.199 0.500005L-163.407 0.500005L-163.407 5.44615e-06L-158.614 5.65562e-06L-158.614 0.500006L-153.822 0.500006L-153.822 5.86509e-06L-149.03 6.07457e-06L-149.03 0.500006L-144.238 0.500006L-144.238 6.28404e-06L-139.446 6.49351e-06L-139.446 0.500006L-134.654 0.500007L-134.654 6.70299e-06L-129.861 6.91246e-06L-129.861 0.500007L-125.069 0.500007L-125.069 7.12193e-06L-120.277 7.3314e-06L-120.277 0.500007L-115.485 0.500008L-115.485 7.54088e-06L-110.693 7.75035e-06L-110.693 0.500008L-105.9 0.500008L-105.9 7.95982e-06L-101.108 8.1693e-06L-101.108 0.500008L-96.3162 0.500008L-96.3162 8.37877e-06L-91.524 8.58824e-06L-91.524 0.500009L-86.7318 0.500009L-86.7318 8.79771e-06L-81.9396 9.00719e-06L-81.9396 0.500009L-77.1475 0.500009L-77.1475 9.21666e-06L-72.3553 9.42613e-06L-72.3553 0.500009L-67.5631 0.50001L-67.5631 9.6356e-06L-62.7709 9.84508e-06L-62.7709 0.50001L-57.9787 0.50001L-57.9787 1.00545e-05L-53.1866 1.0264e-05L-53.1866 0.50001L-48.3944 0.50001L-48.3944 1.04735e-05L-43.6022 1.0683e-05L-43.6022 0.500011L-38.8101 0.500011L-38.8101 1.08924e-05L-34.0179 1.11019e-05L-34.0179 0.500011L-29.2257 0.500011L-29.2257 1.13114e-05L-24.4335 1.15209e-05L-24.4335 0.500012L-19.6414 0.500012L-19.6414 1.17303e-05L-14.8492 1.19398e-05L-14.8492 0.500012L-10.057 0.500012L-10.057 1.21493e-05L-5.26483 1.23587e-05L-5.26483 0.500012L-0.472656 0.500013L-0.472656 1.25682e-05L4.31952 1.27777e-05L4.31952 0.500013L9.11169 0.500013L9.11169 1.29872e-05L13.9039 1.31966e-05L13.9039 0.500013L18.696 0.500013L18.696 1.34061e-05L23.4882 1.36156e-05L23.4882 0.500014L28.2804 0.500014L28.2804 1.38251e-05L33.0726 1.40345e-05L33.0726 0.500014L37.8647 0.500014L37.8647 1.4244e-05L42.6569 1.44535e-05L42.6569 0.500014L47.4491 0.500015L47.4491 1.46629e-05L52.2413 1.48724e-05L52.2413 0.500015L57.0334 0.500015L57.0334 1.50819e-05L61.8256 1.52914e-05L61.8256 0.500015L66.6178 0.500016L66.6178 1.55008e-05L71.41 1.57103e-05L71.41 0.500016L76.2021 0.500016L76.2021 1.59198e-05L80.9943 1.61293e-05L80.9943 0.500016L85.7865 0.500016L85.7865 1.63387e-05L90.5787 1.65482e-05L90.5787 0.500017L95.3708 0.500017L95.3708 1.67577e-05L100.163 1.69671e-05L100.163 0.500017L104.955 0.500017L104.955 1.71766e-05L109.747 1.73861e-05L109.747 0.500017L114.54 0.500018L114.54 1.75956e-05L119.332 1.7805e-05L119.332 0.500018L121.728 0.500018C122.468 0.500018 123.197 0.552317 123.91 0.653556L123.98 0.158516C125.495 0.3734 126.945 0.801952 128.303 1.41454L128.097 1.87032C129.43 2.47134 130.672 3.25564 131.795 4.19395L132.116 3.81021C133.264 4.76934 134.291 5.88388 135.168 7.12382L134.759 7.4125C135.594 8.59273 136.289 9.89031 136.819 11.2779L137.286 11.0996C137.813 12.4802 138.18 13.947 138.363 15.4744L137.867 15.534C137.953 16.2525 137.997 16.985 137.997 17.7288L137.997 20.1532L138.497 20.1532L138.497 25.0021L137.997 25.0021L137.997 29.851L138.497 29.851L138.497 34.6999L137.997 34.6999L137.997 39.5488L138.497 39.5488L138.497 44.3977L137.997 44.3977L137.997 49.2466L138.497 49.2466L138.497 54.0955L137.997 54.0955L137.997 58.9444L138.497 58.9444L138.497 63.7933L137.997 63.7933L137.997 68.6422L138.497 68.6422L138.497 73.4911L137.997 73.4911L137.997 78.34L138.497 78.34L138.497 83.1889L137.997 83.1889L137.997 88.0378L138.497 88.0378L138.497 92.8867L137.997 92.8867L137.997 97.7355L138.497 97.7355L138.497 102.584L137.997 102.584L137.997 107.433L138.497 107.433L138.497 112.282L137.997 112.282L137.997 117.131L138.497 117.131L138.497 121.98L137.997 121.98L137.997 126.829L138.497 126.829L138.497 131.678L137.997 131.678L137.997 136.527L138.497 136.527L138.497 141.376L137.997 141.376L137.997 146.224L138.497 146.224L138.497 151.073L137.997 151.073L137.997 155.922L138.497 155.922L138.497 160.771L137.997 160.771L137.997 165.62L138.497 165.62L138.497 170.469L137.997 170.469L137.997 175.318L138.497 175.318L138.497 180.167L137.997 180.167L137.997 185.016L138.497 185.016L138.497 189.865L137.997 189.865L137.997 194.713L138.497 194.713L138.497 199.562L137.997 199.562L137.997 204.411L138.497 204.411L138.497 209.26L137.997 209.26L137.997 214.109L138.497 214.109L138.497 218.958L137.997 218.958L137.997 223.807L138.497 223.807L138.497 228.656L137.997 228.656L137.997 233.505L138.497 233.505L138.497 238.353L137.997 238.353L137.997 243.202L138.497 243.202L138.497 248.051L137.997 248.051L137.997 252.9L138.497 252.9L138.497 257.749L137.997 257.749L137.997 262.598L138.497 262.598L138.497 267.447L137.997 267.447L137.997 272.296L138.497 272.296L138.497 277.145L137.997 277.145L137.997 281.993L138.497 281.993L138.497 286.842L137.997 286.842L137.997 291.691L138.497 291.691L138.497 296.54L137.997 296.54L137.997 301.389L138.497 301.389L138.497 306.238L137.997 306.238L137.997 311.087L138.497 311.087L138.497 315.936L137.997 315.936L137.997 320.785L138.497 320.785L138.497 325.634L137.997 325.634L137.997 330.483L138.497 330.483L138.497 335.331L137.997 335.331L137.997 340.18L138.497 340.18L138.497 345.029L137.997 345.029L137.997 349.878L138.497 349.878L138.497 354.727L137.997 354.727L137.997 359.576L138.497 359.576L138.497 364.425L137.997 364.425L137.997 366.849C137.997 368.136 138.254 369.365 138.718 370.486L139.18 370.294C140.093 372.494 141.852 374.254 144.052 375.166L143.861 375.628C144.982 376.093 146.21 376.349 147.497 376.349L149.816 376.349L149.816 375.849L154.452 375.849L154.452 376.349L159.089 376.349L159.089 375.849L163.726 375.849L163.726 376.349L168.362 376.349L168.362 375.849L172.999 375.849L172.999 376.349L177.636 376.349L177.636 375.849L182.272 375.849L182.272 376.349L186.909 376.349L186.909 375.849L191.546 375.849L191.546 376.349L196.182 376.349L196.182 375.849L200.819 375.849L200.819 376.349L205.456 376.349L205.456 375.849L210.092 375.849L210.092 376.349L214.729 376.349L214.729 375.849L219.366 375.849L219.366 376.349L224.002 376.349L224.002 375.849L228.639 375.849L228.639 376.349L233.276 376.349L233.276 375.849L237.912 375.849L237.912 376.349L240.231 376.349C240.971 376.349 241.699 376.402 242.413 376.503L242.483 376.008C243.997 376.223 245.447 376.651 246.806 377.264L246.6 377.72C247.933 378.321 249.175 379.105 250.298 380.043L250.619 379.66C251.767 380.619 252.794 381.733 253.67 382.973L253.262 383.262C254.097 384.442 254.792 385.74 255.321 387.127L255.788 386.949C256.315 388.329 256.682 389.796 256.866 391.324L256.369 391.383C256.455 392.102 256.5 392.834 256.5 393.578L256.5 396.037L257 396.037L257 400.954L256.5 400.954L256.5 405.872L257 405.872L257 410.79L256.5 410.79L256.5 415.707L257 415.707L257 420.625L256.5 420.625L256.5 425.543L257 425.543L257 430.46L256.5 430.46L256.5 435.378L257 435.378L257 440.295L256.5 440.295L256.5 445.213L257 445.213L257 450.131L256.5 450.131L256.5 455.048L257 455.048L257 459.966L256.5 459.966L256.5 464.883L257 464.883L257 469.801L256.5 469.801L256.5 474.719L257 474.719L257 479.636L256.5 479.636L256.5 484.554L257 484.554L257 489.472L256.5 489.472L256.5 494.389L257 494.389L257 499.307L256.5 499.307L256.5 504.224L257 504.224L257 509.142L256.5 509.142L256.5 514.06L257 514.06L257 518.977L256.5 518.977L256.5 523.895L257 523.895L257 528.812L256.5 528.812L256.5 531.271C256.5 532.015 256.455 532.748 256.369 533.466L256.866 533.526C256.682 535.053 256.315 536.52 255.788 537.9L255.321 537.722C254.792 539.11 254.097 540.407 253.262 541.588L253.67 541.876C252.793 543.116 251.767 544.231 250.619 545.19L250.298 544.806C249.175 545.744 247.933 546.529 246.6 547.13L246.806 547.586C245.447 548.198 243.997 548.627 242.483 548.842L242.413 548.346C241.699 548.448 240.971 548.5 240.231 548.5L237.905 548.5L237.905 549L233.254 549L233.254 548.5L228.602 548.5L228.602 549L223.951 549L223.951 548.5L219.299 548.5L219.299 549L214.648 549L214.648 548.5L209.996 548.5L209.996 549L205.345 549L205.345 548.5L200.693 548.5L200.693 549L196.042 549L196.042 548.5L191.39 548.5L191.39 549L186.739 549L186.739 548.5L182.087 548.5L182.087 549L177.436 549L177.436 548.5L172.785 548.5L172.785 549L168.133 549L168.133 548.5L163.482 548.5L163.482 549L158.83 549L158.83 548.5L154.179 548.5L154.179 549L149.527 549L149.527 548.5L144.876 548.5L144.876 549L140.224 549L140.224 548.5L135.573 548.5L135.573 549L130.921 549L130.921 548.5L126.27 548.5L126.27 549L121.618 549L121.618 548.5L116.967 548.5L116.967 549L112.315 549L112.315 548.5L109.99 548.5C109.25 548.5 108.521 548.448 107.808 548.346L107.738 548.842C106.223 548.627 104.773 548.198 103.415 547.585L103.621 547.13C102.288 546.529 101.046 545.744 99.9225 544.806L99.6019 545.19C98.4537 544.231 97.427 543.116 96.5502 541.876L96.9585 541.588C96.1239 540.407 95.4287 539.11 94.8993 537.722L94.4321 537.9C93.9053 536.52 93.5382 535.053 93.3548 533.526L93.8512 533.466C93.765 532.748 93.7205 532.015 93.7205 531.271L93.7205 528.722L93.2205 528.722L93.2205 523.624L93.7205 523.624L93.7205 518.527L93.2205 518.527L93.2205 513.429L93.7205 513.429L93.7205 508.331L93.2205 508.331L93.2205 503.233L93.7205 503.233L93.7205 498.135L93.2205 498.135L93.2205 493.037L93.7205 493.037L93.7205 487.939L93.2205 487.939L93.2205 482.841L93.7205 482.841L93.7205 477.744L93.2205 477.744L93.2205 472.646L93.7205 472.646L93.7205 467.548L93.2205 467.548L93.2205 462.45L93.7205 462.45L93.7205 459.901C93.7205 458.614 93.4642 457.385 92.9994 456.264L92.5376 456.456C91.6253 454.256 89.8656 452.496 87.6656 451.584L87.8571 451.122C86.7363 450.657 85.5077 450.401 84.2205 450.401L81.8188 450.401L81.8188 450.901L77.0154 450.901L77.0154 450.401L72.212 450.401L72.212 450.901L67.4086 450.901L67.4086 450.401L62.6052 450.401L62.6052 450.901L57.8018 450.901L57.8018 450.401L52.9984 450.401L52.9984 450.901L48.195 450.901L48.195 450.401L43.3916 450.401L43.3916 450.901L38.5882 450.901L38.5882 450.401L33.7849 450.401L33.7849 450.901L28.9815 450.901L28.9815 450.401L24.1781 450.401L24.1781 450.901L19.3746 450.901L19.3746 450.401L14.5713 450.401L14.5713 450.901L9.76786 450.901L9.76786 450.401L4.96446 450.401L4.96446 450.901L0.161083 450.901L0.161083 450.401L-4.64232 450.401L-4.64232 450.901L-9.44573 450.901L-9.44573 450.401L-14.2491 450.401L-14.2491 450.901L-19.0525 450.901L-19.0525 450.401L-23.8559 450.401L-23.8559 450.901L-28.6593 450.901L-28.6593 450.401L-33.4627 450.401L-33.4627 450.901L-38.2661 450.901L-38.2661 450.401L-43.0695 450.401L-43.0695 450.901L-47.8729 450.901L-47.8729 450.401L-52.6763 450.401L-52.6763 450.901L-57.4797 450.901L-57.4797 450.401L-62.2831 450.401L-62.2831 450.901L-67.0865 450.901L-67.0865 450.401L-71.8899 450.401L-71.8899 450.901L-76.6933 450.901L-76.6933 450.401L-81.4966 450.401L-81.4966 450.901L-86.3 450.901L-86.3 450.401L-91.1034 450.401L-91.1034 450.901L-95.9068 450.901L-95.9068 450.401L-100.71 450.401L-100.71 450.901L-105.514 450.901L-105.514 450.401L-110.317 450.401L-110.317 450.901L-115.12 450.901L-115.12 450.401L-119.924 450.401L-119.924 450.901L-124.727 450.901L-124.727 450.401L-129.531 450.401L-129.531 450.901L-134.334 450.901L-134.334 450.401L-139.137 450.401L-139.137 450.901L-143.941 450.901L-143.941 450.401L-148.744 450.401L-148.744 450.901L-153.548 450.901L-153.548 450.401L-158.351 450.401L-158.351 450.901L-163.154 450.901L-163.154 450.401L-167.958 450.401L-167.958 450.901L-172.761 450.901L-172.761 450.401L-177.564 450.401L-177.564 450.901L-182.368 450.901L-182.368 450.401L-187.171 450.401L-187.171 450.901L-191.975 450.901L-191.975 450.401L-196.778 450.401L-196.778 450.901L-201.581 450.901L-201.581 450.401L-206.385 450.401L-206.385 450.901L-211.188 450.901L-211.188 450.401L-215.992 450.401L-215.992 450.901L-220.795 450.901L-220.795 450.401L-225.599 450.401L-225.599 450.901L-230.402 450.901L-230.402 450.401L-235.205 450.401L-235.205 450.901L-240.009 450.901L-240.009 450.401L-244.812 450.401L-244.812 450.901L-249.616 450.901L-249.616 450.401L-254.419 450.401L-254.419 450.901L-259.222 450.901L-259.222 450.401L-264.026 450.401L-264.026 450.901L-268.829 450.901L-268.829 450.401L-271.231 450.401C-271.971 450.401 -272.699 450.349 -273.413 450.247L-273.483 450.742C-274.997 450.528 -276.447 450.099 -277.806 449.486L-277.6 449.031C-278.933 448.43 -280.175 447.645 -281.298 446.707L-281.619 447.091C-282.767 446.132 -283.794 445.017 -284.67 443.777L-284.262 443.488C-285.097 442.308 -285.792 441.011 -286.321 439.623L-286.788 439.801C-287.315 438.421 -287.682 436.954 -287.866 435.427L-287.369 435.367C-287.456 434.648 -287.5 433.916 -287.5 433.172L-287.5 430.757L-288 430.757L-288 425.926L-287.5 425.926L-287.5 421.095L-288 421.095L-288 416.265L-287.5 416.265L-287.5 411.434L-288 411.434L-288 406.603L-287.5 406.603L-287.5 401.772L-288 401.772L-288 396.942L-287.5 396.942L-287.5 392.111L-288 392.111L-288 387.28L-287.5 387.28L-287.5 382.449L-288 382.449L-288 377.619L-287.5 377.619L-287.5 372.788L-288 372.788L-288 367.957L-287.5 367.957L-287.5 363.127L-288 363.127L-288 358.296L-287.5 358.296L-287.5 353.465L-288 353.465L-288 348.634L-287.5 348.634L-287.5 343.804L-288 343.804L-288 338.973L-287.5 338.973L-287.5 334.142L-288 334.142L-288 329.311L-287.5 329.311L-287.5 324.481L-288 324.481L-288 319.65L-287.5 319.65L-287.5 314.819L-288 314.819L-288 309.988L-287.5 309.988L-287.5 305.158L-288 305.158L-288 300.327L-287.5 300.327L-287.5 295.496L-288 295.496L-288 290.665L-287.5 290.665L-287.5 285.835L-288 285.835L-288 281.004L-287.5 281.004L-287.5 276.173L-288 276.173L-288 271.343L-287.5 271.343L-287.5 266.512L-288 266.512L-288 261.681L-287.5 261.681L-287.5 256.85L-288 256.85L-288 252.02L-287.5 252.02L-287.5 247.189L-288 247.189L-288 242.358L-287.5 242.358L-287.5 237.527L-288 237.527L-288 232.697L-287.5 232.697L-287.5 227.866L-288 227.866L-288 223.035L-287.5 223.035L-287.5 218.204L-288 218.204L-288 213.374L-287.5 213.374L-287.5 208.543L-288 208.543L-288 203.712L-287.5 203.712L-287.5 198.882L-288 198.882L-288 194.051L-287.5 194.051L-287.5 189.22L-288 189.22L-288 184.389L-287.5 184.389L-287.5 179.559L-288 179.559L-288 174.728L-287.5 174.728L-287.5 169.897L-288 169.897L-288 165.066L-287.5 165.066L-287.5 160.236L-288 160.236L-288 155.405L-287.5 155.405L-287.5 150.574L-288 150.574L-288 145.743L-287.5 145.743L-287.5 140.913L-288 140.913L-288 136.082L-287.5 136.082L-287.5 131.251L-288 131.251L-288 126.42L-287.5 126.42L-287.5 121.59L-288 121.59L-288 116.759L-287.5 116.759L-287.5 111.928L-288 111.928L-288 107.097L-287.5 107.097L-287.5 102.267L-288 102.267L-288 97.4359L-287.5 97.4359L-287.5 92.6051L-288 92.6051L-288 87.7744L-287.5 87.7744L-287.5 82.9436L-288 82.9436L-288 78.1129L-287.5 78.1129L-287.5 73.2822L-288 73.2822L-288 68.4514L-287.5 68.4514L-287.5 63.6207L-288 63.6207L-288 58.7899L-287.5 58.7899L-287.5 53.9591L-288 53.9591L-288 49.1284L-287.5 49.1284L-287.5 44.2976L-288 44.2976L-288 39.4669L-287.5 39.4669L-287.5 34.6362L-288 34.6362L-288 29.8054L-287.5 29.8054L-287.5 24.9747L-288 24.9747L-288 20.1439L-287.5 20.1439L-287.5 17.7287C-287.5 16.985 -287.456 16.2525 -287.369 15.534L-287.866 15.4744Z" stroke="#5B5B5B" stroke-dasharray="4.8 4.8"/>
</svg>
