<svg width="591" height="578" viewBox="0 0 591 578" fill="none" xmlns="http://www.w3.org/2000/svg">
<path d="M18.1846 0.500001C8.4299 0.5 0.5 8.62048 0.499999 18.6652L0.49998 456.054C0.49998 466.099 8.42987 474.219 18.1846 474.219L398.397 474.219C406.957 474.219 413.897 481.159 413.897 489.719L413.897 559.335C413.897 569.38 421.827 577.5 431.582 577.5L572.815 577.5C582.57 577.5 590.5 569.38 590.5 559.335L590.5 414.368C590.5 404.323 582.57 396.203 572.815 396.203L477.495 396.203C468.935 396.203 461.995 389.263 461.995 380.703L461.995 18.6653C461.995 8.62051 454.065 0.50002 444.311 0.500019L18.1846 0.500001Z" stroke="#5B5B5B"/>
</svg>
