<svg width="382" height="506" viewBox="0 0 382 506" fill="none" xmlns="http://www.w3.org/2000/svg">
<path d="M501.956 15.0915C501.895 14.249 501.775 13.4243 501.598 12.6223L501.11 12.7297C500.935 11.9315 500.702 11.1565 500.417 10.4099L500.885 10.2318C500.585 9.44703 500.23 8.69245 499.824 7.97362L499.389 8.21943C498.989 7.5116 498.539 6.83969 498.044 6.2093L498.437 5.90034C497.92 5.24259 497.355 4.62845 496.748 4.06389L496.408 4.43002C495.816 3.87958 495.183 3.3781 494.514 2.93139L494.792 2.51567C494.1 2.0534 493.372 1.64763 492.612 1.30447L492.406 1.76018C491.676 1.43084 490.917 1.16129 490.134 0.957244L490.26 0.473394C489.463 0.265809 488.642 0.123638 487.802 0.0525751L487.76 0.550796C487.362 0.517153 486.96 0.500001 486.554 0.500001L485.162 0.500001L485.162 7.36023e-07L482.377 8.57727e-07L482.377 0.500001L479.593 0.500001L479.593 9.79431e-07L476.809 1.10114e-06L476.809 0.500001L474.025 0.500001L474.025 1.22284e-06L471.24 1.34454e-06L471.24 0.500001L468.456 0.500001L468.456 1.46625e-06L465.672 1.58795e-06L465.672 0.500002L462.888 0.500002L462.888 1.70965e-06L460.103 1.83136e-06L460.103 0.500002L457.319 0.500002L457.319 1.95306e-06L454.535 2.07477e-06L454.535 0.500002L451.75 0.500002L451.75 2.19647e-06L448.966 2.31817e-06L448.966 0.500002L446.182 0.500002L446.182 2.43988e-06L443.398 2.56158e-06L443.398 0.500003L440.613 0.500003L440.613 2.68329e-06L437.829 2.80499e-06L437.829 0.500003L435.045 0.500003L435.045 2.92669e-06L432.261 3.0484e-06L432.261 0.500003L429.476 0.500003L429.476 3.1701e-06L426.692 3.2918e-06L426.692 0.500003L423.908 0.500003L423.908 3.41351e-06L421.124 3.53521e-06L421.124 0.500004L418.339 0.500004L418.339 3.65692e-06L415.555 3.77862e-06L415.555 0.500004L412.771 0.500004L412.771 3.90032e-06L409.986 4.02203e-06L409.986 0.500004L407.202 0.500004L407.202 4.14373e-06L404.418 4.26544e-06L404.418 0.500004L401.634 0.500004L401.634 4.38714e-06L398.849 4.50884e-06L398.849 0.500005L396.065 0.500005L396.065 4.63055e-06L393.281 4.75225e-06L393.281 0.500005L390.497 0.500005L390.497 4.87396e-06L387.712 4.99566e-06L387.712 0.500005L384.928 0.500005L384.928 5.11736e-06L382.144 5.23907e-06L382.144 0.500005L379.359 0.500005L379.359 5.36077e-06L376.575 5.48248e-06L376.575 0.500005L373.791 0.500006L373.791 5.60418e-06L371.007 5.72588e-06L371.007 0.500006L368.222 0.500006L368.222 5.84759e-06L365.438 5.96929e-06L365.438 0.500006L362.654 0.500006L362.654 6.091e-06L359.87 6.2127e-06L359.87 0.500006L357.085 0.500006L357.085 6.3344e-06L354.301 6.45611e-06L354.301 0.500006L351.517 0.500007L351.517 6.57781e-06L348.732 6.69952e-06L348.732 0.500007L345.948 0.500007L345.948 6.82122e-06L343.164 6.94292e-06L343.164 0.500007L340.38 0.500007L340.38 7.06463e-06L337.595 7.18633e-06L337.595 0.500007L334.811 0.500007L334.811 7.30804e-06L332.027 7.42974e-06L332.027 0.500007L329.243 0.500008L329.243 7.55144e-06L326.458 7.67315e-06L326.458 0.500008L323.674 0.500008L323.674 7.79485e-06L320.89 7.91656e-06L320.89 0.500008L318.106 0.500008L318.106 8.03826e-06L315.321 8.15997e-06L315.321 0.500008L312.537 0.500008L312.537 8.28167e-06L309.753 8.40337e-06L309.753 0.500008L306.968 0.500009L306.968 8.52508e-06L304.184 8.64678e-06L304.184 0.500009L301.4 0.500009L301.4 8.76849e-06L298.616 8.89019e-06L298.616 0.500009L295.831 0.500009L295.831 9.01189e-06L293.047 9.1336e-06L293.047 0.500009L290.263 0.500009L290.263 9.2553e-06L287.479 9.37701e-06L287.479 0.500009L284.694 0.500009L284.694 9.49871e-06L281.91 9.62041e-06L281.91 0.50001L279.126 0.50001L279.126 9.74212e-06L276.341 9.86382e-06L276.341 0.50001L273.557 0.50001L273.557 9.98553e-06L270.773 1.01072e-05L270.773 0.50001L267.989 0.50001L267.989 1.02289e-05L265.204 1.03506e-05L265.204 0.50001L262.42 0.50001L262.42 1.04723e-05L259.636 1.0594e-05L259.636 0.500011L256.852 0.500011L256.852 1.07157e-05L254.067 1.08375e-05L254.067 0.500011L251.283 0.500011L251.283 1.09592e-05L248.499 1.10809e-05L248.499 0.500011L245.714 0.500011L245.714 1.12026e-05L242.93 1.13243e-05L242.93 0.500011L240.146 0.500011L240.146 1.1446e-05L237.362 1.15677e-05L237.362 0.500012L234.577 0.500012L234.577 1.16894e-05L231.793 1.18111e-05L231.793 0.500012L229.009 0.500012L229.009 1.19328e-05L226.225 1.20545e-05L226.225 0.500012L223.44 0.500012L223.44 1.21762e-05L220.656 1.22979e-05L220.656 0.500012L217.872 0.500012L217.872 1.24196e-05L215.087 1.25413e-05L215.087 0.500013L212.303 0.500013L212.303 1.2663e-05L209.519 1.27847e-05L209.519 0.500013L206.735 0.500013L206.735 1.29064e-05L203.95 1.30281e-05L203.95 0.500013L201.166 0.500013L201.166 1.31498e-05L198.382 1.32715e-05L198.382 0.500013L195.598 0.500013L195.598 1.33932e-05L192.813 1.35149e-05L192.813 0.500014L190.029 0.500014L190.029 1.36366e-05L187.245 1.37583e-05L187.245 0.500014L184.461 0.500014L184.461 1.38801e-05L181.676 1.40018e-05L181.676 0.500014L178.892 0.500014L178.892 1.41235e-05L176.108 1.42452e-05L176.108 0.500014L173.323 0.500014L173.323 1.43669e-05L170.539 1.44886e-05L170.539 0.500014L167.755 0.500015L167.755 1.46103e-05L164.971 1.4732e-05L164.971 0.500015L162.186 0.500015L162.186 1.48537e-05L159.402 1.49754e-05L159.402 0.500015L156.618 0.500015L156.618 1.50971e-05L153.834 1.52188e-05L153.834 0.500015L151.049 0.500015L151.049 1.53405e-05L148.265 1.54622e-05L148.265 0.500015L145.481 0.500016L145.481 1.55839e-05L142.696 1.57056e-05L142.696 0.500016L139.912 0.500016L139.912 1.58273e-05L137.128 1.5949e-05L137.128 0.500016L134.344 0.500016L134.344 1.60707e-05L131.559 1.61924e-05L131.559 0.500016L128.775 0.500016L128.775 1.63141e-05L125.991 1.64358e-05L125.991 0.500016L124.599 0.500016C124.193 0.500017 123.791 0.517169 123.393 0.550811L123.351 0.0525911C122.511 0.123655 121.69 0.265826 120.893 0.473412L121.019 0.95726C120.236 1.16131 119.477 1.43085 118.747 1.7602L118.541 1.30449C117.781 1.64765 117.052 2.05343 116.361 2.51569L116.638 2.93141C115.97 3.37812 115.337 3.8796 114.745 4.43004L114.405 4.06391C113.798 4.62847 113.233 5.24262 112.716 5.90037L113.109 6.20933C112.614 6.83972 112.163 7.51162 111.764 8.21946L111.328 7.97364C110.923 8.69248 110.567 9.44705 110.268 10.2318L110.735 10.41C110.451 11.1565 110.218 11.9315 110.043 12.7297L109.554 12.6223C109.378 13.4243 109.257 14.249 109.197 15.0915L109.696 15.1271C109.667 15.5274 109.653 15.9319 109.653 16.3402L109.653 17.7168L109.153 17.7168L109.153 20.4701L109.653 20.4701L109.653 23.2234L109.153 23.2234L109.153 25.9767L109.653 25.9767L109.653 28.7299L109.153 28.7299L109.153 31.4832L109.653 31.4832L109.653 34.2365L109.153 34.2365L109.153 36.9898L109.653 36.9898L109.653 39.7431L109.153 39.7431L109.153 42.4963L109.653 42.4963L109.653 45.2496L109.153 45.2496L109.153 48.0029L109.653 48.0029L109.653 50.7562L109.153 50.7562L109.153 53.5095L109.653 53.5095L109.653 56.2627L109.153 56.2627L109.153 59.016L109.653 59.016L109.653 61.7693L109.153 61.7693L109.153 64.5226L109.653 64.5226L109.653 67.2759L109.153 67.2759L109.153 70.0291L109.653 70.0291L109.653 72.7824L109.153 72.7824L109.153 75.5357L109.653 75.5357L109.653 78.289L109.153 78.289L109.153 81.0423L109.653 81.0423L109.653 83.7955L109.153 83.7955L109.153 86.5488L109.653 86.5488L109.653 89.3021L109.153 89.3021L109.153 92.0554L109.653 92.0554L109.653 94.8087L109.153 94.8087L109.153 97.5619L109.653 97.5619L109.653 100.315L109.153 100.315L109.153 103.069L109.653 103.069L109.653 105.822L109.153 105.822L109.153 108.575L109.653 108.575L109.653 111.328L109.153 111.328L109.153 114.082L109.653 114.082L109.653 116.835L109.153 116.835L109.153 119.588L109.653 119.588L109.653 122.341L109.153 122.341L109.153 125.095L109.653 125.095L109.653 127.848L109.153 127.848L109.153 130.601L109.653 130.601L109.653 133.355L109.153 133.355L109.153 136.108L109.653 136.108L109.653 138.861L109.153 138.861L109.153 141.614L109.653 141.614L109.653 144.368L109.153 144.368L109.153 147.121L109.653 147.121L109.653 149.874L109.153 149.874L109.153 152.628L109.653 152.628L109.653 155.381L109.153 155.381L109.153 158.134L109.653 158.134L109.653 160.887L109.153 160.887L109.153 163.641L109.653 163.641L109.653 166.394L109.153 166.394L109.153 169.147L109.653 169.147L109.653 171.901L109.153 171.901L109.153 174.654L109.653 174.654L109.653 177.407L109.153 177.407L109.153 180.16L109.653 180.16L109.653 182.914L109.153 182.914L109.153 185.667L109.653 185.667L109.653 188.42L109.153 188.42L109.153 191.173L109.653 191.173L109.653 193.927L109.153 193.927L109.153 196.68L109.653 196.68L109.653 199.433L109.153 199.433L109.153 202.187L109.653 202.187L109.653 204.94L109.153 204.94L109.153 207.693L109.653 207.693L109.653 210.446L109.153 210.446L109.153 213.2L109.653 213.2L109.653 215.953L109.153 215.953L109.153 218.706L109.653 218.706L109.653 221.46L109.153 221.46L109.153 224.213L109.653 224.213L109.653 226.966L109.153 226.966L109.153 229.719L109.653 229.719L109.653 232.473L109.153 232.473L109.153 235.226L109.653 235.226L109.653 237.979L109.153 237.979L109.153 240.733L109.653 240.733L109.653 243.486L109.153 243.486L109.153 246.239L109.653 246.239L109.653 248.992L109.153 248.992L109.153 251.746L109.653 251.746L109.653 254.499L109.153 254.499L109.153 257.252L109.653 257.252L109.653 260.005L109.153 260.005L109.153 262.759L109.653 262.759L109.653 265.512L109.153 265.512L109.153 268.265L109.653 268.265L109.653 271.019L109.153 271.019L109.153 273.772L109.653 273.772L109.653 276.525L109.153 276.525L109.153 279.278L109.653 279.278L109.653 282.032L109.153 282.032L109.153 284.785L109.653 284.785L109.653 287.538L109.153 287.538L109.153 290.291L109.653 290.291L109.653 293.045L109.153 293.045L109.153 295.798L109.653 295.798L109.653 298.551L109.153 298.551L109.153 301.305L109.653 301.305L109.653 304.058L109.153 304.058L109.153 306.811L109.653 306.811L109.653 309.564L109.153 309.564L109.153 312.318L109.653 312.318L109.653 315.071L109.153 315.071L109.153 317.824L109.653 317.824L109.653 320.577L109.153 320.577L109.153 323.331L109.653 323.331L109.653 326.084L109.153 326.084L109.153 328.837L109.653 328.837L109.653 331.59L109.153 331.59L109.153 334.344L109.653 334.344L109.653 337.097L109.153 337.097L109.153 339.85L109.653 339.85L109.653 341.227C109.653 341.997 109.5 342.732 109.221 343.403L108.759 343.212C108.234 344.479 107.22 345.492 105.953 346.018L106.145 346.48C105.474 346.758 104.739 346.911 103.969 346.911L102.586 346.911L102.586 346.411L99.8193 346.411L99.8193 346.911L97.053 346.911L97.053 346.411L94.2867 346.411L94.2867 346.911L91.5203 346.911L91.5203 346.411L88.754 346.411L88.754 346.911L85.9877 346.911L85.9877 346.411L83.2213 346.411L83.2213 346.911L80.455 346.911L80.455 346.411L77.6886 346.411L77.6886 346.911L74.9223 346.911L74.9223 346.411L72.156 346.411L72.156 346.911L69.3896 346.911L69.3896 346.411L66.6233 346.411L66.6233 346.911L63.857 346.911L63.857 346.411L61.0907 346.411L61.0907 346.911L58.3243 346.911L58.3243 346.411L55.558 346.411L55.558 346.911L52.7916 346.911L52.7916 346.411L50.0253 346.411L50.0253 346.911L47.259 346.911L47.259 346.411L44.4926 346.411L44.4926 346.911L41.7263 346.911L41.7263 346.411L38.9599 346.411L38.9599 346.911L36.1936 346.911L36.1936 346.411L33.4273 346.411L33.4273 346.911L30.661 346.911L30.661 346.411L27.8946 346.411L27.8946 346.911L25.1283 346.911L25.1283 346.411L22.362 346.411L22.362 346.911L19.5956 346.911L19.5956 346.411L16.8293 346.411L16.8293 346.911L15.4461 346.911C15.04 346.911 14.6378 346.928 14.2401 346.962L14.198 346.464C13.3579 346.535 12.5368 346.677 11.74 346.885L11.866 347.368C11.0828 347.572 10.3237 347.842 9.59416 348.171L9.38844 347.716C8.62834 348.059 7.89952 348.465 7.20781 348.927L7.48564 349.343C6.81718 349.789 6.18422 350.291 5.59239 350.841L5.25188 350.475C4.64485 351.04 4.08006 351.654 3.56313 352.312L3.95622 352.62C3.4608 353.251 3.01057 353.923 2.61098 354.631L2.17555 354.385C1.76973 355.104 1.4146 355.858 1.1154 356.643L1.58263 356.821C1.29799 357.568 1.06548 358.343 0.889908 359.141L0.401566 359.033C0.225174 359.835 0.1046 360.66 0.0444189 361.503L0.543137 361.538C0.514542 361.939 0.499985 362.343 0.499985 362.751L0.499985 364.131L-1.46009e-05 364.131L-1.44803e-05 366.89L0.499986 366.89L0.499986 369.649L-1.43597e-05 369.649L-1.42391e-05 372.407L0.499986 372.407L0.499986 375.166L-1.41185e-05 375.166L-1.39979e-05 377.925L0.499986 377.925L0.499986 380.684L-1.38773e-05 380.684L-1.37567e-05 383.443L0.499986 383.443L0.499986 386.202L-1.36361e-05 386.202L-1.35155e-05 388.961L0.499986 388.961L0.499987 391.72L-1.33949e-05 391.72L-1.32743e-05 394.478L0.499987 394.478L0.499987 397.237L-1.31537e-05 397.237L-1.30331e-05 399.996L0.499987 399.996L0.499987 402.755L-1.29125e-05 402.755L-1.27919e-05 405.514L0.499987 405.514L0.499987 408.273L-1.26714e-05 408.273L-1.25508e-05 411.032L0.499987 411.032L0.499988 413.791L-1.24302e-05 413.791L-1.23096e-05 416.549L0.499988 416.549L0.499988 419.308L-1.2189e-05 419.308L-1.20684e-05 422.067L0.499988 422.067L0.499988 424.826L-1.19478e-05 424.826L-1.18272e-05 427.585L0.499988 427.585L0.499988 430.344L-1.17066e-05 430.344L-1.1586e-05 433.103L0.499988 433.103L0.499989 435.862L-1.14654e-05 435.862L-1.13448e-05 438.621L0.499989 438.621L0.499989 441.379L-1.12242e-05 441.379L-1.11036e-05 444.138L0.499989 444.138L0.499989 446.897L-1.0983e-05 446.897L-1.08624e-05 449.656L0.499989 449.656L0.499989 452.415L-1.07418e-05 452.415L-1.06212e-05 455.174L0.499989 455.174L0.499989 457.933L-1.05006e-05 457.933L-1.03801e-05 460.692L0.49999 460.692L0.49999 463.45L-1.02595e-05 463.45L-1.01389e-05 466.209L0.49999 466.209L0.49999 468.968L-1.00183e-05 468.968L-9.89767e-06 471.727L0.49999 471.727L0.49999 474.486L-9.77708e-06 474.486L-9.65648e-06 477.245L0.49999 477.245L0.49999 480.004L-9.53589e-06 480.004L-9.41529e-06 482.763L0.499991 482.763L0.499991 485.522L-9.2947e-06 485.522L-9.1741e-06 488.28L0.499991 488.28L0.499991 489.66C0.499991 490.068 0.514548 490.473 0.543143 490.873L0.0444245 490.909C0.104605 491.751 0.22518 492.576 0.401572 493.378L0.889914 493.27C1.06548 494.069 1.298 494.843 1.58263 495.59L1.11541 495.768C1.4146 496.553 1.76974 497.308 2.17556 498.026L2.61098 497.781C3.01058 498.488 3.46081 499.16 3.95623 499.791L3.56313 500.1C4.08007 500.757 4.64486 501.372 5.25188 501.936L5.5924 501.57C6.18423 502.12 6.81719 502.622 7.48565 503.069L7.20782 503.484C7.89953 503.947 8.62835 504.352 9.38845 504.696L9.59417 504.24C10.3237 504.569 11.0828 504.839 11.866 505.043L11.74 505.527C12.5368 505.734 13.3579 505.876 14.198 505.947L14.2401 505.449C14.6378 505.483 15.04 505.5 15.4461 505.5L16.8094 505.5L16.8094 506L19.5358 506L19.5358 505.5L22.2623 505.5L22.2623 506L24.9888 506L24.9888 505.5L27.7153 505.5L27.7153 506L30.4418 506L30.4418 505.5L33.1683 505.5L33.1683 506L35.8947 506L35.8947 505.5L38.6212 505.5L38.6212 506L41.3477 506L41.3477 505.5L44.0742 505.5L44.0742 506L46.8007 506L46.8007 505.5L49.5271 505.5L49.5271 506L52.2536 506L52.2536 505.5L54.9801 505.5L54.9801 506L57.7066 506L57.7066 505.5L60.4331 505.5L60.4331 506L63.1595 506L63.1595 505.5L65.886 505.5L65.886 506L68.6125 506L68.6125 505.5L71.339 505.5L71.339 506L74.0655 506L74.0655 505.5L76.792 505.5L76.792 506L79.5185 506L79.5185 505.5L82.2449 505.5L82.2449 506L84.9714 506L84.9714 505.5L87.6979 505.5L87.6979 506L90.4243 506L90.4243 505.5L93.1508 505.5L93.1508 506L95.8773 506L95.8773 505.5L98.6038 505.5L98.6038 506L101.33 506L101.33 505.5L104.057 505.5L104.057 506L106.783 506L106.783 505.5L109.51 505.5L109.51 506L112.236 506L112.236 505.5L114.963 505.5L114.963 506L117.689 506L117.689 505.5L120.416 505.5L120.416 506L123.142 506L123.142 505.5L125.869 505.5L125.869 506L128.595 506L128.595 505.5L131.322 505.5L131.322 506L134.048 506L134.048 505.5L135.411 505.5C135.817 505.5 136.22 505.483 136.617 505.449L136.659 505.947C137.5 505.876 138.321 505.734 139.117 505.527L138.991 505.043C139.775 504.839 140.534 504.569 141.263 504.24L141.469 504.696C142.229 504.352 142.958 503.947 143.65 503.484L143.372 503.069C144.04 502.622 144.673 502.12 145.265 501.57L145.606 501.936C146.213 501.372 146.777 500.757 147.294 500.1L146.901 499.791C147.397 499.16 147.847 498.488 148.246 497.781L148.682 498.026C149.088 497.308 149.443 496.553 149.742 495.768L149.275 495.59C149.559 494.843 149.792 494.069 149.968 493.27L150.456 493.378C150.632 492.576 150.753 491.751 150.813 490.909L150.314 490.873C150.343 490.473 150.357 490.068 150.357 489.66L150.357 488.225L150.857 488.225L150.857 485.354L150.357 485.354L150.357 482.484L150.857 482.484L150.857 479.613L150.357 479.613L150.357 476.743L150.857 476.743L150.857 473.872L150.357 473.872L150.357 471.002L150.857 471.002L150.857 468.131L150.357 468.131L150.357 465.261L150.857 465.261L150.857 462.39L150.357 462.39L150.357 459.52L150.857 459.52L150.857 456.649L150.357 456.649L150.357 453.779L150.857 453.779L150.857 450.908L150.357 450.908L150.357 448.038L150.857 448.038L150.857 445.167L150.357 445.167L150.357 442.297L150.857 442.297L150.857 439.427L150.357 439.427L150.357 436.556L150.857 436.556L150.857 433.686L150.357 433.686L150.357 430.815L150.857 430.815L150.857 427.945L150.357 427.945L150.357 425.074L150.857 425.074L150.857 422.204L150.357 422.204L150.357 420.768C150.357 419.999 150.511 419.263 150.789 418.593L151.251 418.784C151.776 417.517 152.79 416.503 154.057 415.978L153.866 415.516C154.536 415.238 155.272 415.084 156.041 415.084L157.419 415.084L157.419 415.584L160.173 415.584L160.173 415.084L162.927 415.084L162.927 415.584L165.681 415.584L165.681 415.084L168.436 415.084L168.436 415.584L171.19 415.584L171.19 415.084L173.944 415.084L173.944 415.584L176.698 415.584L176.698 415.084L179.453 415.084L179.453 415.584L182.207 415.584L182.207 415.084L184.961 415.084L184.961 415.584L187.716 415.584L187.716 415.084L190.47 415.084L190.47 415.584L193.224 415.584L193.224 415.084L195.978 415.084L195.978 415.584L198.733 415.584L198.733 415.084L201.487 415.084L201.487 415.584L204.241 415.584L204.241 415.084L206.995 415.084L206.995 415.584L209.75 415.584L209.75 415.084L212.504 415.084L212.504 415.584L215.258 415.584L215.258 415.084L218.012 415.084L218.012 415.584L220.767 415.584L220.767 415.084L223.521 415.084L223.521 415.584L226.275 415.584L226.275 415.084L229.03 415.084L229.03 415.584L231.784 415.584L231.784 415.084L234.538 415.084L234.538 415.584L237.292 415.584L237.292 415.084L240.047 415.084L240.047 415.584L242.801 415.584L242.801 415.084L245.555 415.084L245.555 415.584L248.309 415.584L248.309 415.084L251.064 415.084L251.064 415.584L253.818 415.584L253.818 415.084L256.572 415.084L256.572 415.584L259.327 415.584L259.327 415.084L262.081 415.084L262.081 415.584L264.835 415.584L264.835 415.084L267.589 415.084L267.589 415.584L270.344 415.584L270.344 415.084L273.098 415.084L273.098 415.584L275.852 415.584L275.852 415.084L278.606 415.084L278.606 415.584L281.361 415.584L281.361 415.084L284.115 415.084L284.115 415.584L286.869 415.584L286.869 415.084L289.624 415.084L289.624 415.584L292.378 415.584L292.378 415.084L295.132 415.084L295.132 415.584L297.886 415.584L297.886 415.084L300.641 415.084L300.641 415.584L303.395 415.584L303.395 415.084L306.149 415.084L306.149 415.584L308.903 415.584L308.903 415.084L311.658 415.084L311.658 415.584L314.412 415.584L314.412 415.084L317.166 415.084L317.166 415.584L319.921 415.584L319.921 415.084L322.675 415.084L322.675 415.584L325.429 415.584L325.429 415.084L328.183 415.084L328.183 415.584L330.938 415.584L330.938 415.084L333.692 415.084L333.692 415.584L336.446 415.584L336.446 415.084L339.2 415.084L339.2 415.584L341.955 415.584L341.955 415.084L344.709 415.084L344.709 415.584L347.463 415.584L347.463 415.084L350.218 415.084L350.218 415.584L352.972 415.584L352.972 415.084L355.726 415.084L355.726 415.584L358.48 415.584L358.48 415.084L361.235 415.084L361.235 415.584L363.989 415.584L363.989 415.084L366.743 415.084L366.743 415.584L369.497 415.584L369.497 415.084L372.252 415.084L372.252 415.584L375.006 415.584L375.006 415.084L377.76 415.084L377.76 415.584L380.515 415.584L380.515 415.084L383.269 415.084L383.269 415.584L386.023 415.584L386.023 415.084L388.777 415.084L388.777 415.584L391.532 415.584L391.532 415.084L394.286 415.084L394.286 415.584L397.04 415.584L397.04 415.084L399.794 415.084L399.794 415.584L402.549 415.584L402.549 415.084L405.303 415.084L405.303 415.584L408.057 415.584L408.057 415.084L410.812 415.084L410.812 415.584L413.566 415.584L413.566 415.084L416.32 415.084L416.32 415.584L419.074 415.584L419.074 415.084L421.829 415.084L421.829 415.584L424.583 415.584L424.583 415.084L427.337 415.084L427.337 415.584L430.091 415.584L430.091 415.084L432.846 415.084L432.846 415.584L435.6 415.584L435.6 415.084L438.354 415.084L438.354 415.584L441.109 415.584L441.109 415.084L443.863 415.084L443.863 415.584L446.617 415.584L446.617 415.084L449.371 415.084L449.371 415.584L452.126 415.584L452.126 415.084L454.88 415.084L454.88 415.584L457.634 415.584L457.634 415.084L460.388 415.084L460.388 415.584L463.143 415.584L463.143 415.084L465.897 415.084L465.897 415.584L468.651 415.584L468.651 415.084L471.406 415.084L471.406 415.584L474.16 415.584L474.16 415.084L476.914 415.084L476.914 415.584L479.668 415.584L479.668 415.084L482.423 415.084L482.423 415.584L485.177 415.584L485.177 415.084L486.554 415.084C486.96 415.084 487.362 415.067 487.76 415.034L487.802 415.532C488.642 415.461 489.463 415.319 490.26 415.111L490.134 414.627C490.917 414.423 491.676 414.154 492.406 413.824L492.612 414.28C493.372 413.937 494.1 413.531 494.792 413.069L494.514 412.653C495.183 412.206 495.816 411.705 496.408 411.154L496.748 411.521C497.355 410.956 497.92 410.342 498.437 409.684L498.044 409.375C498.539 408.745 498.989 408.073 499.389 407.365L499.824 407.611C500.23 406.892 500.585 406.137 500.885 405.353L500.417 405.175C500.702 404.428 500.935 403.653 501.11 402.855L501.598 402.962C501.775 402.16 501.895 401.336 501.956 400.493L501.457 400.457C501.485 400.057 501.5 399.653 501.5 399.244L501.5 397.857L502 397.857L502 395.082L501.5 395.082L501.5 392.308L502 392.308L502 389.533L501.5 389.533L501.5 386.758L502 386.758L502 383.984L501.5 383.984L501.5 381.209L502 381.209L502 378.434L501.5 378.434L501.5 375.66L502 375.66L502 372.885L501.5 372.885L501.5 370.11L502 370.11L502 367.336L501.5 367.336L501.5 364.561L502 364.561L502 361.786L501.5 361.786L501.5 359.012L502 359.012L502 356.237L501.5 356.237L501.5 353.462L502 353.462L502 350.688L501.5 350.688L501.5 347.913L502 347.913L502 345.138L501.5 345.138L501.5 342.364L502 342.364L502 339.589L501.5 339.589L501.5 336.814L502 336.814L502 334.04L501.5 334.04L501.5 331.265L502 331.265L502 328.49L501.5 328.49L501.5 325.716L502 325.716L502 322.941L501.5 322.941L501.5 320.166L502 320.166L502 317.392L501.5 317.392L501.5 314.617L502 314.617L502 311.842L501.5 311.842L501.5 309.068L502 309.068L502 306.293L501.5 306.293L501.5 303.518L502 303.518L502 300.744L501.5 300.744L501.5 297.969L502 297.969L502 295.194L501.5 295.194L501.5 292.42L502 292.42L502 289.645L501.5 289.645L501.5 286.87L502 286.87L502 284.096L501.5 284.096L501.5 281.321L502 281.321L502 278.546L501.5 278.546L501.5 275.772L502 275.772L502 272.997L501.5 272.997L501.5 270.222L502 270.222L502 267.448L501.5 267.448L501.5 264.673L502 264.673L502 261.898L501.5 261.898L501.5 259.124L502 259.124L502 256.349L501.5 256.349L501.5 253.574L502 253.574L502 250.8L501.5 250.8L501.5 248.025L502 248.025L502 245.25L501.5 245.25L501.5 242.476L502 242.476L502 239.701L501.5 239.701L501.5 236.926L502 236.926L502 234.152L501.5 234.152L501.5 231.377L502 231.377L502 228.602L501.5 228.602L501.5 225.828L502 225.828L502 223.053L501.5 223.053L501.5 220.278L502 220.278L502 217.503L501.5 217.503L501.5 214.729L502 214.729L502 211.954L501.5 211.954L501.5 209.179L502 209.179L502 206.405L501.5 206.405L501.5 203.63L502 203.63L502 200.855L501.5 200.855L501.5 198.081L502 198.081L502 195.306L501.5 195.306L501.5 192.531L502 192.531L502 189.757L501.5 189.757L501.5 186.982L502 186.982L502 184.207L501.5 184.207L501.5 181.433L502 181.433L502 178.658L501.5 178.658L501.5 175.883L502 175.883L502 173.109L501.5 173.109L501.5 170.334L502 170.334L502 167.559L501.5 167.559L501.5 164.785L502 164.785L502 162.01L501.5 162.01L501.5 159.235L502 159.235L502 156.461L501.5 156.461L501.5 153.686L502 153.686L502 150.911L501.5 150.911L501.5 148.137L502 148.137L502 145.362L501.5 145.362L501.5 142.587L502 142.587L502 139.813L501.5 139.813L501.5 137.038L502 137.038L502 134.263L501.5 134.263L501.5 131.489L502 131.489L502 128.714L501.5 128.714L501.5 125.939L502 125.939L502 123.165L501.5 123.165L501.5 120.39L502 120.39L502 117.615L501.5 117.615L501.5 114.841L502 114.841L502 112.066L501.5 112.066L501.5 109.291L502 109.291L502 106.517L501.5 106.517L501.5 103.742L502 103.742L502 100.967L501.5 100.967L501.5 98.1928L502 98.1928L502 95.4181L501.5 95.4181L501.5 92.6435L502 92.6435L502 89.8688L501.5 89.8688L501.5 87.0941L502 87.0941L502 84.3195L501.5 84.3195L501.5 81.5448L502 81.5448L502 78.7702L501.5 78.7702L501.5 75.9955L502 75.9955L502 73.2208L501.5 73.2208L501.5 70.4462L502 70.4462L502 67.6715L501.5 67.6715L501.5 64.8969L502 64.8969L502 62.1222L501.5 62.1222L501.5 59.3476L502 59.3476L502 56.5729L501.5 56.5729L501.5 53.7982L502 53.7982L502 51.0236L501.5 51.0236L501.5 48.2489L502 48.2489L502 45.4743L501.5 45.4743L501.5 42.6996L502 42.6996L502 39.925L501.5 39.925L501.5 37.1503L502 37.1503L502 34.3756L501.5 34.3756L501.5 31.601L502 31.601L502 28.8263L501.5 28.8263L501.5 26.0517L502 26.0517L502 23.277L501.5 23.277L501.5 20.5024L502 20.5024L502 17.7277L501.5 17.7277L501.5 16.3401C501.5 15.9319 501.485 15.5274 501.457 15.1271L501.956 15.0915Z" stroke="#5B5B5B" stroke-dasharray="2.76 2.76"/>
</svg>
