<svg width="481" height="485" viewBox="0 0 481 485" fill="none" xmlns="http://www.w3.org/2000/svg">
<path d="M480.733 472.314C480.366 474.331 479.634 476.21 478.612 477.872L478.186 477.61C477.16 479.277 475.834 480.716 474.291 481.841L474.585 482.246C472.98 483.415 471.147 484.259 469.169 484.685L469.064 484.196C468.139 484.395 467.181 484.5 466.2 484.5L463.792 484.5L463.792 485L458.975 485L458.975 484.5L454.158 484.5L454.158 485L449.341 485L449.341 484.5L444.524 484.5L444.524 485L439.707 485L439.707 484.5L434.89 484.5L434.89 485L430.074 485L430.074 484.5L425.257 484.5L425.257 485L420.44 485L420.44 484.5L415.623 484.5L415.623 485L410.806 485L410.806 484.5L405.989 484.5L405.989 485L401.172 485L401.172 484.5L396.356 484.5L396.356 485L391.539 485L391.539 484.5L386.722 484.5L386.722 485L381.905 485L381.905 484.5L377.088 484.5L377.088 485L372.271 485L372.271 484.5L367.455 484.5L367.455 485L362.638 485L362.638 484.5L357.821 484.5L357.821 485L353.004 485L353.004 484.5L348.187 484.5L348.187 485L343.37 485L343.37 484.5L338.553 484.5L338.553 485L333.737 485L333.737 484.5L328.92 484.5L328.92 485L324.103 485L324.103 484.5L319.286 484.5L319.286 485L314.469 485L314.469 484.5L309.652 484.5L309.652 485L304.835 485L304.835 484.5L300.019 484.5L300.019 485L295.202 485L295.202 484.5L290.385 484.5L290.385 485L285.568 485L285.568 484.5L280.751 484.5L280.751 485L275.934 485L275.934 484.5L271.118 484.5L271.118 485L266.301 485L266.301 484.5L261.484 484.5L261.484 485L256.667 485L256.667 484.5L251.85 484.5L251.85 485L247.033 485L247.033 484.5L242.216 484.5L242.216 485L237.4 485L237.4 484.5L232.583 484.5L232.583 485L227.766 485L227.766 484.5L222.949 484.5L222.949 485L218.132 485L218.132 484.5L213.315 484.5L213.315 485L208.499 485L208.499 484.5L203.682 484.5L203.682 485L198.865 485L198.865 484.5L194.048 484.5L194.048 485L189.231 485L189.231 484.5L184.414 484.5L184.414 485L179.597 485L179.597 484.5L174.78 484.5L174.78 485L169.964 485L169.964 484.5L165.147 484.5L165.147 485L160.33 485L160.33 484.5L155.513 484.5L155.513 485L150.696 485L150.696 484.5L145.879 484.5L145.879 485L141.062 485L141.062 484.5L136.246 484.5L136.246 485L131.429 485L131.429 484.5L126.612 484.5L126.612 485L121.795 485L121.795 484.5L119.387 484.5C118.405 484.5 117.448 484.395 116.523 484.196L116.417 484.685C114.44 484.259 112.606 483.415 111.001 482.245L111.296 481.841C109.752 480.716 108.426 479.277 107.4 477.61L106.975 477.872C105.952 476.21 105.22 474.331 104.854 472.314L105.345 472.225C105.176 471.291 105.087 470.326 105.087 469.338L105.087 466.937L104.587 466.937L104.587 462.134L105.087 462.134L105.087 457.331L104.587 457.331L104.587 452.529L105.087 452.529L105.087 447.726L104.587 447.726L104.587 442.923L105.087 442.923L105.087 438.12L104.587 438.12L104.587 433.318L105.087 433.318L105.087 428.515L104.587 428.515L104.587 423.712L105.087 423.712L105.087 418.91L104.587 418.91L104.587 414.107L105.087 414.107L105.087 409.304L104.587 409.304L104.587 404.502L105.087 404.502L105.087 399.699L104.587 399.699L104.587 394.896L105.087 394.896L105.087 390.094L104.587 390.094L104.587 385.291L105.087 385.291L105.087 380.488L104.587 380.488L104.587 375.685L105.087 375.685L105.087 370.883L104.587 370.883L104.587 366.08L105.087 366.08L105.087 361.277L104.587 361.277L104.587 356.475L105.087 356.475L105.087 351.672L104.587 351.672L104.587 346.869L105.087 346.869L105.087 342.067L104.587 342.067L104.587 337.264L105.087 337.264L105.087 332.461L104.587 332.461L104.587 327.658L105.087 327.658L105.087 322.856L104.587 322.856L104.587 318.053L105.087 318.053L105.087 313.25L104.587 313.25L104.587 308.448L105.087 308.448L105.087 303.645L104.587 303.645L104.587 298.842L105.087 298.842L105.087 294.04L104.587 294.04L104.587 289.237L105.087 289.237L105.087 284.434L104.587 284.434L104.587 279.632L105.087 279.632L105.087 274.829L104.587 274.829L104.587 270.026L105.087 270.026L105.087 265.224L104.587 265.224L104.587 260.421L105.087 260.421L105.087 255.618L104.587 255.618L104.587 250.815L105.087 250.815L105.087 246.013L104.587 246.013L104.587 241.21L105.087 241.21L105.087 236.407L104.587 236.407L104.587 231.605L105.087 231.605L105.087 226.802L104.587 226.802L104.587 221.999L105.087 221.999L105.087 217.197L104.587 217.197L104.587 212.394L105.087 212.394L105.087 207.591L104.587 207.591L104.587 202.789L105.087 202.789L105.087 197.986L104.587 197.986L104.587 193.183L105.087 193.183L105.087 188.38L104.587 188.38L104.587 183.578L105.087 183.578L105.087 178.775L104.587 178.775L104.587 173.972L105.087 173.972L105.087 169.17L104.587 169.17L104.587 164.367L105.087 164.367L105.087 161.966C105.087 160.678 104.83 159.45 104.366 158.329L103.904 158.52C102.991 156.321 101.232 154.561 99.0318 153.648L99.2233 153.187C98.1025 152.722 96.8739 152.466 95.5867 152.466L93.0621 152.466L93.0621 152.966L88.0129 152.966L88.0129 152.466L82.9637 152.466L82.9637 152.966L77.9146 152.966L77.9146 152.466L72.8654 152.466L72.8654 152.966L67.8162 152.966L67.8162 152.466L62.7671 152.466L62.7671 152.966L57.7179 152.966L57.7179 152.466L52.6687 152.466L52.6687 152.966L47.6196 152.966L47.6196 152.466L42.5704 152.466L42.5704 152.966L37.5212 152.966L37.5212 152.466L32.4721 152.466L32.4721 152.966L27.4229 152.966L27.4229 152.466L22.3737 152.466L22.3737 152.966L17.3246 152.966L17.3246 152.466L14.8 152.466C13.8186 152.466 12.8609 152.361 11.9359 152.161L11.8306 152.65C9.85347 152.224 8.01964 151.381 6.41481 150.211L6.70933 149.807C5.16579 148.682 3.83955 147.243 2.81374 145.575L2.38786 145.837C1.3658 144.176 0.633529 142.297 0.266861 140.28L0.758804 140.19C0.588974 139.256 0.499985 138.291 0.499985 137.304L0.499985 134.964L-1.5217e-05 134.964L-1.50125e-05 130.286L0.499985 130.286L0.499985 125.607L-1.4808e-05 125.607L-1.46035e-05 120.929L0.499985 120.929L0.499986 116.25L-1.4399e-05 116.25L-1.41945e-05 111.572L0.499986 111.572L0.499986 106.893L-1.399e-05 106.893L-1.37855e-05 102.215L0.499986 102.215L0.499986 97.5361L-1.3581e-05 97.5361L-1.33765e-05 92.8576L0.499987 92.8576L0.499987 88.1791L-1.3172e-05 88.1791L-1.29675e-05 83.5006L0.499987 83.5006L0.499987 78.822L-1.2763e-05 78.822L-1.25585e-05 74.1435L0.499987 74.1435L0.499988 69.465L-1.2354e-05 69.465L-1.21495e-05 64.7865L0.499988 64.7865L0.499988 60.108L-1.1945e-05 60.108L-1.17405e-05 55.4294L0.499988 55.4294L0.499988 50.7509L-1.15359e-05 50.7509L-1.13314e-05 46.0724L0.499989 46.0724L0.499989 41.3939L-1.11269e-05 41.3939L-1.09224e-05 36.7153L0.499989 36.7153L0.499989 32.0368L-1.07179e-05 32.0368L-1.05134e-05 27.3583L0.499989 27.3583L0.49999 22.6798L-1.03089e-05 22.6798L-1.01044e-05 18.0013L0.49999 18.0013L0.49999 15.662C0.49999 14.6744 0.588979 13.7094 0.75881 12.7752L0.266866 12.6858C0.633535 10.6688 1.3658 8.78953 2.38787 7.12818L2.81374 7.39018C3.83956 5.7227 5.16579 4.28364 6.70934 3.15855L6.41482 2.7545C8.01964 1.58473 9.85348 0.741434 11.8306 0.315318L11.9359 0.804118C12.8609 0.604746 13.8187 0.50001 14.8 0.50001L17.1947 0.50001L17.1947 1.0244e-05L21.9842 1.04534e-05L21.9842 0.50001L26.7736 0.500011L26.7736 1.06627e-05L31.563 1.08721e-05L31.563 0.500011L36.3525 0.500011L36.3525 1.10814e-05L41.1419 1.12908e-05L41.1419 0.500011L45.9314 0.500012L45.9314 1.15001e-05L50.7208 1.17095e-05L50.7208 0.500012L55.5103 0.500012L55.5103 1.19188e-05L60.2997 1.21282e-05L60.2997 0.500012L65.0892 0.500012L65.0892 1.23375e-05L69.8786 1.25469e-05L69.8786 0.500013L74.6681 0.500013L74.6681 1.27562e-05L79.4575 1.29656e-05L79.4575 0.500013L84.2469 0.500013L84.2469 1.31749e-05L89.0364 1.33843e-05L89.0364 0.500013L93.8258 0.500014L93.8258 1.35937e-05L98.6153 1.3803e-05L98.6153 0.500014L103.405 0.500014L103.405 1.40124e-05L108.194 1.42217e-05L108.194 0.500014L112.984 0.500014L112.984 1.44311e-05L117.773 1.46404e-05L117.773 0.500015L122.562 0.500015L122.562 1.48498e-05L127.352 1.50591e-05L127.352 0.500015L129.747 0.500015C130.728 0.500015 131.686 0.604752 132.611 0.804123L132.716 0.315323C134.693 0.74144 136.527 1.58473 138.132 2.7545L137.837 3.15855C139.381 4.28365 140.707 5.7227 141.733 7.39018L142.159 7.12819C143.181 8.78954 143.913 10.6688 144.28 12.6858L143.788 12.7752C143.958 13.7094 144.047 14.6744 144.047 15.662L144.047 18.2454L144.547 18.2454L144.547 23.4121L144.047 23.4121L144.047 28.5789L144.547 28.5789L144.547 33.7457L144.047 33.7457L144.047 38.9124L144.547 38.9124L144.547 44.0791L144.047 44.0791L144.047 49.2459L144.547 49.2459L144.547 54.4127L144.047 54.4127L144.047 59.5794L144.547 59.5794L144.547 64.7462L144.047 64.7462L144.047 69.9129L144.547 69.9129L144.547 75.0797L144.047 75.0797L144.047 77.6631C144.047 78.9503 144.303 80.1789 144.768 81.2997L145.23 81.1082C146.142 83.3082 147.902 85.0679 150.102 85.9801L149.91 86.442C151.031 86.9068 152.259 87.1631 153.547 87.1631L155.915 87.1631L155.915 86.6631L160.652 86.6631L160.652 87.1631L165.39 87.1631L165.39 86.6631L170.127 86.6631L170.127 87.1631L174.864 87.1631L174.864 86.6631L179.601 86.6631L179.601 87.1631L184.338 87.1631L184.338 86.6631L189.075 86.6631L189.075 87.1631L193.813 87.1631L193.813 86.6631L198.55 86.6631L198.55 87.1631L203.287 87.1631L203.287 86.6631L208.024 86.6631L208.024 87.1631L212.761 87.1631L212.761 86.6631L217.498 86.6631L217.498 87.1631L222.236 87.1631L222.236 86.6631L226.973 86.6631L226.973 87.1631L231.71 87.1631L231.71 86.6631L236.447 86.6631L236.447 87.1631L241.184 87.1631L241.184 86.6631L245.922 86.6631L245.922 87.1631L250.659 87.1631L250.659 86.6631L255.396 86.6631L255.396 87.1631L260.133 87.1631L260.133 86.6631L264.87 86.6631L264.87 87.1631L269.607 87.1631L269.607 86.6631L274.345 86.6631L274.345 87.1631L279.082 87.1631L279.082 86.6631L283.819 86.6631L283.819 87.1631L288.556 87.1631L288.556 86.6631L293.293 86.6631L293.293 87.1631L298.03 87.1631L298.03 86.6631L302.768 86.6631L302.768 87.1631L307.505 87.1631L307.505 86.6631L312.242 86.6631L312.242 87.1631L316.979 87.1631L316.979 86.6631L321.716 86.6631L321.716 87.1631L326.453 87.1631L326.453 86.6631L331.191 86.6631L331.191 87.1631L335.928 87.1631L335.928 86.6631L340.665 86.6631L340.665 87.1631L345.402 87.1631L345.402 86.6631L350.139 86.6631L350.139 87.1631L354.876 87.1631L354.876 86.6631L359.614 86.6631L359.614 87.1631L364.351 87.1631L364.351 86.6631L369.088 86.6631L369.088 87.1631L373.825 87.1631L373.825 86.6631L378.562 86.6631L378.562 87.1631L383.299 87.1631L383.299 86.6631L388.037 86.6631L388.037 87.1631L392.774 87.1631L392.774 86.6631L397.511 86.6631L397.511 87.1631L402.248 87.1631L402.248 86.6631L406.985 86.6631L406.985 87.1631L411.722 87.1631L411.722 86.6631L416.46 86.6631L416.46 87.1631L421.197 87.1631L421.197 86.6631L425.934 86.6631L425.934 87.1631L430.671 87.1631L430.671 86.6631L435.408 86.6631L435.408 87.1631L440.146 87.1631L440.146 86.6631L444.883 86.6631L444.883 87.1631L449.62 87.1631L449.62 86.6631L454.357 86.6631L454.357 87.1631L459.094 87.1631L459.094 86.6631L463.831 86.6631L463.831 87.1631L466.2 87.1631C467.181 87.1631 468.139 87.2678 469.064 87.4672L469.169 86.9784C471.147 87.4045 472.98 88.2478 474.585 89.4176L474.291 89.8216C475.834 90.9467 477.16 92.3858 478.186 94.0533L478.612 93.7913C479.634 95.4526 480.366 97.3319 480.733 99.3488L480.241 99.4383C480.411 100.372 480.5 101.338 480.5 102.325L480.5 104.74L481 104.74L481 109.569L480.5 109.569L480.5 114.398L481 114.398L481 119.227L480.5 119.227L480.5 124.056L481 124.056L481 128.885L480.5 128.885L480.5 133.714L481 133.714L481 138.543L480.5 138.543L480.5 143.373L481 143.373L481 148.202L480.5 148.202L480.5 153.031L481 153.031L481 157.86L480.5 157.86L480.5 162.689L481 162.689L481 167.518L480.5 167.518L480.5 172.347L481 172.347L481 177.176L480.5 177.176L480.5 182.006L481 182.006L481 186.835L480.5 186.835L480.5 191.664L481 191.664L481 196.493L480.5 196.493L480.5 201.322L481 201.322L481 206.151L480.5 206.151L480.5 210.98L481 210.98L481 215.809L480.5 215.809L480.5 220.638L481 220.638L481 225.468L480.5 225.468L480.5 230.297L481 230.297L481 235.126L480.5 235.126L480.5 239.955L481 239.955L481 244.784L480.5 244.784L480.5 249.613L481 249.613L481 254.442L480.5 254.442L480.5 259.271L481 259.271L481 264.101L480.5 264.101L480.5 268.93L481 268.93L481 273.759L480.5 273.759L480.5 278.588L481 278.588L481 283.417L480.5 283.417L480.5 288.246L481 288.246L481 293.075L480.5 293.075L480.5 297.904L481 297.904L481 302.733L480.5 302.733L480.5 307.563L481 307.563L481 312.392L480.5 312.392L480.5 317.221L481 317.221L481 322.05L480.5 322.05L480.5 326.879L481 326.879L481 331.708L480.5 331.708L480.5 336.537L481 336.537L481 341.366L480.5 341.366L480.5 346.195L481 346.195L481 351.025L480.5 351.025L480.5 355.854L481 355.854L481 360.683L480.5 360.683L480.5 365.512L481 365.512L481 370.341L480.5 370.341L480.5 375.17L481 375.17L481 379.999L480.5 379.999L480.5 384.829L481 384.829L481 389.658L480.5 389.658L480.5 394.487L481 394.487L481 399.316L480.5 399.316L480.5 404.145L481 404.145L481 408.974L480.5 408.974L480.5 413.803L481 413.803L481 418.632L480.5 418.632L480.5 423.462L481 423.462L481 428.291L480.5 428.291L480.5 433.12L481 433.12L481 437.949L480.5 437.949L480.5 442.778L481 442.778L481 447.607L480.5 447.607L480.5 452.436L481 452.436L481 457.265L480.5 457.265L480.5 462.095L481 462.095L481 466.924L480.5 466.924L480.5 469.338C480.5 470.326 480.411 471.291 480.241 472.225L480.733 472.314Z" stroke="#5B5B5B" stroke-dasharray="4.8 4.8"/>
</svg>
