<svg width="790" height="824" viewBox="0 0 790 824" fill="none" xmlns="http://www.w3.org/2000/svg">
<path d="M789.894 799.89C789.75 801.582 789.462 803.227 789.042 804.812L788.559 804.684C788.133 806.291 787.571 807.834 786.886 809.296L787.339 809.508C786.624 811.037 785.777 812.479 784.816 813.819L784.41 813.527C783.446 814.869 782.366 816.104 781.186 817.214L781.529 817.578C780.307 818.728 778.98 819.747 777.566 820.615L777.304 820.189C775.913 821.043 774.436 821.748 772.892 822.285L773.056 822.757C771.496 823.299 769.867 823.674 768.188 823.861L768.133 823.365C767.331 823.454 766.516 823.5 765.692 823.5L763.279 823.5L763.279 824L758.451 824L758.451 823.5L753.624 823.5L753.624 824L748.797 824L748.797 823.5L743.97 823.5L743.97 824L739.143 824L739.143 823.5L734.315 823.5L734.315 824L729.488 824L729.488 823.5L724.661 823.5L724.661 824L719.834 824L719.834 823.5L715.007 823.5L715.007 824L710.179 824L710.179 823.5L705.352 823.5L705.352 824L700.525 824L700.525 823.5L695.698 823.5L695.698 824L690.871 824L690.871 823.5L686.043 823.5L686.043 824L681.216 824L681.216 823.5L676.389 823.5L676.389 824L671.562 824L671.562 823.5L666.735 823.5L666.735 824L661.907 824L661.907 823.5L657.08 823.5L657.08 824L652.253 824L652.253 823.5L647.426 823.5L647.426 824L642.599 824L642.599 823.5L637.771 823.5L637.771 824L632.944 824L632.944 823.5L628.117 823.5L628.117 824L623.29 824L623.29 823.5L618.462 823.5L618.462 824L613.635 824L613.635 823.5L608.808 823.5L608.808 824L603.981 824L603.981 823.5L599.154 823.5L599.154 824L594.326 824L594.326 823.5L589.499 823.5L589.499 824L584.672 824L584.672 823.5L579.845 823.5L579.845 824L575.018 824L575.018 823.5L570.19 823.5L570.19 824L565.363 824L565.363 823.5L560.536 823.5L560.536 824L555.709 824L555.709 823.5L550.882 823.5L550.882 824L546.054 824L546.054 823.5L541.227 823.5L541.227 824L536.4 824L536.4 823.5L531.573 823.5L531.573 824L526.745 824L526.745 823.5L521.918 823.5L521.918 824L517.091 824L517.091 823.5L512.264 823.5L512.264 824L507.437 824L507.437 823.5L502.609 823.5L502.609 824L497.782 824L497.782 823.5L492.955 823.5L492.955 824L488.128 824L488.128 823.5L483.301 823.5L483.301 824L478.473 824L478.473 823.5L473.646 823.5L473.646 824L468.819 824L468.819 823.5L463.992 823.5L463.992 824L459.165 824L459.165 823.5L454.337 823.5L454.337 824L449.51 824L449.51 823.5L444.683 823.5L444.683 824L439.856 824L439.856 823.5L435.029 823.5L435.029 824L430.201 824L430.201 823.5L425.374 823.5L425.374 824L420.547 824L420.547 823.5L415.72 823.5L415.72 824L410.892 824L410.892 823.5L406.065 823.5L406.065 824L401.238 824L401.238 823.5L396.411 823.5L396.411 824L391.584 824L391.584 823.5L386.756 823.5L386.756 824L381.929 824L381.929 823.5L377.102 823.5L377.102 824L372.275 824L372.275 823.5L367.448 823.5L367.448 824L362.62 824L362.62 823.5L357.793 823.5L357.793 824L352.966 824L352.966 823.5L348.139 823.5L348.139 824L343.312 824L343.312 823.5L338.484 823.5L338.484 824L333.657 824L333.657 823.5L328.83 823.5L328.83 824L324.003 824L324.003 823.5L319.176 823.5L319.176 824L314.348 824L314.348 823.5L309.521 823.5L309.521 824L304.694 824L304.694 823.5L299.867 823.5L299.867 824L295.039 824L295.039 823.5L290.212 823.5L290.212 824L285.385 824L285.385 823.5L280.558 823.5L280.558 824L275.731 824L275.731 823.5L270.903 823.5L270.903 824L266.076 824L266.076 823.5L261.249 823.5L261.249 824L256.422 824L256.422 823.5L251.595 823.5L251.595 824L246.767 824L246.767 823.5L241.94 823.5L241.94 824L237.113 824L237.113 823.5L232.286 823.5L232.286 824L227.459 824L227.459 823.5L222.631 823.5L222.631 824L217.804 824L217.804 823.5L212.977 823.5L212.977 824L208.15 824L208.15 823.5L203.323 823.5L203.323 824L198.495 824L198.495 823.5L196.082 823.5C195.258 823.5 194.444 823.454 193.641 823.364L193.586 823.861C191.907 823.674 190.278 823.299 188.718 822.757L188.882 822.285C187.338 821.748 185.861 821.043 184.47 820.189L184.209 820.615C182.794 819.747 181.467 818.728 180.245 817.578L180.588 817.214C179.408 816.104 178.328 814.869 177.365 813.527L176.958 813.819C175.997 812.479 175.151 811.037 174.435 809.508L174.888 809.296C174.204 807.834 173.641 806.291 173.216 804.684L172.732 804.812C172.313 803.227 172.024 801.582 171.88 799.89L172.378 799.847C172.309 799.039 172.274 798.219 172.274 797.391L172.274 794.988L171.774 794.988L171.774 790.184L172.274 790.184L172.274 785.379L171.774 785.379L171.774 780.575L172.274 780.575L172.274 775.77L171.774 775.77L171.774 770.965L172.274 770.965L172.274 766.161L171.774 766.161L171.774 761.356L172.274 761.356L172.274 756.552L171.774 756.552L171.774 751.747L172.274 751.747L172.274 746.942L171.774 746.942L171.774 742.138L172.274 742.138L172.274 737.333L171.774 737.333L171.774 732.528L172.274 732.528L172.274 727.724L171.774 727.724L171.774 722.919L172.274 722.919L172.274 718.115L171.774 718.115L171.774 713.31L172.274 713.31L172.274 708.505L171.774 708.505L171.774 703.701L172.274 703.701L172.274 698.896L171.774 698.896L171.774 694.092L172.274 694.092L172.274 689.287L171.774 689.287L171.774 684.482L172.274 684.482L172.274 679.678L171.774 679.678L171.774 674.873L172.274 674.873L172.274 670.069L171.774 670.069L171.774 665.264L172.274 665.264L172.274 660.459L171.774 660.459L171.774 655.655L172.274 655.655L172.274 650.85L171.774 650.85L171.774 646.045L172.274 646.045L172.274 641.241L171.774 641.241L171.774 636.436L172.274 636.436L172.274 631.632L171.774 631.632L171.774 626.827L172.274 626.827L172.274 622.022L171.774 622.022L171.774 617.218L172.274 617.218L172.274 612.413L171.774 612.413L171.774 607.609L172.274 607.609L172.274 602.804L171.774 602.804L171.774 597.999L172.274 597.999L172.274 593.195L171.774 593.195L171.774 588.39L172.274 588.39L172.274 583.586L171.774 583.586L171.774 578.781L172.274 578.781L172.274 573.976L171.774 573.976L171.774 569.172L172.274 569.172L172.274 564.367L171.774 564.367L171.774 559.563L172.274 559.563L172.274 554.758L171.774 554.758L171.774 549.953L172.274 549.953L172.274 545.149L171.774 545.149L171.774 540.344L172.274 540.344L172.274 535.539L171.774 535.539L171.774 530.735L172.274 530.735L172.274 525.93L171.774 525.93L171.774 521.126L172.274 521.126L172.274 516.321L171.774 516.321L171.774 511.516L172.274 511.516L172.274 506.712L171.774 506.712L171.774 501.907L172.274 501.907L172.274 497.103L171.774 497.103L171.774 492.298L172.274 492.298L172.274 487.494L171.774 487.494L171.774 482.689L172.274 482.689L172.274 477.884L171.774 477.884L171.774 473.08L172.274 473.08L172.274 468.275L171.774 468.275L171.774 463.47L172.274 463.47L172.274 458.666L171.774 458.666L171.774 453.861L172.274 453.861L172.274 449.057L171.774 449.057L171.774 444.252L172.274 444.252L172.274 439.448L171.774 439.448L171.774 434.643L172.274 434.643L172.274 429.838L171.774 429.838L171.774 425.034L172.274 425.034L172.274 420.229L171.774 420.229L171.774 415.425L172.274 415.425L172.274 410.62L171.774 410.62L171.774 405.815L172.274 405.815L172.274 401.011L171.774 401.011L171.774 396.206L172.274 396.206L172.274 391.402L171.774 391.402L171.774 386.597L172.274 386.597L172.274 381.792L171.774 381.792L171.774 376.988L172.274 376.988L172.274 372.183L171.774 372.183L171.774 367.379L172.274 367.379L172.274 362.574L171.774 362.574L171.774 357.769L172.274 357.769L172.274 352.965L171.774 352.965L171.774 348.16L172.274 348.16L172.274 343.356L171.774 343.356L171.774 338.551L172.274 338.551L172.274 333.746L171.774 333.746L171.774 328.942L172.274 328.942L172.274 324.137L171.774 324.137L171.774 319.333L172.274 319.333L172.274 314.528L171.774 314.528L171.774 309.723L172.274 309.723L172.274 304.919L171.774 304.919L171.774 300.114L172.274 300.114L172.274 295.31L171.774 295.31L171.774 290.505L172.274 290.505L172.274 285.7L171.774 285.7L171.774 280.896L172.274 280.896L172.274 276.091L171.774 276.091L171.774 271.287L172.274 271.287L172.274 268.884C172.274 267.597 172.018 266.368 171.553 265.247L171.091 265.439C170.179 263.239 168.419 261.479 166.219 260.567L166.411 260.105C165.29 259.64 164.061 259.384 162.774 259.384L160.302 259.384L160.302 259.884L155.356 259.884L155.356 259.384L150.411 259.384L150.411 259.884L145.466 259.884L145.466 259.384L140.521 259.384L140.521 259.884L135.576 259.884L135.576 259.384L130.63 259.384L130.63 259.884L125.685 259.884L125.685 259.384L120.74 259.384L120.74 259.884L115.795 259.884L115.795 259.384L110.849 259.384L110.849 259.884L105.904 259.884L105.904 259.384L100.959 259.384L100.959 259.884L96.0136 259.884L96.0136 259.384L91.0683 259.384L91.0683 259.884L86.1231 259.884L86.1231 259.384L81.1779 259.384L81.1779 259.884L76.2326 259.884L76.2326 259.384L71.2874 259.384L71.2874 259.884L66.3422 259.884L66.3422 259.384L61.3969 259.384L61.3969 259.884L56.4517 259.884L56.4517 259.384L51.5065 259.384L51.5065 259.884L46.5612 259.884L46.5612 259.384L41.616 259.384L41.616 259.884L36.6707 259.884L36.6707 259.384L31.7255 259.384L31.7255 259.884L26.7803 259.884L26.7803 259.384L24.3076 259.384C23.4835 259.384 22.6694 259.338 21.8672 259.248L21.8117 259.745C20.1325 259.558 18.5039 259.183 16.9436 258.641L17.1077 258.168C15.5636 257.632 14.087 256.927 12.6959 256.073L12.4344 256.499C11.0198 255.63 9.69271 254.611 8.47109 253.462L8.81375 253.098C7.63375 251.988 6.55355 250.752 5.59036 249.411L5.18417 249.702C4.2228 248.363 3.37631 246.92 2.66091 245.392L3.11373 245.18C2.42929 243.718 1.86685 242.175 1.44137 240.568L0.958033 240.696C0.538356 239.111 0.24972 237.465 0.105739 235.774L0.603969 235.731C0.535121 234.922 0.499965 234.103 0.499965 233.275L0.499965 230.926L-3.51111e-05 230.926L-3.49058e-05 226.229L0.499965 226.229L0.499965 221.532L-3.47004e-05 221.532L-3.44951e-05 216.835L0.499966 216.835L0.499966 212.138L-3.42898e-05 212.138L-3.40845e-05 207.441L0.499966 207.441L0.499966 202.744L-3.38792e-05 202.744L-3.36739e-05 198.047L0.499966 198.047L0.499967 193.351L-3.34686e-05 193.351L-3.32633e-05 188.654L0.499967 188.654L0.499967 183.957L-3.3058e-05 183.957L-3.28527e-05 179.26L0.499967 179.26L0.499967 174.563L-3.26474e-05 174.563L-3.2442e-05 169.866L0.499968 169.866L0.499968 165.169L-3.22367e-05 165.169L-3.20314e-05 160.472L0.499968 160.472L0.499968 155.775L-3.18261e-05 155.775L-3.16208e-05 151.078L0.499968 151.078L0.499969 146.381L-3.14155e-05 146.381L-3.12102e-05 141.684L0.499969 141.684L0.499969 136.987L-3.10049e-05 136.987L-3.07996e-05 132.29L0.499969 132.29L0.499969 127.593L-3.05943e-05 127.593L-3.03889e-05 122.896L0.49997 122.896L0.49997 118.2L-3.01836e-05 118.2L-2.99783e-05 113.503L0.49997 113.503L0.49997 108.806L-2.9773e-05 108.806L-2.95677e-05 104.109L0.49997 104.109L0.499971 99.4118L-2.93624e-05 99.4118L-2.91571e-05 94.7149L0.499971 94.7149L0.499971 90.018L-2.89518e-05 90.018L-2.87465e-05 85.321L0.499971 85.321L0.499971 80.624L-2.85412e-05 80.624L-2.83359e-05 75.9272L0.499972 75.9272L0.499972 71.2303L-2.81305e-05 71.2303L-2.79252e-05 66.5333L0.499972 66.5333L0.499972 61.8363L-2.77199e-05 61.8363L-2.75146e-05 57.1394L0.499972 57.1394L0.499973 52.4425L-2.73093e-05 52.4425L-2.7104e-05 47.7456L0.499973 47.7456L0.499973 43.0487L-2.68987e-05 43.0487L-2.66934e-05 38.3517L0.499973 38.3517L0.499974 33.6548L-2.64881e-05 33.6548L-2.62828e-05 28.9579L0.499974 28.9579L0.499974 26.6093C0.499974 25.7807 0.53513 24.9613 0.603978 24.1527L0.105748 24.1103C0.24973 22.4184 0.538365 20.7725 0.958043 19.1876L1.44138 19.3156C1.86686 17.7088 2.4293 16.1661 3.11374 14.7038L2.66092 14.4918C3.37632 12.9634 4.22281 11.5207 5.18418 10.1814L5.59037 10.473C6.55356 9.13131 7.63376 7.89615 8.81376 6.78585L8.47111 6.42172C9.69272 5.27224 11.0199 4.25338 12.4344 3.38491L12.696 3.811C14.087 2.957 15.5636 2.25204 17.1077 1.7153L16.9436 1.24301C18.5039 0.70065 20.1325 0.326077 21.8117 0.138577L21.8672 0.635526C22.6694 0.545926 23.4836 0.500028 24.3077 0.500028L26.6675 0.500028L26.6675 2.76688e-05L31.3872 2.78751e-05L31.3872 0.500028L36.107 0.500028L36.107 2.80814e-05L40.8268 2.82877e-05L40.8268 0.500028L45.5465 0.500028L45.5465 2.84941e-05L50.2663 2.87004e-05L50.2663 0.500029L54.986 0.500029L54.986 2.89067e-05L59.7057 2.9113e-05L59.7057 0.500029L64.4255 0.500029L64.4255 2.93193e-05L69.1452 2.95256e-05L69.1452 0.50003L73.865 0.50003L73.865 2.97319e-05L78.5848 2.99382e-05L78.5848 0.50003L83.3045 0.50003L83.3045 3.01445e-05L88.0242 3.03508e-05L88.0242 0.50003L92.7439 0.500031L92.7439 3.05571e-05L97.4637 3.07634e-05L97.4637 0.500031L102.183 0.500031L102.183 3.09697e-05L106.903 3.1176e-05L106.903 0.500031L111.623 0.500031L111.623 3.13823e-05L116.343 3.15887e-05L116.343 0.500032L121.062 0.500032L121.062 3.1795e-05L125.782 3.20013e-05L125.782 0.500032L130.502 0.500032L130.502 3.22076e-05L135.222 3.24139e-05L135.222 0.500032L139.941 0.500033L139.941 3.26202e-05L144.661 3.28265e-05L144.661 0.500033L149.381 0.500033L149.381 3.30328e-05L154.101 3.32391e-05L154.101 0.500033L158.82 0.500033L158.82 3.34454e-05L163.54 3.36517e-05L163.54 0.500034L168.26 0.500034L168.26 3.3858e-05L172.98 3.40643e-05L172.98 0.500034L177.699 0.500034L177.699 3.42706e-05L182.419 3.44769e-05L182.419 0.500034L187.139 0.500035L187.139 3.46833e-05L191.859 3.48896e-05L191.859 0.500035L196.578 0.500035L196.578 3.50959e-05L201.298 3.53022e-05L201.298 0.500035L206.018 0.500036L206.018 3.55085e-05L210.738 3.57148e-05L210.738 0.500036L213.097 0.500036C213.922 0.500036 214.736 0.545934 215.538 0.635534L215.593 0.138586C217.273 0.326086 218.901 0.700659 220.462 1.24302L220.297 1.71531C221.842 2.25205 223.318 2.95701 224.709 3.81101L224.971 3.38492C226.385 4.25339 227.712 5.27231 228.934 6.42173L228.591 6.78586C229.771 7.89615 230.852 9.13132 231.815 10.4731L232.221 10.1814C233.182 11.5207 234.029 12.9634 234.744 14.4918L234.291 14.7038C234.976 16.1661 235.538 17.7088 235.964 19.3156L236.447 19.1876C236.867 20.7726 237.155 22.4184 237.299 24.1103L236.801 24.1527C236.87 24.9613 236.905 25.7807 236.905 26.6093L236.905 28.9349L237.405 28.9349L237.405 33.5861L236.905 33.5861L236.905 38.2373L237.405 38.2373L237.405 42.8885L236.905 42.8885L236.905 47.5396L237.405 47.5396L237.405 52.1908L236.905 52.1908L236.905 56.8421L237.405 56.8421L237.405 61.4933L236.905 61.4933L236.905 66.1444L237.405 66.1444L237.405 70.7956L236.905 70.7956L236.905 75.4468L237.405 75.4468L237.405 80.098L236.905 80.098L236.905 84.7492L237.405 84.7492L237.405 89.4004L236.905 89.4004L236.905 94.0516L237.405 94.0516L237.405 98.7028L236.905 98.7028L236.905 103.354L237.405 103.354L237.405 108.005L236.905 108.005L236.905 112.656L237.405 112.656L237.405 117.308L236.905 117.308L236.905 121.959L237.405 121.959L237.405 126.61L236.905 126.61L236.905 131.261L237.405 131.261L237.405 135.912L236.905 135.912L236.905 138.238C236.905 139.525 237.161 140.754 237.626 141.875L238.088 141.683C239 143.883 240.76 145.643 242.96 146.555L242.768 147.017C243.889 147.482 245.118 147.738 246.405 147.738L248.809 147.738L248.809 147.238L253.617 147.238L253.617 147.738L258.426 147.738L258.426 147.238L263.234 147.238L263.234 147.738L268.042 147.738L268.042 147.238L272.85 147.238L272.85 147.738L277.658 147.738L277.658 147.238L282.467 147.238L282.467 147.738L287.275 147.738L287.275 147.238L292.083 147.238L292.083 147.738L296.891 147.738L296.891 147.238L301.7 147.238L301.7 147.738L306.508 147.738L306.508 147.238L311.316 147.238L311.316 147.738L316.124 147.738L316.124 147.238L320.932 147.238L320.932 147.738L325.741 147.738L325.741 147.238L330.549 147.238L330.549 147.738L335.357 147.738L335.357 147.238L340.165 147.238L340.165 147.738L344.973 147.738L344.973 147.238L349.782 147.238L349.782 147.738L354.59 147.738L354.59 147.238L359.398 147.238L359.398 147.738L364.206 147.738L364.206 147.238L369.015 147.238L369.015 147.738L373.823 147.738L373.823 147.238L378.631 147.238L378.631 147.738L383.439 147.738L383.439 147.238L388.247 147.238L388.247 147.738L393.056 147.738L393.056 147.238L397.864 147.238L397.864 147.738L402.672 147.738L402.672 147.238L407.48 147.238L407.48 147.738L412.288 147.738L412.288 147.238L417.097 147.238L417.097 147.738L421.905 147.738L421.905 147.238L426.713 147.238L426.713 147.738L431.521 147.738L431.521 147.238L436.329 147.238L436.329 147.738L441.138 147.738L441.138 147.238L445.946 147.238L445.946 147.738L450.754 147.738L450.754 147.238L455.562 147.238L455.562 147.738L460.371 147.738L460.371 147.238L465.179 147.238L465.179 147.738L469.987 147.738L469.987 147.238L474.795 147.238L474.795 147.738L479.603 147.738L479.603 147.238L484.412 147.238L484.412 147.738L489.22 147.738L489.22 147.238L494.028 147.238L494.028 147.738L498.836 147.738L498.836 147.238L503.644 147.238L503.644 147.738L508.453 147.738L508.453 147.238L513.261 147.238L513.261 147.738L518.069 147.738L518.069 147.238L522.877 147.238L522.877 147.738L527.686 147.738L527.686 147.238L532.494 147.238L532.494 147.738L537.302 147.738L537.302 147.238L542.11 147.238L542.11 147.738L546.919 147.738L546.919 147.238L551.727 147.238L551.727 147.738L556.535 147.738L556.535 147.238L561.343 147.238L561.343 147.738L566.151 147.738L566.151 147.238L570.96 147.238L570.96 147.738L575.768 147.738L575.768 147.238L580.576 147.238L580.576 147.738L585.384 147.738L585.384 147.238L590.193 147.238L590.193 147.738L595.001 147.738L595.001 147.238L599.809 147.238L599.809 147.738L604.617 147.738L604.617 147.238L609.425 147.238L609.425 147.738L614.234 147.738L614.234 147.238L619.042 147.238L619.042 147.738L623.85 147.738L623.85 147.238L628.658 147.238L628.658 147.738L633.467 147.738L633.467 147.238L638.275 147.238L638.275 147.738L643.083 147.738L643.083 147.238L647.891 147.238L647.891 147.738L652.7 147.738L652.7 147.238L657.508 147.238L657.508 147.738L662.316 147.738L662.316 147.238L667.124 147.238L667.124 147.738L671.932 147.738L671.932 147.238L676.741 147.238L676.741 147.738L681.549 147.738L681.549 147.238L686.357 147.238L686.357 147.738L691.165 147.738L691.165 147.238L695.974 147.238L695.974 147.738L700.782 147.738L700.782 147.238L705.59 147.238L705.59 147.738L710.398 147.738L710.398 147.238L715.206 147.238L715.206 147.738L720.015 147.738L720.015 147.238L724.823 147.238L724.823 147.738L729.631 147.738L729.631 147.238L734.439 147.238L734.439 147.738L739.248 147.738L739.248 147.238L744.056 147.238L744.056 147.738L748.864 147.738L748.864 147.238L753.672 147.238L753.672 147.738L758.48 147.738L758.48 147.238L763.289 147.238L763.289 147.738L765.692 147.738C766.516 147.738 767.331 147.784 768.133 147.873L768.188 147.377C769.867 147.564 771.496 147.939 773.056 148.481L772.892 148.953C774.436 149.49 775.913 150.195 777.304 151.049L777.566 150.623C778.98 151.491 780.307 152.51 781.529 153.66L781.186 154.024C782.366 155.134 783.446 156.369 784.41 157.711L784.816 157.419C785.777 158.759 786.624 160.201 787.339 161.73L786.886 161.942C787.571 163.404 788.133 164.947 788.559 166.554L789.042 166.426C789.462 168.01 789.75 169.656 789.894 171.348L789.396 171.391C789.465 172.199 789.5 173.019 789.5 173.847L789.5 176.245L790 176.245L790 181.042L789.5 181.042L789.5 185.838L790 185.838L790 190.635L789.5 190.635L789.5 195.431L790 195.431L790 200.228L789.5 200.228L789.5 205.024L790 205.024L790 209.821L789.5 209.821L789.5 214.617L790 214.617L790 219.414L789.5 219.414L789.5 224.21L790 224.21L790 229.007L789.5 229.007L789.5 233.803L790 233.803L790 238.6L789.5 238.6L789.5 243.396L790 243.396L790 248.193L789.5 248.193L789.5 252.989L790 252.989L790 257.786L789.5 257.786L789.5 262.582L790 262.582L790 267.379L789.5 267.379L789.5 272.175L790 272.175L790 276.972L789.5 276.972L789.5 281.768L790 281.768L790 286.565L789.5 286.565L789.5 291.361L790 291.361L790 296.158L789.5 296.158L789.5 300.954L790 300.954L790 305.751L789.5 305.751L789.5 310.547L790 310.547L790 315.344L789.5 315.344L789.5 320.14L790 320.14L790 324.937L789.5 324.937L789.5 329.733L790 329.733L790 334.53L789.5 334.53L789.5 339.326L790 339.326L790 344.123L789.5 344.123L789.5 348.919L790 348.919L790 353.716L789.5 353.716L789.5 358.512L790 358.512L790 363.309L789.5 363.309L789.5 368.105L790 368.105L790 372.902L789.5 372.902L789.5 377.698L790 377.698L790 382.495L789.5 382.495L789.5 387.291L790 387.291L790 392.088L789.5 392.088L789.5 396.884L790 396.884L790 401.681L789.5 401.681L789.5 406.477L790 406.477L790 411.273L789.5 411.273L789.5 416.07L790 416.07L790 420.866L789.5 420.866L789.5 425.663L790 425.663L790 430.459L789.5 430.459L789.5 435.256L790 435.256L790 440.052L789.5 440.052L789.5 444.849L790 444.849L790 449.645L789.5 449.645L789.5 454.442L790 454.442L790 459.238L789.5 459.238L789.5 464.035L790 464.035L790 468.831L789.5 468.831L789.5 473.628L790 473.628L790 478.424L789.5 478.424L789.5 483.221L790 483.221L790 488.017L789.5 488.017L789.5 492.814L790 492.814L790 497.61L789.5 497.61L789.5 502.407L790 502.407L790 507.203L789.5 507.203L789.5 512L790 512L790 516.796L789.5 516.796L789.5 521.593L790 521.593L790 526.389L789.5 526.389L789.5 531.186L790 531.186L790 535.982L789.5 535.982L789.5 540.778L790 540.778L790 545.575L789.5 545.575L789.5 550.371L790 550.371L790 555.168L789.5 555.168L789.5 559.964L790 559.964L790 564.761L789.5 564.761L789.5 569.557L790 569.557L790 574.354L789.5 574.354L789.5 579.15L790 579.15L790 583.947L789.5 583.947L789.5 588.743L790 588.743L790 593.54L789.5 593.54L789.5 598.336L790 598.336L790 603.133L789.5 603.133L789.5 607.929L790 607.929L790 612.726L789.5 612.726L789.5 617.522L790 617.522L790 622.319L789.5 622.319L789.5 627.115L790 627.115L790 631.912L789.5 631.912L789.5 636.708L790 636.708L790 641.505L789.5 641.505L789.5 646.301L790 646.301L790 651.097L789.5 651.097L789.5 655.894L790 655.894L790 660.69L789.5 660.69L789.5 665.487L790 665.487L790 670.283L789.5 670.283L789.5 675.08L790 675.08L790 679.876L789.5 679.876L789.5 684.673L790 684.673L790 689.469L789.5 689.469L789.5 694.266L790 694.266L790 699.062L789.5 699.062L789.5 703.859L790 703.859L790 708.655L789.5 708.655L789.5 713.452L790 713.452L790 718.248L789.5 718.248L789.5 723.045L790 723.045L790 727.841L789.5 727.841L789.5 732.638L790 732.638L790 737.434L789.5 737.434L789.5 742.231L790 742.231L790 747.027L789.5 747.027L789.5 751.824L790 751.824L790 756.62L789.5 756.62L789.5 761.417L790 761.417L790 766.213L789.5 766.213L789.5 771.01L790 771.01L790 775.806L789.5 775.806L789.5 780.603L790 780.603L790 785.399L789.5 785.399L789.5 790.196L790 790.196L790 794.992L789.5 794.992L789.5 797.391C789.5 798.219 789.465 799.039 789.396 799.847L789.894 799.89Z" stroke="#5B5B5B" stroke-dasharray="4.8 4.8"/>
</svg>
