<svg width="497" height="599" viewBox="0 0 497 599" fill="none" xmlns="http://www.w3.org/2000/svg">
<path d="M0.37638 1.93317C0.889643 -0.66343 1.91043 -3.07746 3.33102 -5.20112L3.74661 -4.92312C5.15445 -7.02772 6.96518 -8.83988 9.06822 -10.249L8.7899 -10.6644C10.9129 -12.0868 13.3263 -13.109 15.9224 -13.623L16.0195 -13.1325C17.2368 -13.3736 18.4957 -13.5 19.7846 -13.5L23.7813 -13.5L23.7813 -14L31.7748 -14L31.7748 -13.5L39.7682 -13.5L39.7682 -14L47.7617 -14L47.7617 -13.5L55.7551 -13.5L55.7551 -14L63.7485 -14L63.7485 -13.5L71.742 -13.5L71.742 -14L79.7354 -14L79.7354 -13.5L87.7289 -13.5L87.7289 -14L95.7223 -14L95.7223 -13.5L103.716 -13.5L103.716 -14L111.709 -14L111.709 -13.5L119.703 -13.5L119.703 -14L127.696 -14L127.696 -13.5L135.689 -13.5L135.689 -14L143.683 -14L143.683 -13.5L151.676 -13.5L151.676 -14L159.67 -14L159.67 -13.5L167.663 -13.5L167.663 -14L175.657 -14L175.657 -13.5L183.65 -13.5L183.65 -14L191.644 -14L191.644 -13.5L199.637 -13.5L199.637 -14L207.63 -14L207.63 -13.5L215.624 -13.5L215.624 -14L223.617 -14L223.617 -13.5L231.611 -13.5L231.611 -14L239.604 -14L239.604 -13.5L247.598 -13.5L247.598 -14L255.591 -14L255.591 -13.5L263.585 -13.5L263.585 -14L271.578 -14L271.578 -13.5L279.571 -13.5L279.571 -14L287.565 -14L287.565 -13.5L295.558 -13.5L295.558 -14L303.552 -14L303.552 -13.5L311.545 -13.5L311.545 -14L319.539 -14L319.539 -13.5L327.532 -13.5L327.532 -14L335.525 -14L335.525 -13.5L343.519 -13.5L343.519 -14L351.512 -14L351.512 -13.5L359.506 -13.5L359.506 -14L367.499 -14L367.499 -13.5L375.493 -13.5L375.493 -14L383.486 -14L383.486 -13.5L391.48 -13.5L391.48 -14L399.473 -14L399.473 -13.5L407.466 -13.5L407.466 -14L415.46 -14L415.46 -13.5L423.453 -13.5L423.453 -14L431.447 -14L431.447 -13.5L439.44 -13.5L439.44 -14L447.434 -14L447.434 -13.5L455.427 -13.5L455.427 -14L463.421 -14L463.421 -13.5L471.414 -13.5L471.414 -14L479.407 -14L479.407 -13.5L483.404 -13.5C484.693 -13.5 485.952 -13.3735 487.169 -13.1325L487.266 -13.623C489.862 -13.109 492.276 -12.0868 494.399 -10.6643L494.121 -10.249C496.224 -8.83984 498.034 -7.02769 499.442 -4.92308L499.858 -5.20109C501.278 -3.07743 502.299 -0.663396 502.812 1.9332L502.322 2.03016C502.562 3.24758 502.689 4.50655 502.689 5.79551L502.689 9.80456L503.189 9.80456L503.189 17.8227L502.689 17.8227L502.689 25.8408L503.189 25.8408L503.189 33.8589L502.689 33.8589L502.689 41.8769L503.189 41.8769L503.189 49.895L502.689 49.895L502.689 57.9131L503.189 57.9131L503.189 65.9312L502.689 65.9312L502.689 73.9493L503.189 73.9493L503.189 81.9674L502.689 81.9674L502.689 89.9855L503.189 89.9855L503.189 98.0036L502.689 98.0036L502.689 106.022L503.189 106.022L503.189 114.04L502.689 114.04L502.689 122.058L503.189 122.058L503.189 130.076L502.689 130.076L502.689 138.094L503.189 138.094L503.189 146.112L502.689 146.112L502.689 154.13L503.189 154.13L503.189 162.148L502.689 162.148L502.689 170.167L503.189 170.167L503.189 178.185L502.689 178.185L502.689 186.203L503.189 186.203L503.189 194.221L502.689 194.221L502.689 202.239L503.189 202.239L503.189 210.257L502.689 210.257L502.689 218.275L503.189 218.275L503.189 226.293L502.689 226.293L502.689 234.311L503.189 234.311L503.189 242.329L502.689 242.329L502.689 250.347L503.189 250.347L503.189 258.366L502.689 258.366L502.689 266.384L503.189 266.384L503.189 274.402L502.689 274.402L502.689 282.42L503.189 282.42L503.189 290.438L502.689 290.438L502.689 298.456L503.189 298.456L503.189 306.474L502.689 306.474L502.689 314.492L503.189 314.492L503.189 322.51L502.689 322.51L502.689 330.528L503.189 330.528L503.189 338.547L502.689 338.547L502.689 346.565L503.189 346.565L503.189 354.583L502.689 354.583L502.689 362.601L503.189 362.601L503.189 370.619L502.689 370.619L502.689 378.637L503.189 378.637L503.189 386.655L502.689 386.655L502.689 390.664C502.689 392.765 503.107 394.769 503.865 396.598L504.327 396.406C505.847 400.073 508.78 403.005 512.447 404.526L512.255 404.988C514.084 405.746 516.088 406.164 518.189 406.164L521.94 406.164L521.94 405.664L529.442 405.664L529.442 406.164L536.943 406.164L536.943 405.664L544.445 405.664L544.445 406.164L551.947 406.164L551.947 405.664L559.449 405.664L559.449 406.164L566.951 406.164L566.951 405.664L574.453 405.664L574.453 406.164L581.955 406.164L581.955 405.664L589.457 405.664L589.457 406.164L596.959 406.164L596.959 405.664L604.461 405.664L604.461 406.164L611.963 406.164L611.963 405.664L619.464 405.664L619.464 406.164L623.215 406.164C624.504 406.164 625.763 406.291 626.981 406.532L627.078 406.041C629.674 406.555 632.087 407.577 634.21 409L633.932 409.415C636.035 410.824 637.846 412.636 639.253 414.741L639.669 414.463C641.09 416.587 642.11 419.001 642.624 421.597L642.133 421.694C642.374 422.912 642.5 424.171 642.5 425.46L642.5 429.303L643 429.303L643 436.991L642.5 436.991L642.5 444.678L643 444.678L643 452.365L642.5 452.365L642.5 460.052L643 460.052L643 467.739L642.5 467.739L642.5 475.427L643 475.427L643 483.114L642.5 483.114L642.5 490.801L643 490.801L643 498.488L642.5 498.488L642.5 506.176L643 506.176L643 513.863L642.5 513.863L642.5 521.55L643 521.55L643 529.237L642.5 529.237L642.5 536.925L643 536.925L643 544.612L642.5 544.612L642.5 552.299L643 552.299L643 559.986L642.5 559.986L642.5 567.674L643 567.674L643 575.361L642.5 575.361L642.5 579.205C642.5 580.493 642.374 581.752 642.133 582.97L642.624 583.067C642.11 585.663 641.09 588.077 639.669 590.201L639.253 589.923C637.846 592.028 636.035 593.84 633.932 595.249L634.21 595.664C632.087 597.087 629.674 598.109 627.078 598.623L626.981 598.133C625.763 598.374 624.504 598.5 623.215 598.5L619.374 598.5L619.374 599L611.691 599L611.691 598.5L604.008 598.5L604.008 599L596.325 599L596.325 598.5L588.642 598.5L588.642 599L580.959 599L580.959 598.5L573.276 598.5L573.276 599L565.593 599L565.593 598.5L557.91 598.5L557.91 599L550.227 599L550.227 598.5L542.544 598.5L542.544 599L534.861 599L534.861 598.5L527.178 598.5L527.178 599L519.494 599L519.494 598.5L511.811 598.5L511.811 599L504.128 599L504.128 598.5L496.445 598.5L496.445 599L488.762 599L488.762 598.5L481.079 598.5L481.079 599L473.396 599L473.396 598.5L469.555 598.5C468.266 598.5 467.007 598.374 465.79 598.133L465.693 598.623C463.097 598.109 460.683 597.087 458.56 595.664L458.838 595.249C456.735 593.84 454.925 592.028 453.517 589.923L453.101 590.201C451.681 588.077 450.66 585.663 450.147 583.067L450.637 582.97C450.396 581.752 450.27 580.493 450.27 579.205L450.27 575.468L449.77 575.468L449.77 567.994L450.27 567.994L450.27 560.52L449.77 560.52L449.77 553.046L450.27 553.046L450.27 545.572L449.77 545.572L449.77 538.098L450.27 538.098L450.27 530.624L449.77 530.624L449.77 523.15L450.27 523.15L450.27 515.676L449.77 515.676L449.77 508.202L450.27 508.202L450.27 504.465C450.27 502.364 449.852 500.36 449.094 498.532L448.632 498.723C447.112 495.057 444.179 492.124 440.512 490.603L440.704 490.141C438.875 489.383 436.871 488.965 434.77 488.965L430.78 488.965L430.78 489.465L422.799 489.465L422.799 488.965L414.819 488.965L414.819 489.465L406.838 489.465L406.838 488.965L398.858 488.965L398.858 489.465L390.878 489.465L390.878 488.965L382.897 488.965L382.897 489.465L374.917 489.465L374.917 488.965L366.936 488.965L366.936 489.465L358.956 489.465L358.956 488.965L350.975 488.965L350.975 489.465L342.995 489.465L342.995 488.965L335.014 488.965L335.014 489.465L327.034 489.465L327.034 488.965L319.053 488.965L319.053 489.465L311.073 489.465L311.073 488.965L303.092 488.965L303.092 489.465L295.112 489.465L295.112 488.965L287.131 488.965L287.131 489.465L279.151 489.465L279.151 488.965L271.17 488.965L271.17 489.465L263.19 489.465L263.19 488.965L255.209 488.965L255.209 489.465L247.229 489.465L247.229 488.965L239.248 488.965L239.248 489.465L231.268 489.465L231.268 488.965L223.287 488.965L223.287 489.465L215.307 489.465L215.307 488.965L207.326 488.965L207.326 489.465L199.346 489.465L199.346 488.965L191.365 488.965L191.365 489.465L183.385 489.465L183.385 488.965L175.404 488.965L175.404 489.465L167.424 489.465L167.424 488.965L159.443 488.965L159.443 489.465L151.463 489.465L151.463 488.965L143.482 488.965L143.482 489.465L135.502 489.465L135.502 488.965L127.521 488.965L127.521 489.465L119.541 489.465L119.541 488.965L111.56 488.965L111.56 489.465L103.58 489.465L103.58 488.965L95.5991 488.965L95.5991 489.465L87.6186 489.465L87.6186 488.965L79.6381 488.965L79.6381 489.465L71.6576 489.465L71.6576 488.965L63.6772 488.965L63.6772 489.465L55.6967 489.465L55.6967 488.965L47.7162 488.965L47.7162 489.465L39.7357 489.465L39.7357 488.965L31.7552 488.965L31.7552 489.465L23.7746 489.465L23.7746 488.965L19.7846 488.965C18.4957 488.965 17.2368 488.839 16.0195 488.598L15.9224 489.088C13.3263 488.574 10.9128 487.552 8.78987 486.129L9.06819 485.714C6.96515 484.305 5.15443 482.493 3.74659 480.388L3.331 480.666C1.91041 478.542 0.88962 476.128 0.376358 473.532L0.866868 473.435C0.626225 472.217 0.499979 470.958 0.499979 469.67L0.499979 465.671L-2.09671e-05 465.671L-2.06175e-05 457.673L0.499979 457.673L0.49998 449.675L-2.02679e-05 449.675L-1.99183e-05 441.677L0.49998 441.677L0.49998 433.679L-1.95687e-05 433.679L-1.92191e-05 425.681L0.499981 425.681L0.499981 417.684L-1.88695e-05 417.684L-1.85199e-05 409.686L0.499981 409.686L0.499982 401.688L-1.81703e-05 401.688L-1.78207e-05 393.69L0.499982 393.69L0.499983 385.692L-1.74711e-05 385.692L-1.71215e-05 377.695L0.499983 377.695L0.499983 369.697L-1.67719e-05 369.697L-1.64223e-05 361.699L0.499984 361.699L0.499984 353.701L-1.60727e-05 353.701L-1.57231e-05 345.703L0.499984 345.703L0.499985 337.705L-1.53735e-05 337.705L-1.50239e-05 329.708L0.499985 329.708L0.499985 321.71L-1.46743e-05 321.71L-1.43247e-05 313.712L0.499986 313.712L0.499986 305.714L-1.39751e-05 305.714L-1.36255e-05 297.716L0.499986 297.716L0.499987 289.718L-1.3276e-05 289.718L-1.29264e-05 281.721L0.499987 281.721L0.499987 273.723L-1.25768e-05 273.723L-1.22272e-05 265.725L0.499988 265.725L0.499988 257.727L-1.18776e-05 257.727L-1.1528e-05 249.729L0.499988 249.729L0.499989 241.731L-1.11784e-05 241.731L-1.08288e-05 233.734L0.499989 233.734L0.49999 225.736L-1.04792e-05 225.736L-1.01296e-05 217.738L0.49999 217.738L0.49999 209.74L-9.77999e-06 209.74L-9.43039e-06 201.742L0.499991 201.742L0.499991 193.744L-9.0808e-06 193.744L-8.7312e-06 185.747L0.499991 185.747L0.499992 177.749L-8.3816e-06 177.749L-8.03201e-06 169.751L0.499992 169.751L0.499992 161.753L-7.68241e-06 161.753L-7.33281e-06 153.755L0.499993 153.755L0.499993 145.757L-6.98322e-06 145.757L-6.63362e-06 137.76L0.499993 137.76L0.499994 129.762L-6.28402e-06 129.762L-5.93443e-06 121.764L0.499994 121.764L0.499994 113.766L-5.58483e-06 113.766L-5.23524e-06 105.768L0.499995 105.768L0.499995 97.7704L-4.88564e-06 97.7704L-4.53604e-06 89.7726L0.499995 89.7726L0.499996 81.7747L-4.18645e-06 81.7747L-3.83685e-06 73.7769L0.499996 73.7769L0.499997 65.7791L-3.48725e-06 65.7791L-3.13766e-06 57.7812L0.499997 57.7812L0.499997 49.7834L-2.78806e-06 49.7834L-2.43846e-06 41.7856L0.499998 41.7856L0.499998 33.7877L-2.08887e-06 33.7877L-1.73927e-06 25.7899L0.499998 25.7899L0.499999 17.7921L-1.38968e-06 17.7921L-1.04008e-06 9.79422L0.499999 9.79422L0.499999 5.79548C0.499999 4.50651 0.626245 3.24755 0.866889 2.03013L0.37638 1.93317Z" stroke="#5B5B5B" stroke-dasharray="8 8"/>
</svg>
