<svg width="567" height="571" viewBox="0 0 567 571" fill="none" xmlns="http://www.w3.org/2000/svg">
<path d="M0.314971 14.9332C0.747627 12.5576 1.61165 10.3442 2.81749 8.3878L3.24314 8.65015C4.45886 6.67769 6.03059 4.97521 7.86018 3.64413L7.56602 3.23981C9.45738 1.8638 11.6183 0.871929 13.948 0.370763L14.0532 0.859581C15.1491 0.623835 16.2837 0.500001 17.4462 0.500001L21.3771 0.500001L21.3771 9.34424e-07L29.2391 1.27808e-06L29.2391 0.500001L37.101 0.500002L37.101 1.62174e-06L44.963 1.9654e-06L44.963 0.500002L52.8249 0.500002L52.8249 2.30905e-06L60.6869 2.65271e-06L60.6869 0.500003L68.5489 0.500003L68.5489 2.99637e-06L76.4108 3.34002e-06L76.4108 0.500003L84.2728 0.500004L84.2728 3.68368e-06L92.1347 4.02734e-06L92.1347 0.500004L99.9967 0.500004L99.9967 4.37099e-06L107.859 4.71465e-06L107.859 0.500005L115.721 0.500005L115.721 5.05831e-06L123.583 5.40196e-06L123.583 0.500005L131.444 0.500006L131.444 5.74562e-06L139.306 6.08928e-06L139.306 0.500006L147.168 0.500006L147.168 6.43294e-06L155.03 6.77659e-06L155.03 0.500007L162.892 0.500007L162.892 7.12025e-06L170.754 7.46391e-06L170.754 0.500007L178.616 0.500008L178.616 7.80756e-06L186.478 8.15122e-06L186.478 0.500008L194.34 0.500008L194.34 8.49488e-06L202.202 8.83853e-06L202.202 0.500009L210.064 0.500009L210.064 9.18219e-06L217.926 9.52585e-06L217.926 0.50001L225.788 0.50001L225.788 9.8695e-06L233.65 1.02132e-05L233.65 0.50001L241.512 0.500011L241.512 1.05568e-05L249.374 1.09005e-05L249.374 0.500011L257.236 0.500011L257.236 1.12441e-05L265.098 1.15878e-05L265.098 0.500012L272.96 0.500012L272.96 1.19314e-05L280.822 1.22751e-05L280.822 0.500012L288.684 0.500013L288.684 1.26188e-05L296.545 1.29624e-05L296.545 0.500013L304.407 0.500013L304.407 1.33061e-05L312.269 1.36497e-05L312.269 0.500014L320.131 0.500014L320.131 1.39934e-05L327.993 1.4337e-05L327.993 0.500014L335.855 0.500015L335.855 1.46807e-05L343.717 1.50244e-05L343.717 0.500015L351.579 0.500015L351.579 1.5368e-05L359.441 1.57117e-05L359.441 0.500016L367.303 0.500016L367.303 1.60553e-05L375.165 1.6399e-05L375.165 0.500016L383.027 0.500017L383.027 1.67426e-05L390.889 1.70863e-05L390.889 0.500017L398.751 0.500017L398.751 1.74299e-05L406.613 1.77736e-05L406.613 0.500018L414.475 0.500018L414.475 1.81173e-05L422.336 1.84609e-05L422.336 0.500018L426.268 0.500019C427.43 0.500019 428.565 0.623853 429.661 0.859599L429.766 0.370783C432.096 0.871949 434.256 1.86382 436.148 3.23983L435.854 3.64415C437.683 4.97523 439.255 6.67771 440.471 8.65017L440.896 8.38783C442.102 10.3443 442.966 12.5576 443.399 14.9332L442.907 15.0228C443.108 16.1284 443.214 17.2705 443.214 18.4392L443.214 22.5014L443.714 22.5014L443.714 30.6257L443.214 30.6257L443.214 38.7501L443.714 38.7501L443.714 46.8744L443.214 46.8744L443.214 54.9988L443.714 54.9988L443.714 63.1231L443.214 63.1231L443.214 71.2475L443.714 71.2475L443.714 79.3718L443.214 79.3718L443.214 87.4962L443.714 87.4962L443.714 95.6206L443.214 95.6206L443.214 103.745L443.714 103.745L443.714 111.869L443.214 111.869L443.214 119.994L443.714 119.994L443.714 128.118L443.214 128.118L443.214 136.242L443.714 136.242L443.714 144.367L443.214 144.367L443.214 152.491L443.714 152.491L443.714 160.615L443.214 160.615L443.214 168.74L443.714 168.74L443.714 176.864L443.214 176.864L443.214 184.988L443.714 184.988L443.714 193.113L443.214 193.113L443.214 201.237L443.714 201.237L443.714 209.362L443.214 209.362L443.214 217.486L443.714 217.486L443.714 225.61L443.214 225.61L443.214 233.735L443.714 233.735L443.714 241.859L443.214 241.859L443.214 249.983L443.714 249.983L443.714 258.108L443.214 258.108L443.214 266.232L443.714 266.232L443.714 274.356L443.214 274.356L443.214 282.481L443.714 282.481L443.714 290.605L443.214 290.605L443.214 298.729L443.714 298.729L443.714 306.854L443.214 306.854L443.214 314.978L443.714 314.978L443.714 323.103L443.214 323.103L443.214 331.227L443.714 331.227L443.714 339.351L443.214 339.351L443.214 347.476L443.714 347.476L443.714 355.6L443.214 355.6L443.214 363.724L443.714 363.724L443.714 371.849L443.214 371.849L443.214 375.911C443.214 378.011 443.632 380.016 444.39 381.844L444.852 381.652C446.373 385.319 449.305 388.252 452.972 389.772L452.78 390.234C454.609 390.992 456.613 391.411 458.714 391.411L462.499 391.411L462.499 390.911L470.069 390.911L470.069 391.411L477.639 391.411L477.639 390.911L485.209 390.911L485.209 391.411L492.779 391.411L492.779 390.911L500.349 390.911L500.349 391.411L507.919 391.411L507.919 390.911L515.489 390.911L515.489 391.411L523.059 391.411L523.059 390.911L530.629 390.911L530.629 391.411L538.199 391.411L538.199 390.911L545.769 390.911L545.769 391.411L549.554 391.411C550.716 391.411 551.851 391.535 552.947 391.77L553.052 391.281C555.382 391.783 557.543 392.774 559.434 394.151L559.14 394.555C560.969 395.886 562.541 397.588 563.757 399.561L564.182 399.298C565.388 401.255 566.252 403.468 566.685 405.844L566.193 405.933C566.394 407.039 566.5 408.181 566.5 409.35L566.5 413.328L567 413.328L567 421.284L566.5 421.284L566.5 429.24L567 429.24L567 437.196L566.5 437.196L566.5 445.153L567 445.153L567 453.109L566.5 453.109L566.5 461.065L567 461.065L567 469.021L566.5 469.021L566.5 476.977L567 476.977L567 484.933L566.5 484.933L566.5 492.89L567 492.89L567 500.846L566.5 500.846L566.5 508.802L567 508.802L567 516.758L566.5 516.758L566.5 524.714L567 524.714L567 532.67L566.5 532.67L566.5 540.627L567 540.627L567 548.583L566.5 548.583L566.5 552.561C566.5 553.73 566.394 554.872 566.193 555.977L566.685 556.067C566.252 558.443 565.388 560.656 564.182 562.612L563.757 562.35C562.541 564.322 560.969 566.025 559.14 567.356L559.434 567.76C557.543 569.136 555.382 570.128 553.052 570.629L552.947 570.14C551.851 570.376 550.716 570.5 549.554 570.5L545.319 570.5L545.319 571L536.851 571L536.851 570.5L528.382 570.5L528.382 571L519.913 571L519.913 570.5L511.445 570.5L511.445 571L502.976 571L502.976 570.5L494.508 570.5L494.508 571L486.039 571L486.039 570.5L477.57 570.5L477.57 571L469.102 571L469.102 570.5L460.633 570.5L460.633 571L452.164 571L452.164 570.5L443.696 570.5L443.696 571L435.227 571L435.227 570.5L426.758 570.5L426.758 571L418.29 571L418.29 570.5L414.055 570.5C412.893 570.5 411.758 570.376 410.662 570.14L410.557 570.629C408.228 570.128 406.067 569.136 404.175 567.76L404.469 567.356C402.64 566.025 401.068 564.322 399.852 562.35L399.427 562.612C398.221 560.656 397.357 558.443 396.924 556.067L397.416 555.977C397.215 554.872 397.109 553.73 397.109 552.561L397.109 548.274L396.609 548.274L396.609 539.7L397.109 539.7L397.109 531.126L396.609 531.126L396.609 522.552L397.109 522.552L397.109 513.978L396.609 513.978L396.609 505.405L397.109 505.405L397.109 496.831L396.609 496.831L396.609 488.257L397.109 488.257L397.109 483.97C397.109 481.869 396.691 479.865 395.933 478.037L395.471 478.228C393.951 474.561 391.018 471.629 387.351 470.108L387.543 469.646C385.714 468.888 383.71 468.47 381.609 468.47L377.651 468.47L377.651 468.97L369.734 468.97L369.734 468.47L361.818 468.47L361.818 468.97L353.901 468.97L353.901 468.47L345.985 468.47L345.985 468.97L338.068 468.97L338.068 468.47L330.151 468.47L330.151 468.97L322.235 468.97L322.235 468.47L314.318 468.47L314.318 468.97L306.402 468.97L306.402 468.47L298.485 468.47L298.485 468.97L290.568 468.97L290.568 468.47L282.652 468.47L282.652 468.97L274.735 468.97L274.735 468.47L266.819 468.47L266.819 468.97L258.902 468.97L258.902 468.47L250.985 468.47L250.985 468.97L243.069 468.97L243.069 468.47L235.152 468.47L235.152 468.97L227.236 468.97L227.236 468.47L219.319 468.47L219.319 468.97L211.403 468.97L211.403 468.47L203.486 468.47L203.486 468.97L195.569 468.97L195.569 468.47L187.653 468.47L187.653 468.97L179.736 468.97L179.736 468.47L171.82 468.47L171.82 468.97L163.903 468.97L163.903 468.47L155.986 468.47L155.986 468.97L148.07 468.97L148.07 468.47L140.153 468.47L140.153 468.97L132.237 468.97L132.237 468.47L124.32 468.47L124.32 468.97L116.403 468.97L116.403 468.47L108.487 468.47L108.487 468.97L100.57 468.97L100.57 468.47L92.6536 468.47L92.6536 468.97L84.737 468.97L84.737 468.47L76.8204 468.47L76.8204 468.97L68.9038 468.97L68.9038 468.47L60.9872 468.47L60.9872 468.97L53.0706 468.97L53.0706 468.47L45.154 468.47L45.154 468.97L37.2374 468.97L37.2374 468.47L29.3208 468.47L29.3208 468.97L21.4042 468.97L21.4042 468.47L17.4461 468.47C16.2837 468.47 15.149 468.346 14.0532 468.11L13.948 468.599C11.6183 468.098 9.45735 467.106 7.566 465.73L7.86015 465.326C6.03056 463.995 4.45883 462.292 3.24311 460.32L2.81747 460.582C1.61162 458.626 0.747607 456.412 0.314952 454.037L0.806859 453.947C0.6055 452.841 0.49998 451.699 0.49998 450.531L0.49998 446.53L-1.95184e-05 446.53L-1.91687e-05 438.528L0.499981 438.528L0.499981 430.526L-1.88189e-05 430.526L-1.84691e-05 422.525L0.499982 422.525L0.499982 414.523L-1.81194e-05 414.523L-1.77696e-05 406.521L0.499982 406.521L0.499983 398.52L-1.74198e-05 398.52L-1.70701e-05 390.518L0.499983 390.518L0.499983 382.516L-1.67203e-05 382.516L-1.63706e-05 374.515L0.499984 374.515L0.499984 366.513L-1.60208e-05 366.513L-1.5671e-05 358.511L0.499984 358.511L0.499985 350.509L-1.53213e-05 350.509L-1.49715e-05 342.508L0.499985 342.508L0.499985 334.506L-1.46217e-05 334.506L-1.4272e-05 326.504L0.499986 326.504L0.499986 318.503L-1.39222e-05 318.503L-1.35724e-05 310.501L0.499986 310.501L0.499987 302.499L-1.32227e-05 302.499L-1.28729e-05 294.498L0.499987 294.498L0.499987 286.496L-1.25231e-05 286.496L-1.21734e-05 278.494L0.499988 278.494L0.499988 270.493L-1.18236e-05 270.493L-1.14738e-05 262.491L0.499989 262.491L0.499989 254.489L-1.11241e-05 254.489L-1.07743e-05 246.487L0.499989 246.487L0.49999 238.486L-1.04245e-05 238.486L-1.00748e-05 230.484L0.49999 230.484L0.49999 222.482L-9.72502e-06 222.482L-9.37525e-06 214.481L0.499991 214.481L0.499991 206.479L-9.02548e-06 206.479L-8.67572e-06 198.477L0.499991 198.477L0.499992 190.476L-8.32595e-06 190.476L-7.97619e-06 182.474L0.499992 182.474L0.499992 174.472L-7.62642e-06 174.472L-7.27666e-06 166.471L0.499993 166.471L0.499993 158.469L-6.92689e-06 158.469L-6.57713e-06 150.467L0.499993 150.467L0.499994 142.465L-6.22736e-06 142.465L-5.87759e-06 134.464L0.499994 134.464L0.499994 126.462L-5.52783e-06 126.462L-5.17806e-06 118.46L0.499995 118.46L0.499995 110.459L-4.8283e-06 110.459L-4.47853e-06 102.457L0.499996 102.457L0.499996 94.4551L-4.12876e-06 94.4551L-3.779e-06 86.4534L0.499996 86.4534L0.499997 78.4517L-3.42923e-06 78.4517L-3.07947e-06 70.45L0.499997 70.45L0.499997 62.4483L-2.7297e-06 62.4483L-2.37994e-06 54.4466L0.499998 54.4466L0.499998 46.4449L-2.03017e-06 46.4449L-1.6804e-06 38.4432L0.499998 38.4432L0.499999 30.4414L-1.33064e-06 30.4414L-9.80872e-07 22.4397L0.499999 22.4397L0.499999 18.4392C0.499999 17.2705 0.60552 16.1284 0.806879 15.0228L0.314971 14.9332Z" stroke="#5B5B5B" stroke-dasharray="8 8"/>
</svg>
