<svg width="545" height="549" viewBox="0 0 545 549" fill="none" xmlns="http://www.w3.org/2000/svg">
<path d="M544.866 15.4744C544.682 13.947 544.315 12.4802 543.788 11.0996L543.321 11.2779C542.792 9.89029 542.097 8.59271 541.262 7.41248L541.67 7.1238C540.793 5.88387 539.767 4.76932 538.619 3.8102L538.298 4.19393C537.175 3.25562 535.933 2.47133 534.6 1.8703L534.806 1.41452C533.447 0.801933 531.997 0.373382 530.483 0.158498L530.413 0.653538C529.699 0.5523 528.971 0.500001 528.231 0.500001L525.835 0.500001L525.835 8.37743e-07L521.042 1.04722e-06L521.042 0.500001L516.25 0.500001L516.25 1.25669e-06L511.458 1.46616e-06L511.458 0.500001L506.666 0.500002L506.666 1.67564e-06L501.874 1.88511e-06L501.874 0.500002L497.082 0.500002L497.082 2.09458e-06L492.289 2.30405e-06L492.289 0.500002L487.497 0.500003L487.497 2.51353e-06L482.705 2.723e-06L482.705 0.500003L477.913 0.500003L477.913 2.93247e-06L473.121 3.14195e-06L473.121 0.500003L468.328 0.500003L468.328 3.35142e-06L463.536 3.56089e-06L463.536 0.500004L458.744 0.500004L458.744 3.77037e-06L453.952 3.97984e-06L453.952 0.500004L449.16 0.500004L449.16 4.18931e-06L444.368 4.39878e-06L444.368 0.500004L439.575 0.500005L439.575 4.60826e-06L434.783 4.81773e-06L434.783 0.500005L429.991 0.500005L429.991 5.0272e-06L425.199 5.23668e-06L425.199 0.500005L420.407 0.500005L420.407 5.44615e-06L415.614 5.65562e-06L415.614 0.500006L410.822 0.500006L410.822 5.86509e-06L406.03 6.07457e-06L406.03 0.500006L401.238 0.500006L401.238 6.28404e-06L396.446 6.49351e-06L396.446 0.500006L391.654 0.500007L391.654 6.70299e-06L386.861 6.91246e-06L386.861 0.500007L382.069 0.500007L382.069 7.12193e-06L377.277 7.3314e-06L377.277 0.500007L372.485 0.500008L372.485 7.54088e-06L367.693 7.75035e-06L367.693 0.500008L362.9 0.500008L362.9 7.95982e-06L358.108 8.1693e-06L358.108 0.500008L353.316 0.500008L353.316 8.37877e-06L348.524 8.58824e-06L348.524 0.500009L343.732 0.500009L343.732 8.79771e-06L338.94 9.00719e-06L338.94 0.500009L334.147 0.500009L334.147 9.21666e-06L329.355 9.42613e-06L329.355 0.500009L324.563 0.50001L324.563 9.6356e-06L319.771 9.84508e-06L319.771 0.50001L314.979 0.50001L314.979 1.00545e-05L310.187 1.0264e-05L310.187 0.50001L305.394 0.50001L305.394 1.04735e-05L300.602 1.0683e-05L300.602 0.500011L295.81 0.500011L295.81 1.08924e-05L291.018 1.11019e-05L291.018 0.500011L286.226 0.500011L286.226 1.13114e-05L281.434 1.15209e-05L281.434 0.500012L276.641 0.500012L276.641 1.17303e-05L271.849 1.19398e-05L271.849 0.500012L267.057 0.500012L267.057 1.21493e-05L262.265 1.23587e-05L262.265 0.500012L257.473 0.500013L257.473 1.25682e-05L252.68 1.27777e-05L252.68 0.500013L247.888 0.500013L247.888 1.29872e-05L243.096 1.31966e-05L243.096 0.500013L238.304 0.500013L238.304 1.34061e-05L233.512 1.36156e-05L233.512 0.500014L228.72 0.500014L228.72 1.38251e-05L223.927 1.40345e-05L223.927 0.500014L219.135 0.500014L219.135 1.4244e-05L214.343 1.44535e-05L214.343 0.500014L209.551 0.500015L209.551 1.46629e-05L204.759 1.48724e-05L204.759 0.500015L199.967 0.500015L199.967 1.50819e-05L195.174 1.52914e-05L195.174 0.500015L190.382 0.500016L190.382 1.55008e-05L185.59 1.57103e-05L185.59 0.500016L180.798 0.500016L180.798 1.59198e-05L176.006 1.61293e-05L176.006 0.500016L171.214 0.500016L171.214 1.63387e-05L166.421 1.65482e-05L166.421 0.500017L161.629 0.500017L161.629 1.67577e-05L156.837 1.69671e-05L156.837 0.500017L152.045 0.500017L152.045 1.71766e-05L147.253 1.73861e-05L147.253 0.500017L142.46 0.500018L142.46 1.75956e-05L137.668 1.7805e-05L137.668 0.500018L135.272 0.500018C134.532 0.500018 133.803 0.552317 133.09 0.653556L133.02 0.158516C131.505 0.3734 130.055 0.801952 128.697 1.41454L128.903 1.87032C127.57 2.47134 126.328 3.25564 125.205 4.19395L124.884 3.81021C123.736 4.76934 122.709 5.88388 121.832 7.12382L122.241 7.4125C121.406 8.59273 120.711 9.89031 120.181 11.2779L119.714 11.0996C119.187 12.4802 118.82 13.947 118.637 15.4744L119.133 15.534C119.047 16.2525 119.003 16.985 119.003 17.7288L119.003 20.1532L118.503 20.1532L118.503 25.0021L119.003 25.0021L119.003 29.851L118.503 29.851L118.503 34.6999L119.003 34.6999L119.003 39.5488L118.503 39.5488L118.503 44.3977L119.003 44.3977L119.003 49.2466L118.503 49.2466L118.503 54.0955L119.003 54.0955L119.003 58.9444L118.503 58.9444L118.503 63.7933L119.003 63.7933L119.003 68.6422L118.503 68.6422L118.503 73.4911L119.003 73.4911L119.003 78.34L118.503 78.34L118.503 83.1889L119.003 83.1889L119.003 88.0378L118.503 88.0378L118.503 92.8867L119.003 92.8867L119.003 97.7355L118.503 97.7355L118.503 102.584L119.003 102.584L119.003 107.433L118.503 107.433L118.503 112.282L119.003 112.282L119.003 117.131L118.503 117.131L118.503 121.98L119.003 121.98L119.003 126.829L118.503 126.829L118.503 131.678L119.003 131.678L119.003 136.527L118.503 136.527L118.503 141.376L119.003 141.376L119.003 146.224L118.503 146.224L118.503 151.073L119.003 151.073L119.003 155.922L118.503 155.922L118.503 160.771L119.003 160.771L119.003 165.62L118.503 165.62L118.503 170.469L119.003 170.469L119.003 175.318L118.503 175.318L118.503 180.167L119.003 180.167L119.003 185.016L118.503 185.016L118.503 189.865L119.003 189.865L119.003 194.713L118.503 194.713L118.503 199.562L119.003 199.562L119.003 204.411L118.503 204.411L118.503 209.26L119.003 209.26L119.003 214.109L118.503 214.109L118.503 218.958L119.003 218.958L119.003 223.807L118.503 223.807L118.503 228.656L119.003 228.656L119.003 233.505L118.503 233.505L118.503 238.353L119.003 238.353L119.003 243.202L118.503 243.202L118.503 248.051L119.003 248.051L119.003 252.9L118.503 252.9L118.503 257.749L119.003 257.749L119.003 262.598L118.503 262.598L118.503 267.447L119.003 267.447L119.003 272.296L118.503 272.296L118.503 277.145L119.003 277.145L119.003 281.993L118.503 281.993L118.503 286.842L119.003 286.842L119.003 291.691L118.503 291.691L118.503 296.54L119.003 296.54L119.003 301.389L118.503 301.389L118.503 306.238L119.003 306.238L119.003 311.087L118.503 311.087L118.503 315.936L119.003 315.936L119.003 320.785L118.503 320.785L118.503 325.634L119.003 325.634L119.003 330.483L118.503 330.483L118.503 335.331L119.003 335.331L119.003 340.18L118.503 340.18L118.503 345.029L119.003 345.029L119.003 349.878L118.503 349.878L118.503 354.727L119.003 354.727L119.003 359.576L118.503 359.576L118.503 364.425L119.003 364.425L119.003 366.849C119.003 368.136 118.746 369.365 118.282 370.486L117.82 370.294C116.907 372.494 115.148 374.254 112.948 375.166L113.139 375.628C112.018 376.093 110.79 376.349 109.503 376.349L107.184 376.349L107.184 375.849L102.548 375.849L102.548 376.349L97.9109 376.349L97.9109 375.849L93.2742 375.849L93.2742 376.349L88.6376 376.349L88.6376 375.849L84.0009 375.849L84.0009 376.349L79.3642 376.349L79.3642 375.849L74.7276 375.849L74.7276 376.349L70.0909 376.349L70.0909 375.849L65.4542 375.849L65.4542 376.349L60.8176 376.349L60.8176 375.849L56.1809 375.849L56.1809 376.349L51.5442 376.349L51.5442 375.849L46.9076 375.849L46.9076 376.349L42.2709 376.349L42.2709 375.849L37.6343 375.849L37.6343 376.349L32.9976 376.349L32.9976 375.849L28.3609 375.849L28.3609 376.349L23.7243 376.349L23.7243 375.849L19.0876 375.849L19.0876 376.349L16.7692 376.349C16.0291 376.349 15.3009 376.402 14.5875 376.503L14.5172 376.008C13.0029 376.223 11.5527 376.651 10.1945 377.264L10.4 377.72C9.06746 378.321 7.82527 379.105 6.70198 380.043L6.38143 379.66C5.23323 380.619 4.2065 381.733 3.32973 382.973L3.73799 383.262C2.9034 384.442 2.20827 385.74 1.67879 387.127L1.21163 386.949C0.684831 388.329 0.317644 389.796 0.134294 391.324L0.630754 391.383C0.544512 392.102 0.500017 392.834 0.500017 393.578L0.500017 396.037L1.73113e-05 396.037L1.75263e-05 400.954L0.500018 400.954L0.500018 405.872L1.77412e-05 405.872L1.79562e-05 410.79L0.500018 410.79L0.500018 415.707L1.81711e-05 415.707L1.83861e-05 420.625L0.500018 420.625L0.500019 425.543L1.86011e-05 425.543L1.8816e-05 430.46L0.500019 430.46L0.500019 435.378L1.9031e-05 435.378L1.92459e-05 440.295L0.500019 440.295L0.500019 445.213L1.94609e-05 445.213L1.96758e-05 450.131L0.50002 450.131L0.50002 455.048L1.98908e-05 455.048L2.01057e-05 459.966L0.50002 459.966L0.50002 464.883L2.03207e-05 464.883L2.05357e-05 469.801L0.500021 469.801L0.500021 474.719L2.07506e-05 474.719L2.09656e-05 479.636L0.500021 479.636L0.500021 484.554L2.11805e-05 484.554L2.13955e-05 489.472L0.500021 489.472L0.500022 494.389L2.16104e-05 494.389L2.18254e-05 499.307L0.500022 499.307L0.500022 504.224L2.20404e-05 504.224L2.22553e-05 509.142L0.500022 509.142L0.500022 514.06L2.24703e-05 514.06L2.26852e-05 518.977L0.500023 518.977L0.500023 523.895L2.29002e-05 523.895L2.31151e-05 528.812L0.500023 528.812L0.500023 531.271C0.500023 532.015 0.544518 532.748 0.630761 533.466L0.134301 533.526C0.31765 535.053 0.684838 536.52 1.21163 537.9L1.6788 537.722C2.20828 539.11 2.9034 540.407 3.738 541.588L3.32974 541.876C4.20651 543.116 5.23324 544.231 6.38143 545.19L6.70199 544.806C7.82528 545.744 9.06747 546.529 10.4 547.13L10.1945 547.586C11.5527 548.198 13.003 548.627 14.5172 548.842L14.5875 548.346C15.3009 548.448 16.0291 548.5 16.7693 548.5L19.095 548.5L19.095 549L23.7464 549L23.7464 548.5L28.3979 548.5L28.3979 549L33.0494 549L33.0494 548.5L37.7008 548.5L37.7008 549L42.3523 549L42.3523 548.5L47.0038 548.5L47.0038 549L51.6552 549L51.6552 548.5L56.3067 548.5L56.3067 549L60.9582 549L60.9582 548.5L65.6096 548.5L65.6096 549L70.2611 549L70.2611 548.5L74.9125 548.5L74.9125 549L79.564 549L79.564 548.5L84.2155 548.5L84.2155 549L88.8669 549L88.8669 548.5L93.5184 548.5L93.5184 549L98.1699 549L98.1699 548.5L102.821 548.5L102.821 549L107.473 549L107.473 548.5L112.124 548.5L112.124 549L116.776 549L116.776 548.5L121.427 548.5L121.427 549L126.079 549L126.079 548.5L130.73 548.5L130.73 549L135.382 549L135.382 548.5L140.033 548.5L140.033 549L144.685 549L144.685 548.5L147.01 548.5C147.75 548.5 148.479 548.448 149.192 548.346L149.262 548.842C150.777 548.627 152.227 548.198 153.585 547.585L153.379 547.13C154.712 546.529 155.954 545.744 157.078 544.806L157.398 545.19C158.546 544.231 159.573 543.116 160.45 541.876L160.042 541.588C160.876 540.407 161.571 539.11 162.101 537.722L162.568 537.9C163.095 536.52 163.462 535.053 163.645 533.526L163.149 533.466C163.235 532.748 163.28 532.015 163.28 531.271L163.28 528.722L163.78 528.722L163.78 523.624L163.28 523.624L163.28 518.527L163.78 518.527L163.78 513.429L163.28 513.429L163.28 508.331L163.78 508.331L163.78 503.233L163.28 503.233L163.28 498.135L163.78 498.135L163.78 493.037L163.28 493.037L163.28 487.939L163.78 487.939L163.78 482.841L163.28 482.841L163.28 477.744L163.78 477.744L163.78 472.646L163.28 472.646L163.28 467.548L163.78 467.548L163.78 462.45L163.28 462.45L163.28 459.901C163.28 458.614 163.536 457.385 164.001 456.264L164.462 456.456C165.375 454.256 167.134 452.496 169.334 451.584L169.143 451.122C170.264 450.657 171.492 450.401 172.779 450.401L175.181 450.401L175.181 450.901L179.985 450.901L179.985 450.401L184.788 450.401L184.788 450.901L189.591 450.901L189.591 450.401L194.395 450.401L194.395 450.901L199.198 450.901L199.198 450.401L204.002 450.401L204.002 450.901L208.805 450.901L208.805 450.401L213.608 450.401L213.608 450.901L218.412 450.901L218.412 450.401L223.215 450.401L223.215 450.901L228.019 450.901L228.019 450.401L232.822 450.401L232.822 450.901L237.625 450.901L237.625 450.401L242.429 450.401L242.429 450.901L247.232 450.901L247.232 450.401L252.036 450.401L252.036 450.901L256.839 450.901L256.839 450.401L261.642 450.401L261.642 450.901L266.446 450.901L266.446 450.401L271.249 450.401L271.249 450.901L276.053 450.901L276.053 450.401L280.856 450.401L280.856 450.901L285.659 450.901L285.659 450.401L290.463 450.401L290.463 450.901L295.266 450.901L295.266 450.401L300.07 450.401L300.07 450.901L304.873 450.901L304.873 450.401L309.676 450.401L309.676 450.901L314.48 450.901L314.48 450.401L319.283 450.401L319.283 450.901L324.086 450.901L324.086 450.401L328.89 450.401L328.89 450.901L333.693 450.901L333.693 450.401L338.497 450.401L338.497 450.901L343.3 450.901L343.3 450.401L348.103 450.401L348.103 450.901L352.907 450.901L352.907 450.401L357.71 450.401L357.71 450.901L362.514 450.901L362.514 450.401L367.317 450.401L367.317 450.901L372.12 450.901L372.12 450.401L376.924 450.401L376.924 450.901L381.727 450.901L381.727 450.401L386.531 450.401L386.531 450.901L391.334 450.901L391.334 450.401L396.137 450.401L396.137 450.901L400.941 450.901L400.941 450.401L405.744 450.401L405.744 450.901L410.548 450.901L410.548 450.401L415.351 450.401L415.351 450.901L420.154 450.901L420.154 450.401L424.958 450.401L424.958 450.901L429.761 450.901L429.761 450.401L434.564 450.401L434.564 450.901L439.368 450.901L439.368 450.401L444.171 450.401L444.171 450.901L448.975 450.901L448.975 450.401L453.778 450.401L453.778 450.901L458.581 450.901L458.581 450.401L463.385 450.401L463.385 450.901L468.188 450.901L468.188 450.401L472.992 450.401L472.992 450.901L477.795 450.901L477.795 450.401L482.599 450.401L482.599 450.901L487.402 450.901L487.402 450.401L492.205 450.401L492.205 450.901L497.009 450.901L497.009 450.401L501.812 450.401L501.812 450.901L506.616 450.901L506.616 450.401L511.419 450.401L511.419 450.901L516.222 450.901L516.222 450.401L521.026 450.401L521.026 450.901L525.829 450.901L525.829 450.401L528.231 450.401C528.971 450.401 529.699 450.349 530.413 450.247L530.483 450.742C531.997 450.528 533.447 450.099 534.806 449.486L534.6 449.031C535.933 448.43 537.175 447.645 538.298 446.707L538.619 447.091C539.767 446.132 540.794 445.017 541.67 443.777L541.262 443.488C542.097 442.308 542.792 441.011 543.321 439.623L543.788 439.801C544.315 438.421 544.682 436.954 544.866 435.427L544.369 435.367C544.456 434.648 544.5 433.916 544.5 433.172L544.5 430.757L545 430.757L545 425.926L544.5 425.926L544.5 421.095L545 421.095L545 416.265L544.5 416.265L544.5 411.434L545 411.434L545 406.603L544.5 406.603L544.5 401.772L545 401.772L545 396.942L544.5 396.942L544.5 392.111L545 392.111L545 387.28L544.5 387.28L544.5 382.449L545 382.449L545 377.619L544.5 377.619L544.5 372.788L545 372.788L545 367.957L544.5 367.957L544.5 363.127L545 363.127L545 358.296L544.5 358.296L544.5 353.465L545 353.465L545 348.634L544.5 348.634L544.5 343.804L545 343.804L545 338.973L544.5 338.973L544.5 334.142L545 334.142L545 329.311L544.5 329.311L544.5 324.481L545 324.481L545 319.65L544.5 319.65L544.5 314.819L545 314.819L545 309.988L544.5 309.988L544.5 305.158L545 305.158L545 300.327L544.5 300.327L544.5 295.496L545 295.496L545 290.665L544.5 290.665L544.5 285.835L545 285.835L545 281.004L544.5 281.004L544.5 276.173L545 276.173L545 271.343L544.5 271.343L544.5 266.512L545 266.512L545 261.681L544.5 261.681L544.5 256.85L545 256.85L545 252.02L544.5 252.02L544.5 247.189L545 247.189L545 242.358L544.5 242.358L544.5 237.527L545 237.527L545 232.697L544.5 232.697L544.5 227.866L545 227.866L545 223.035L544.5 223.035L544.5 218.204L545 218.204L545 213.374L544.5 213.374L544.5 208.543L545 208.543L545 203.712L544.5 203.712L544.5 198.882L545 198.882L545 194.051L544.5 194.051L544.5 189.22L545 189.22L545 184.389L544.5 184.389L544.5 179.559L545 179.559L545 174.728L544.5 174.728L544.5 169.897L545 169.897L545 165.066L544.5 165.066L544.5 160.236L545 160.236L545 155.405L544.5 155.405L544.5 150.574L545 150.574L545 145.743L544.5 145.743L544.5 140.913L545 140.913L545 136.082L544.5 136.082L544.5 131.251L545 131.251L545 126.42L544.5 126.42L544.5 121.59L545 121.59L545 116.759L544.5 116.759L544.5 111.928L545 111.928L545 107.097L544.5 107.097L544.5 102.267L545 102.267L545 97.4359L544.5 97.4359L544.5 92.6051L545 92.6051L545 87.7744L544.5 87.7744L544.5 82.9436L545 82.9436L545 78.1129L544.5 78.1129L544.5 73.2822L545 73.2822L545 68.4514L544.5 68.4514L544.5 63.6207L545 63.6207L545 58.7899L544.5 58.7899L544.5 53.9591L545 53.9591L545 49.1284L544.5 49.1284L544.5 44.2976L545 44.2976L545 39.4669L544.5 39.4669L544.5 34.6362L545 34.6362L545 29.8054L544.5 29.8054L544.5 24.9747L545 24.9747L545 20.1439L544.5 20.1439L544.5 17.7287C544.5 16.985 544.456 16.2525 544.369 15.534L544.866 15.4744Z" stroke="#5B5B5B" stroke-dasharray="4.8 4.8"/>
</svg>
