<svg width="812" height="378" viewBox="0 0 812 378" fill="none" xmlns="http://www.w3.org/2000/svg">
<path d="M811.501 9.76612C810.922 8.37367 809.859 7.06729 808.4 5.8909L808.086 6.2801C806.942 5.35704 805.536 4.50925 803.912 3.76353L804.12 3.30912C802.697 2.65573 801.117 2.08294 799.41 1.60566L799.276 2.08718C797.757 1.66249 796.135 1.31387 794.432 1.05263L794.508 0.558408C792.909 0.31315 791.241 0.144307 789.521 0.0606398L789.497 0.560049C788.681 0.520339 787.853 0.500001 787.015 0.500001L784.616 0.500001L784.616 1.197e-06L779.817 1.40677e-06L779.817 0.500001L775.018 0.500002L775.018 1.61654e-06L770.219 1.8263e-06L770.219 0.500002L765.42 0.500002L765.42 2.03607e-06L760.621 2.24584e-06L760.621 0.500002L755.822 0.500002L755.822 2.45561e-06L751.023 2.66538e-06L751.023 0.500003L746.224 0.500003L746.224 2.87515e-06L741.425 3.08492e-06L741.425 0.500003L736.626 0.500003L736.626 3.29469e-06L731.827 3.50446e-06L731.827 0.500004L727.028 0.500004L727.028 3.71423e-06L722.229 3.924e-06L722.229 0.500004L717.43 0.500004L717.43 4.13377e-06L712.632 4.34353e-06L712.632 0.500004L707.833 0.500005L707.833 4.5533e-06L703.034 4.76307e-06L703.034 0.500005L698.235 0.500005L698.235 4.97284e-06L693.436 5.18261e-06L693.436 0.500005L688.637 0.500005L688.637 5.39238e-06L683.838 5.60215e-06L683.838 0.500006L679.039 0.500006L679.039 5.81192e-06L674.24 6.02169e-06L674.24 0.500006L669.441 0.500006L669.441 6.23146e-06L664.642 6.44123e-06L664.642 0.500006L659.843 0.500007L659.843 6.65099e-06L655.044 6.86076e-06L655.044 0.500007L650.245 0.500007L650.245 7.07053e-06L645.446 7.2803e-06L645.446 0.500007L640.647 0.500007L640.647 7.49007e-06L635.848 7.69984e-06L635.848 0.500008L631.049 0.500008L631.049 7.90961e-06L626.25 8.11938e-06L626.25 0.500008L621.451 0.500008L621.451 8.32915e-06L616.652 8.53891e-06L616.652 0.500009L611.853 0.500009L611.853 8.74868e-06L607.055 8.95845e-06L607.055 0.500009L602.256 0.500009L602.256 9.16822e-06L597.457 9.37799e-06L597.457 0.500009L592.658 0.50001L592.658 9.58776e-06L587.859 9.79753e-06L587.859 0.50001L583.06 0.50001L583.06 1.00073e-05L578.261 1.02171e-05L578.261 0.50001L573.462 0.50001L573.462 1.04268e-05L568.663 1.06366e-05L568.663 0.500011L563.864 0.500011L563.864 1.08464e-05L559.065 1.10561e-05L559.065 0.500011L554.266 0.500011L554.266 1.12659e-05L549.467 1.14757e-05L549.467 0.500011L544.668 0.500012L544.668 1.16854e-05L539.869 1.18952e-05L539.869 0.500012L535.07 0.500012L535.07 1.2105e-05L530.271 1.23148e-05L530.271 0.500012L525.472 0.500013L525.472 1.25245e-05L520.673 1.27343e-05L520.673 0.500013L515.874 0.500013L515.874 1.29441e-05L511.076 1.31538e-05L511.076 0.500013L506.277 0.500013L506.277 1.33636e-05L501.478 1.35734e-05L501.478 0.500014L496.679 0.500014L496.679 1.37831e-05L491.88 1.39929e-05L491.88 0.500014L487.081 0.500014L487.081 1.42027e-05L482.282 1.44124e-05L482.282 0.500014L477.483 0.500015L477.483 1.46222e-05L472.684 1.4832e-05L472.684 0.500015L467.885 0.500015L467.885 1.50417e-05L463.086 1.52515e-05L463.086 0.500015L458.287 0.500015L458.287 1.54613e-05L453.488 1.56711e-05L453.488 0.500016L448.689 0.500016L448.689 1.58808e-05L443.89 1.60906e-05L443.89 0.500016L439.091 0.500016L439.091 1.63004e-05L434.292 1.65101e-05L434.292 0.500017L429.493 0.500017L429.493 1.67199e-05L424.694 1.69297e-05L424.694 0.500017L419.895 0.500017L419.895 1.71394e-05L415.097 1.73492e-05L415.097 0.500017L410.298 0.500018L410.298 1.7559e-05L405.499 1.77687e-05L405.499 0.500018L400.7 0.500018L400.7 1.79785e-05L395.901 1.81883e-05L395.901 0.500018L391.102 0.500018L391.102 1.8398e-05L386.303 1.86078e-05L386.303 0.500019L381.504 0.500019L381.504 1.88176e-05L376.705 1.90274e-05L376.705 0.500019L371.906 0.500019L371.906 1.92371e-05L367.107 1.94469e-05L367.107 0.500019L362.308 0.50002L362.308 1.96567e-05L357.509 1.98664e-05L357.509 0.50002L352.71 0.50002L352.71 2.00762e-05L347.911 2.0286e-05L347.911 0.50002L343.112 0.50002L343.112 2.04957e-05L338.313 2.07055e-05L338.313 0.500021L333.514 0.500021L333.514 2.09153e-05L328.715 2.1125e-05L328.715 0.500021L323.916 0.500021L323.916 2.13348e-05L319.118 2.15446e-05L319.118 0.500022L314.319 0.500022L314.319 2.17543e-05L309.52 2.19641e-05L309.52 0.500022L304.721 0.500022L304.721 2.21739e-05L299.922 2.23837e-05L299.922 0.500022L295.123 0.500023L295.123 2.25934e-05L290.324 2.28032e-05L290.324 0.500023L285.525 0.500023L285.525 2.3013e-05L280.726 2.32227e-05L280.726 0.500023L275.927 0.500023L275.927 2.34325e-05L271.128 2.36423e-05L271.128 0.500024L266.329 0.500024L266.329 2.3852e-05L261.53 2.40618e-05L261.53 0.500024L256.731 0.500024L256.731 2.42716e-05L251.932 2.44813e-05L251.932 0.500024L247.133 0.500025L247.133 2.46911e-05L242.334 2.49009e-05L242.334 0.500025L237.535 0.500025L237.535 2.51106e-05L232.736 2.53204e-05L232.736 0.500025L227.937 0.500026L227.937 2.55302e-05L223.138 2.574e-05L223.138 0.500026L218.34 0.500026L218.34 2.59497e-05L213.541 2.61595e-05L213.541 0.500026L208.742 0.500026L208.742 2.63693e-05L203.943 2.6579e-05L203.943 0.500027L201.543 0.500027C200.705 0.500027 199.877 0.520365 199.061 0.560075L199.036 0.0606657C197.317 0.144333 195.649 0.313176 194.05 0.558435L194.126 1.05265C192.423 1.3139 190.801 1.66251 189.282 2.08721L189.148 1.60569C187.441 2.08296 185.861 2.65575 184.438 3.30914L184.646 3.76355C183.022 4.50928 181.616 5.35707 180.472 6.28013L180.158 5.89092C178.699 7.06731 177.636 8.37369 177.057 9.76614L177.519 9.95793C177.215 10.6899 177.058 11.4411 177.058 12.2067L177.058 14.5825L176.558 14.5825L176.558 19.334L177.058 19.334L177.058 24.0854L176.558 24.0854L176.558 28.8369L177.058 28.8369L177.058 33.5884L176.558 33.5884L176.558 38.3399L177.058 38.3399L177.058 43.0914L176.558 43.0914L176.558 47.8429L177.058 47.8429L177.058 52.5944L176.558 52.5944L176.558 57.3459L177.058 57.3459L177.058 62.0974L176.558 62.0974L176.558 66.8489L177.058 66.8489L177.058 71.6004L176.558 71.6004L176.558 76.3519L177.058 76.3519L177.058 81.1034L176.558 81.1034L176.558 85.8549L177.058 85.8549L177.058 90.6064L176.558 90.6064L176.558 95.3579L177.058 95.3579L177.058 100.109L176.558 100.109L176.558 104.861L177.058 104.861L177.058 109.612L176.558 109.612L176.558 114.364L177.058 114.364L177.058 119.115L176.558 119.115L176.558 123.867L177.058 123.867L177.058 128.618L176.558 128.618L176.558 133.37L177.058 133.37L177.058 138.121L176.558 138.121L176.558 142.873L177.058 142.873L177.058 147.624L176.558 147.624L176.558 152.376L177.058 152.376L177.058 157.127L176.558 157.127L176.558 161.879L177.058 161.879L177.058 166.63L176.558 166.63L176.558 171.382L177.058 171.382L177.058 176.133L176.558 176.133L176.558 180.885L177.058 180.885L177.058 185.636L176.558 185.636L176.558 190.388L177.058 190.388L177.058 195.139L176.558 195.139L176.558 199.891L177.058 199.891L177.058 204.642L176.558 204.642L176.558 209.394L177.058 209.394L177.058 214.145L176.558 214.145L176.558 218.897L177.058 218.897L177.058 223.648L176.558 223.648L176.558 228.4L177.058 228.4L177.058 233.151L176.558 233.151L176.558 237.903L177.058 237.903L177.058 242.654L176.558 242.654L176.558 247.406L177.058 247.406L177.058 249.781C177.058 251.069 176.802 252.297 176.337 253.418L175.875 253.227C174.963 255.427 173.203 257.186 171.003 258.099L171.195 258.56C170.074 259.025 168.845 259.281 167.558 259.281L165.182 259.281L165.182 258.781L160.429 258.781L160.429 259.281L155.677 259.281L155.677 258.781L150.924 258.781L150.924 259.281L146.172 259.281L146.172 258.781L141.42 258.781L141.42 259.281L136.667 259.281L136.667 258.781L131.915 258.781L131.915 259.281L127.162 259.281L127.162 258.781L122.41 258.781L122.41 259.281L117.657 259.281L117.657 258.781L112.905 258.781L112.905 259.281L108.152 259.281L108.152 258.781L103.4 258.781L103.4 259.281L98.6475 259.281L98.6475 258.781L93.8951 258.781L93.8951 259.281L89.1427 259.281L89.1427 258.781L84.3902 258.781L84.3902 259.281L79.6378 259.281L79.6378 258.781L74.8853 258.781L74.8853 259.281L70.1329 259.281L70.1329 258.781L65.3804 258.781L65.3804 259.281L60.628 259.281L60.628 258.781L55.8756 258.781L55.8756 259.281L51.1231 259.281L51.1231 258.781L46.3707 258.781L46.3707 259.281L41.6182 259.281L41.6182 258.781L36.8658 258.781L36.8658 259.281L32.1134 259.281L32.1134 258.781L27.3609 258.781L27.3609 259.281L24.9846 259.281C24.1469 259.281 23.319 259.302 22.5029 259.342L22.4786 258.842C20.7591 258.926 19.0909 259.095 17.492 259.34L17.5678 259.834C15.8646 260.095 14.2428 260.444 12.7244 260.869L12.5897 260.387C10.8833 260.864 9.30311 261.437 7.87977 262.091L8.08839 262.545C6.46394 263.291 5.05836 264.139 3.91383 265.062L3.59993 264.672C2.14125 265.849 1.07783 267.155 0.499462 268.548L0.961254 268.739C0.657238 269.471 0.500012 270.223 0.500012 270.988L0.500012 273.358L1.19489e-05 273.358L1.21561e-05 278.099L0.500012 278.099L0.500012 282.839L1.23633e-05 282.839L1.25705e-05 287.579L0.500013 287.579L0.500013 292.319L1.27777e-05 292.319L1.29849e-05 297.06L0.500013 297.06L0.500013 301.8L1.31921e-05 301.8L1.33993e-05 306.54L0.500013 306.54L0.500014 311.28L1.36065e-05 311.28L1.38137e-05 316.021L0.500014 316.021L0.500014 320.761L1.40209e-05 320.761L1.42281e-05 325.501L0.500014 325.501L0.500014 330.241L1.44353e-05 330.241L1.46425e-05 334.982L0.500015 334.982L0.500015 339.722L1.48497e-05 339.722L1.50569e-05 344.462L0.500015 344.462L0.500015 349.202L1.52641e-05 349.202L1.54713e-05 353.943L0.500015 353.943L0.500016 358.683L1.56785e-05 358.683L1.58857e-05 363.423L0.500016 363.423L0.500016 365.793C0.500016 366.559 0.657243 367.31 0.961259 368.042L0.499467 368.234C1.07777 369.626 2.14125 370.933 3.59993 372.109L3.91383 371.72C5.05837 372.643 6.46388 373.491 8.0884 374.236L7.87978 374.691C9.30312 375.344 10.8833 375.917 12.5897 376.394L12.7244 375.913C14.2428 376.338 15.8646 376.686 17.5678 376.947L17.492 377.442C19.0909 377.687 20.7591 377.856 22.4786 377.939L22.5029 377.44C23.319 377.48 24.1469 377.5 24.9846 377.5L27.4102 377.5L27.4102 378L32.2614 378L32.2614 377.5L37.1126 377.5L37.1126 378L41.9638 378L41.9638 377.5L46.815 377.5L46.815 378L51.6661 378L51.6661 377.5L56.5173 377.5L56.5173 378L61.3685 378L61.3685 377.5L66.2197 377.5L66.2197 378L71.0708 378L71.0708 377.5L75.922 377.5L75.922 378L80.7732 378L80.7732 377.5L85.6244 377.5L85.6244 378L90.4755 378L90.4755 377.5L95.3267 377.5L95.3267 378L100.178 378L100.178 377.5L105.029 377.5L105.029 378L109.88 378L109.88 377.5L114.731 377.5L114.731 378L119.583 378L119.583 377.5L124.434 377.5L124.434 378L129.285 378L129.285 377.5L134.136 377.5L134.136 378L138.987 378L138.987 377.5L143.839 377.5L143.839 378L148.69 378L148.69 377.5L153.541 377.5L153.541 378L158.392 378L158.392 377.5L163.243 377.5L163.243 378L168.094 378L168.094 377.5L172.946 377.5L172.946 378L177.797 378L177.797 377.5L182.648 377.5L182.648 378L187.499 378L187.499 377.5L192.35 377.5L192.35 378L197.202 378L197.202 377.5L202.053 377.5L202.053 378L206.904 378L206.904 377.5L211.755 377.5L211.755 378L216.606 378L216.606 377.5L219.032 377.5C219.87 377.5 220.697 377.48 221.514 377.44L221.538 377.939C223.257 377.856 224.926 377.687 226.524 377.442L226.449 376.947C228.152 376.686 229.774 376.337 231.292 375.913L231.427 376.394C233.133 375.917 234.713 375.344 236.137 374.691L235.928 374.236C237.553 373.491 238.958 372.643 240.103 371.72L240.417 372.109C241.875 370.933 242.939 369.626 243.517 368.234L243.055 368.042C243.359 367.31 243.516 366.559 243.516 365.793L243.516 363.476L244.016 363.476L244.016 358.843L243.516 358.843L243.516 354.209L244.016 354.209L244.016 349.575L243.516 349.575L243.516 344.942L244.016 344.942L244.016 340.308L243.516 340.308L243.516 335.674L244.016 335.674L244.016 331.041L243.516 331.041L243.516 326.407L244.016 326.407L244.016 321.773L243.516 321.773L243.516 319.456C243.516 318.169 243.773 316.941 244.238 315.82L244.699 316.011C245.612 313.811 247.371 312.052 249.571 311.139L249.38 310.677C250.501 310.213 251.729 309.956 253.016 309.956L255.4 309.956L255.4 310.456L260.168 310.456L260.168 309.956L264.936 309.956L264.936 310.456L269.704 310.456L269.704 309.956L274.472 309.956L274.472 310.456L279.24 310.456L279.24 309.956L284.007 309.956L284.007 310.456L288.775 310.456L288.775 309.956L293.543 309.956L293.543 310.456L298.311 310.456L298.311 309.956L303.079 309.956L303.079 310.456L307.847 310.456L307.847 309.956L312.615 309.956L312.615 310.456L317.382 310.456L317.382 309.956L322.15 309.956L322.15 310.456L326.918 310.456L326.918 309.956L331.686 309.956L331.686 310.456L336.454 310.456L336.454 309.956L341.222 309.956L341.222 310.456L345.989 310.456L345.989 309.956L350.757 309.956L350.757 310.456L355.525 310.456L355.525 309.956L360.293 309.956L360.293 310.456L365.061 310.456L365.061 309.956L369.829 309.956L369.829 310.456L374.597 310.456L374.597 309.956L379.364 309.956L379.364 310.456L384.132 310.456L384.132 309.956L388.9 309.956L388.9 310.456L393.668 310.456L393.668 309.956L398.436 309.956L398.436 310.456L403.204 310.456L403.204 309.956L407.972 309.956L407.972 310.456L412.739 310.456L412.739 309.956L417.507 309.956L417.507 310.456L422.275 310.456L422.275 309.956L427.043 309.956L427.043 310.456L431.811 310.456L431.811 309.956L436.579 309.956L436.579 310.456L441.346 310.456L441.346 309.956L446.114 309.956L446.114 310.456L450.882 310.456L450.882 309.956L455.65 309.956L455.65 310.456L460.418 310.456L460.418 309.956L465.186 309.956L465.186 310.456L469.954 310.456L469.954 309.956L474.721 309.956L474.721 310.456L479.489 310.456L479.489 309.956L484.257 309.956L484.257 310.456L489.025 310.456L489.025 309.956L493.793 309.956L493.793 310.456L498.561 310.456L498.561 309.956L503.329 309.956L503.329 310.456L508.096 310.456L508.096 309.956L512.864 309.956L512.864 310.456L517.632 310.456L517.632 309.956L522.4 309.956L522.4 310.456L527.168 310.456L527.168 309.956L531.936 309.956L531.936 310.456L536.704 310.456L536.704 309.956L541.471 309.956L541.471 310.456L546.239 310.456L546.239 309.956L551.007 309.956L551.007 310.456L555.775 310.456L555.775 309.956L560.543 309.956L560.543 310.456L565.311 310.456L565.311 309.956L570.078 309.956L570.078 310.456L574.846 310.456L574.846 309.956L579.614 309.956L579.614 310.456L584.382 310.456L584.382 309.956L589.15 309.956L589.15 310.456L593.918 310.456L593.918 309.956L598.686 309.956L598.686 310.456L603.453 310.456L603.453 309.956L608.221 309.956L608.221 310.456L612.989 310.456L612.989 309.956L617.757 309.956L617.757 310.456L622.525 310.456L622.525 309.956L627.293 309.956L627.293 310.456L632.061 310.456L632.061 309.956L636.828 309.956L636.828 310.456L641.596 310.456L641.596 309.956L646.364 309.956L646.364 310.456L651.132 310.456L651.132 309.956L655.9 309.956L655.9 310.456L660.668 310.456L660.668 309.956L665.436 309.956L665.436 310.456L670.203 310.456L670.203 309.956L674.971 309.956L674.971 310.456L679.739 310.456L679.739 309.956L684.507 309.956L684.507 310.456L689.275 310.456L689.275 309.956L694.043 309.956L694.043 310.456L698.811 310.456L698.811 309.956L703.578 309.956L703.578 310.456L708.346 310.456L708.346 309.956L713.114 309.956L713.114 310.456L717.882 310.456L717.882 309.956L722.65 309.956L722.65 310.456L727.418 310.456L727.418 309.956L732.185 309.956L732.185 310.456L736.953 310.456L736.953 309.956L741.721 309.956L741.721 310.456L746.489 310.456L746.489 309.956L751.257 309.956L751.257 310.456L756.025 310.456L756.025 309.956L760.793 309.956L760.793 310.456L765.56 310.456L765.56 309.956L770.328 309.956L770.328 310.456L775.096 310.456L775.096 309.956L779.864 309.956L779.864 310.456L784.632 310.456L784.632 309.956L787.015 309.956C787.853 309.956 788.681 309.936 789.497 309.896L789.521 310.396C791.241 310.312 792.909 310.143 794.508 309.898L794.432 309.404C796.135 309.142 797.757 308.794 799.276 308.369L799.41 308.851C801.117 308.373 802.697 307.801 804.12 307.147L803.912 306.693C805.536 305.947 806.942 305.099 808.086 304.176L808.4 304.565C809.859 303.389 810.922 302.083 811.501 300.69L811.039 300.498C811.343 299.767 811.5 299.015 811.5 298.25L811.5 295.866L812 295.866L812 291.099L811.5 291.099L811.5 286.331L812 286.331L812 281.564L811.5 281.564L811.5 276.796L812 276.796L812 272.029L811.5 272.029L811.5 267.262L812 267.262L812 262.494L811.5 262.494L811.5 257.727L812 257.727L812 252.96L811.5 252.96L811.5 248.192L812 248.192L812 243.425L811.5 243.425L811.5 238.657L812 238.657L812 233.89L811.5 233.89L811.5 229.123L812 229.123L812 224.355L811.5 224.355L811.5 219.588L812 219.588L812 214.82L811.5 214.82L811.5 210.053L812 210.053L812 205.286L811.5 205.286L811.5 200.518L812 200.518L812 195.751L811.5 195.751L811.5 190.984L812 190.984L812 186.216L811.5 186.216L811.5 181.449L812 181.449L812 176.681L811.5 176.681L811.5 171.914L812 171.914L812 167.147L811.5 167.147L811.5 162.379L812 162.379L812 157.612L811.5 157.612L811.5 152.844L812 152.844L812 148.077L811.5 148.077L811.5 143.31L812 143.31L812 138.542L811.5 138.542L811.5 133.775L812 133.775L812 129.008L811.5 129.008L811.5 124.24L812 124.24L812 119.473L811.5 119.473L811.5 114.705L812 114.705L812 109.938L811.5 109.938L811.5 105.171L812 105.171L812 100.403L811.5 100.403L811.5 95.6359L812 95.6359L812 90.8685L811.5 90.8685L811.5 86.1011L812 86.1011L812 81.3338L811.5 81.3338L811.5 76.5664L812 76.5664L812 71.799L811.5 71.799L811.5 67.0316L812 67.0316L812 62.2642L811.5 62.2642L811.5 57.4969L812 57.4969L812 52.7295L811.5 52.7295L811.5 47.9621L812 47.9621L812 43.1947L811.5 43.1947L811.5 38.4273L812 38.4273L812 33.6599L811.5 33.6599L811.5 28.8926L812 28.8926L812 24.1252L811.5 24.1252L811.5 19.3578L812 19.3578L812 14.5904L811.5 14.5904L811.5 12.2067C811.5 11.441 811.343 10.6898 811.039 9.9579L811.501 9.76612Z" stroke="#5B5B5B" stroke-dasharray="4.8 4.8"/>
</svg>
