<svg width="565" height="569" viewBox="0 0 565 569" fill="none" xmlns="http://www.w3.org/2000/svg">
<path d="M0.078076 16.615C0.184242 15.4292 0.397012 14.2762 0.70614 13.1669L1.18779 13.3011C1.49754 12.1896 1.90657 11.1233 2.40394 10.1138L1.95542 9.89279C2.47726 8.83356 3.09387 7.83488 3.79335 6.9093L4.19225 7.21076C4.88259 6.29727 5.65562 5.45739 6.49909 4.70378L6.16595 4.33092C7.04047 3.54957 7.989 2.85795 8.99883 2.26952L9.25057 2.70152C10.2287 2.13154 11.2656 1.66159 12.349 1.30437L12.1924 0.829515C13.2911 0.467256 14.4366 0.217272 15.6169 0.0922596L15.6696 0.589479C16.2282 0.530313 16.795 0.500001 17.3686 0.500001L19.0932 0.500001L19.0932 8.3459e-07L22.5424 9.85358e-07L22.5424 0.500001L25.9916 0.500001L25.9916 1.13613e-06L29.4408 1.2869e-06L29.4408 0.500001L32.89 0.500001L32.89 1.43766e-06L36.3392 1.58843e-06L36.3392 0.500002L39.7884 0.500002L39.7884 1.7392e-06L43.2376 1.88997e-06L43.2376 0.500002L46.6868 0.500002L46.6868 2.04074e-06L50.136 2.19151e-06L50.136 0.500002L53.5852 0.500002L53.5852 2.34228e-06L57.0344 2.49304e-06L57.0344 0.500002L60.4836 0.500003L60.4836 2.64381e-06L63.9328 2.79458e-06L63.9328 0.500003L67.382 0.500003L67.382 2.94535e-06L70.8312 3.09612e-06L70.8312 0.500003L74.2804 0.500003L74.2804 3.24689e-06L77.7296 3.39766e-06L77.7296 0.500003L81.1787 0.500004L81.1787 3.54843e-06L84.6279 3.69919e-06L84.6279 0.500004L88.0771 0.500004L88.0771 3.84996e-06L91.5263 4.00073e-06L91.5263 0.500004L94.9755 0.500004L94.9755 4.1515e-06L98.4247 4.30227e-06L98.4247 0.500004L101.874 0.500004L101.874 4.45304e-06L105.323 4.60381e-06L105.323 0.500005L108.772 0.500005L108.772 4.75458e-06L112.222 4.90534e-06L112.222 0.500005L115.671 0.500005L115.671 5.05611e-06L119.12 5.20688e-06L119.12 0.500005L122.569 0.500005L122.569 5.35765e-06L126.018 5.50842e-06L126.018 0.500006L129.467 0.500006L129.467 5.65919e-06L132.917 5.80996e-06L132.917 0.500006L136.366 0.500006L136.366 5.96073e-06L139.815 6.11149e-06L139.815 0.500006L143.264 0.500006L143.264 6.26226e-06L146.713 6.41303e-06L146.713 0.500006L150.163 0.500007L150.163 6.5638e-06L153.612 6.71457e-06L153.612 0.500007L157.061 0.500007L157.061 6.86534e-06L160.51 7.0161e-06L160.51 0.500007L163.959 0.500007L163.959 7.16687e-06L167.409 7.31764e-06L167.409 0.500007L170.858 0.500007L170.858 7.46841e-06L174.307 7.61918e-06L174.307 0.500008L177.756 0.500008L177.756 7.76995e-06L181.205 7.92072e-06L181.205 0.500008L184.655 0.500008L184.655 8.07148e-06L188.104 8.22225e-06L188.104 0.500008L191.553 0.500008L191.553 8.37302e-06L195.002 8.52379e-06L195.002 0.500009L198.451 0.500009L198.451 8.67456e-06L201.9 8.82533e-06L201.9 0.500009L205.35 0.500009L205.35 8.97609e-06L208.799 9.12686e-06L208.799 0.500009L212.248 0.500009L212.248 9.27763e-06L215.697 9.4284e-06L215.697 0.500009L219.146 0.50001L219.146 9.57917e-06L222.596 9.72994e-06L222.596 0.50001L226.045 0.50001L226.045 9.8807e-06L229.494 1.00315e-05L229.494 0.50001L232.943 0.50001L232.943 1.01822e-05L236.392 1.0333e-05L236.392 0.50001L239.842 0.50001L239.842 1.04838e-05L243.291 1.06345e-05L243.291 0.500011L246.74 0.500011L246.74 1.07853e-05L250.189 1.09361e-05L250.189 0.500011L253.638 0.500011L253.638 1.10869e-05L257.087 1.12376e-05L257.087 0.500011L260.537 0.500011L260.537 1.13884e-05L263.986 1.15392e-05L263.986 0.500012L267.435 0.500012L267.435 1.16899e-05L270.884 1.18407e-05L270.884 0.500012L274.333 0.500012L274.333 1.19915e-05L277.783 1.21422e-05L277.783 0.500012L281.232 0.500012L281.232 1.2293e-05L284.681 1.24438e-05L284.681 0.500012L288.13 0.500013L288.13 1.25945e-05L291.579 1.27453e-05L291.579 0.500013L295.029 0.500013L295.029 1.28961e-05L298.478 1.30468e-05L298.478 0.500013L301.927 0.500013L301.927 1.31976e-05L305.376 1.33484e-05L305.376 0.500013L308.825 0.500013L308.825 1.34991e-05L312.275 1.36499e-05L312.275 0.500014L315.724 0.500014L315.724 1.38007e-05L319.173 1.39515e-05L319.173 0.500014L322.622 0.500014L322.622 1.41022e-05L326.071 1.4253e-05L326.071 0.500014L329.52 0.500014L329.52 1.44038e-05L332.97 1.45545e-05L332.97 0.500015L336.419 0.500015L336.419 1.47053e-05L339.868 1.48561e-05L339.868 0.500015L343.317 0.500015L343.317 1.50068e-05L346.766 1.51576e-05L346.766 0.500015L350.216 0.500015L350.216 1.53084e-05L353.665 1.54591e-05L353.665 0.500015L357.114 0.500016L357.114 1.56099e-05L360.563 1.57607e-05L360.563 0.500016L364.012 0.500016L364.012 1.59114e-05L367.462 1.60622e-05L367.462 0.500016L370.911 0.500016L370.911 1.6213e-05L374.36 1.63637e-05L374.36 0.500016L377.809 0.500017L377.809 1.65145e-05L381.258 1.66653e-05L381.258 0.500017L384.707 0.500017L384.707 1.68161e-05L388.157 1.69668e-05L388.157 0.500017L391.606 0.500017L391.606 1.71176e-05L395.055 1.72684e-05L395.055 0.500017L398.504 0.500017L398.504 1.74191e-05L401.953 1.75699e-05L401.953 0.500018L405.403 0.500018L405.403 1.77207e-05L408.852 1.78714e-05L408.852 0.500018L412.301 0.500018L412.301 1.80222e-05L415.75 1.8173e-05L415.75 0.500018L419.199 0.500018L419.199 1.83237e-05L422.649 1.84745e-05L422.649 0.500018L424.374 0.500019C424.947 0.500019 425.514 0.530331 426.073 0.589497L426.125 0.0922787C427.306 0.217291 428.451 0.467275 429.55 0.829532L429.393 1.30439C430.477 1.66161 431.513 2.13156 432.492 2.70154L432.743 2.26954C433.753 2.85798 434.702 3.54959 435.576 4.33095L435.243 4.7038C436.087 5.45742 436.86 6.2973 437.55 7.21078L437.949 6.90933C438.648 7.83491 439.265 8.83359 439.787 9.89282L439.338 10.1138C439.836 11.1233 440.245 12.1896 440.554 13.3012L441.036 13.1669C441.345 14.2763 441.558 15.4293 441.664 16.6151L441.166 16.6597C441.216 17.2218 441.242 17.7917 441.242 18.3681L441.242 20.0877L441.742 20.0877L441.742 23.5269L441.242 23.5269L441.242 26.9661L441.742 26.9661L441.742 30.4053L441.242 30.4053L441.242 33.8445L441.742 33.8445L441.742 37.2837L441.242 37.2837L441.242 40.723L441.742 40.723L441.742 44.1622L441.242 44.1622L441.242 47.6014L441.742 47.6014L441.742 51.0406L441.242 51.0406L441.242 54.4798L441.742 54.4798L441.742 57.919L441.242 57.919L441.242 61.3582L441.742 61.3582L441.742 64.7974L441.242 64.7974L441.242 68.2366L441.742 68.2366L441.742 71.6758L441.242 71.6758L441.242 75.115L441.742 75.115L441.742 78.5542L441.242 78.5542L441.242 81.9934L441.742 81.9934L441.742 85.4326L441.242 85.4326L441.242 88.8718L441.742 88.8718L441.742 92.311L441.242 92.311L441.242 95.7502L441.742 95.7502L441.742 99.1894L441.242 99.1894L441.242 102.629L441.742 102.629L441.742 106.068L441.242 106.068L441.242 109.507L441.742 109.507L441.742 112.946L441.242 112.946L441.242 116.385L441.742 116.385L441.742 119.825L441.242 119.825L441.242 123.264L441.742 123.264L441.742 126.703L441.242 126.703L441.242 130.142L441.742 130.142L441.742 133.581L441.242 133.581L441.242 137.021L441.742 137.021L441.742 140.46L441.242 140.46L441.242 143.899L441.742 143.899L441.742 147.338L441.242 147.338L441.242 150.777L441.742 150.777L441.742 154.217L441.242 154.217L441.242 157.656L441.742 157.656L441.742 161.095L441.242 161.095L441.242 164.534L441.742 164.534L441.742 167.973L441.242 167.973L441.242 171.413L441.742 171.413L441.742 174.852L441.242 174.852L441.242 178.291L441.742 178.291L441.742 181.73L441.242 181.73L441.242 185.17L441.742 185.17L441.742 188.609L441.242 188.609L441.242 192.048L441.742 192.048L441.742 195.487L441.242 195.487L441.242 198.926L441.742 198.926L441.742 202.366L441.242 202.366L441.242 205.805L441.742 205.805L441.742 209.244L441.242 209.244L441.242 212.683L441.742 212.683L441.742 216.122L441.242 216.122L441.242 219.562L441.742 219.562L441.742 223.001L441.242 223.001L441.242 226.44L441.742 226.44L441.742 229.879L441.242 229.879L441.242 233.318L441.742 233.318L441.742 236.758L441.242 236.758L441.242 240.197L441.742 240.197L441.742 243.636L441.242 243.636L441.242 247.075L441.742 247.075L441.742 250.514L441.242 250.514L441.242 253.954L441.742 253.954L441.742 257.393L441.242 257.393L441.242 260.832L441.742 260.832L441.742 264.271L441.242 264.271L441.242 267.711L441.742 267.711L441.742 271.15L441.242 271.15L441.242 274.589L441.742 274.589L441.742 278.028L441.242 278.028L441.242 281.467L441.742 281.467L441.742 284.907L441.242 284.907L441.242 288.346L441.742 288.346L441.742 291.785L441.242 291.785L441.242 295.224L441.742 295.224L441.742 298.663L441.242 298.663L441.242 302.103L441.742 302.103L441.742 305.542L441.242 305.542L441.242 308.981L441.742 308.981L441.742 312.42L441.242 312.42L441.242 315.859L441.742 315.859L441.742 319.299L441.242 319.299L441.242 322.738L441.742 322.738L441.742 326.177L441.242 326.177L441.242 329.616L441.742 329.616L441.742 333.056L441.242 333.056L441.242 336.495L441.742 336.495L441.742 339.934L441.242 339.934L441.242 343.373L441.742 343.373L441.742 346.812L441.242 346.812L441.242 350.252L441.742 350.252L441.742 353.691L441.242 353.691L441.242 357.13L441.742 357.13L441.742 360.569L441.242 360.569L441.242 364.008L441.742 364.008L441.742 367.448L441.242 367.448L441.242 370.887L441.742 370.887L441.742 374.326L441.242 374.326L441.242 377.765L441.742 377.765L441.742 381.204L441.242 381.204L441.242 382.924C441.242 383.869 441.43 384.772 441.772 385.596L442.234 385.404C442.891 386.988 444.158 388.255 445.742 388.912L445.55 389.374C446.374 389.715 447.277 389.904 448.222 389.904L449.988 389.904L449.988 389.404L453.52 389.404L453.52 389.904L457.052 389.904L457.052 389.404L460.583 389.404L460.583 389.904L464.115 389.904L464.115 389.404L467.647 389.404L467.647 389.904L471.179 389.904L471.179 389.404L474.71 389.404L474.71 389.904L478.242 389.904L478.242 389.404L481.774 389.404L481.774 389.904L485.306 389.904L485.306 389.404L488.838 389.404L488.838 389.904L492.369 389.904L492.369 389.404L495.901 389.404L495.901 389.904L499.433 389.904L499.433 389.404L502.965 389.404L502.965 389.904L506.496 389.904L506.496 389.404L510.028 389.404L510.028 389.904L513.56 389.904L513.56 389.404L517.092 389.404L517.092 389.904L520.624 389.904L520.624 389.404L524.155 389.404L524.155 389.904L527.687 389.904L527.687 389.404L531.219 389.404L531.219 389.904L534.751 389.904L534.751 389.404L538.282 389.404L538.282 389.904L541.814 389.904L541.814 389.404L545.346 389.404L545.346 389.904L547.112 389.904C547.686 389.904 548.252 389.934 548.811 389.993L548.864 389.496C550.044 389.621 551.189 389.871 552.288 390.233L552.131 390.708C553.215 391.065 554.252 391.535 555.23 392.105L555.482 391.673C556.491 392.262 557.44 392.953 558.315 393.735L557.981 394.108C558.825 394.861 559.598 395.701 560.288 396.614L560.687 396.313C561.387 397.239 562.003 398.237 562.525 399.297L562.077 399.517C562.574 400.527 562.983 401.593 563.293 402.705L563.774 402.571C564.083 403.68 564.296 404.833 564.402 406.019L563.904 406.063C563.955 406.626 563.98 407.195 563.98 407.772L563.98 409.47L564.48 409.47L564.48 412.867L563.98 412.867L563.98 416.263L564.48 416.263L564.48 419.66L563.98 419.66L563.98 423.057L564.48 423.057L564.48 426.453L563.98 426.453L563.98 429.85L564.48 429.85L564.48 433.247L563.98 433.247L563.98 436.643L564.48 436.643L564.48 440.04L563.98 440.04L563.98 443.437L564.48 443.437L564.48 446.833L563.98 446.833L563.98 450.23L564.48 450.23L564.48 453.626L563.98 453.626L563.98 457.023L564.48 457.023L564.48 460.42L563.98 460.42L563.98 463.816L564.48 463.816L564.48 467.213L563.98 467.213L563.98 470.61L564.48 470.61L564.48 474.006L563.98 474.006L563.98 477.403L564.48 477.403L564.48 480.8L563.98 480.8L563.98 484.196L564.48 484.196L564.48 487.593L563.98 487.593L563.98 490.989L564.48 490.989L564.48 494.386L563.98 494.386L563.98 497.783L564.48 497.783L564.48 501.179L563.98 501.179L563.98 504.576L564.48 504.576L564.48 507.973L563.98 507.973L563.98 511.369L564.48 511.369L564.48 514.766L563.98 514.766L563.98 518.163L564.48 518.163L564.48 521.559L563.98 521.559L563.98 524.956L564.48 524.956L564.48 528.353L563.98 528.353L563.98 531.749L564.48 531.749L564.48 535.146L563.98 535.146L563.98 538.542L564.48 538.542L564.48 541.939L563.98 541.939L563.98 545.336L564.48 545.336L564.48 548.732L563.98 548.732L563.98 550.431C563.98 551.007 563.955 551.577 563.904 552.139L564.402 552.184C564.296 553.37 564.083 554.523 563.774 555.632L563.293 555.498C562.983 556.609 562.574 557.676 562.077 558.685L562.525 558.906C562.003 559.965 561.387 560.964 560.687 561.889L560.288 561.588C559.598 562.501 558.825 563.341 557.981 564.095L558.314 564.468C557.44 565.249 556.491 565.941 555.482 566.529L555.23 566.097C554.252 566.667 553.215 567.137 552.131 567.494L552.288 567.969C551.189 568.332 550.044 568.582 548.864 568.707L548.811 568.209C548.252 568.268 547.686 568.299 547.112 568.299L545.426 568.299L545.426 568.799L542.053 568.799L542.053 568.299L538.681 568.299L538.681 568.799L535.308 568.799L535.308 568.299L531.936 568.299L531.936 568.799L528.564 568.799L528.564 568.299L525.191 568.299L525.191 568.799L521.819 568.799L521.819 568.299L518.446 568.299L518.446 568.799L515.074 568.799L515.074 568.299L511.702 568.299L511.702 568.799L508.329 568.799L508.329 568.299L504.957 568.299L504.957 568.799L501.584 568.799L501.584 568.299L498.212 568.299L498.212 568.799L494.839 568.799L494.839 568.299L491.467 568.299L491.467 568.799L488.095 568.799L488.095 568.299L484.722 568.299L484.722 568.799L481.35 568.799L481.35 568.299L477.977 568.299L477.977 568.799L474.605 568.799L474.605 568.299L471.233 568.299L471.233 568.799L467.86 568.799L467.86 568.299L464.488 568.299L464.488 568.799L461.115 568.799L461.115 568.299L457.743 568.299L457.743 568.799L454.371 568.799L454.371 568.299L450.998 568.299L450.998 568.799L447.626 568.799L447.626 568.299L444.253 568.299L444.253 568.799L440.881 568.799L440.881 568.299L437.509 568.299L437.509 568.799L434.136 568.799L434.136 568.299L430.764 568.299L430.764 568.799L427.391 568.799L427.391 568.299L424.019 568.299L424.019 568.799L420.647 568.799L420.647 568.299L417.274 568.299L417.274 568.799L413.902 568.799L413.902 568.299L412.215 568.299C411.642 568.299 411.075 568.268 410.516 568.209L410.464 568.706C409.283 568.581 408.138 568.331 407.039 567.969L407.196 567.494C406.112 567.137 405.076 566.667 404.097 566.097L403.846 566.529C402.836 565.941 401.887 565.249 401.013 564.468L401.346 564.095C400.502 563.341 399.729 562.501 399.039 561.588L398.64 561.889C397.941 560.964 397.324 559.965 396.802 558.906L397.251 558.685C396.753 557.675 396.344 556.609 396.035 555.498L395.553 555.632C395.244 554.523 395.031 553.37 394.925 552.184L395.423 552.139C395.373 551.577 395.347 551.007 395.347 550.431L395.347 548.686L394.847 548.686L394.847 545.195L395.347 545.195L395.347 541.705L394.847 541.705L394.847 538.214L395.347 538.214L395.347 534.724L394.847 534.724L394.847 531.234L395.347 531.234L395.347 527.743L394.847 527.743L394.847 524.253L395.347 524.253L395.347 520.762L394.847 520.762L394.847 517.272L395.347 517.272L395.347 513.782L394.847 513.782L394.847 510.291L395.347 510.291L395.347 506.801L394.847 506.801L394.847 503.31L395.347 503.31L395.347 499.82L394.847 499.82L394.847 496.33L395.347 496.33L395.347 492.839L394.847 492.839L394.847 489.349L395.347 489.349L395.347 485.858L394.847 485.858L394.847 482.368L395.347 482.368L395.347 478.878L394.847 478.878L394.847 475.387L395.347 475.387L395.347 473.642C395.347 472.696 395.159 471.794 394.817 470.97L394.355 471.162C393.698 469.578 392.431 468.311 390.847 467.654L391.039 467.192C390.215 466.85 389.312 466.662 388.367 466.662L386.649 466.662L386.649 467.162L383.214 467.162L383.214 466.662L379.779 466.662L379.779 467.162L376.344 467.162L376.344 466.662L372.909 466.662L372.909 467.162L369.473 467.162L369.473 466.662L366.038 466.662L366.038 467.162L362.603 467.162L362.603 466.662L359.168 466.662L359.168 467.162L355.733 467.162L355.733 466.662L352.298 466.662L352.298 467.162L348.862 467.162L348.862 466.662L345.427 466.662L345.427 467.162L341.992 467.162L341.992 466.662L338.557 466.662L338.557 467.162L335.122 467.162L335.122 466.662L331.687 466.662L331.687 467.162L328.251 467.162L328.251 466.662L324.816 466.662L324.816 467.162L321.381 467.162L321.381 466.662L317.946 466.662L317.946 467.162L314.511 467.162L314.511 466.662L311.076 466.662L311.076 467.162L307.64 467.162L307.64 466.662L304.205 466.662L304.205 467.162L300.77 467.162L300.77 466.662L297.335 466.662L297.335 467.162L293.9 467.162L293.9 466.662L290.465 466.662L290.465 467.162L287.029 467.162L287.029 466.662L283.594 466.662L283.594 467.162L280.159 467.162L280.159 466.662L276.724 466.662L276.724 467.162L273.289 467.162L273.289 466.662L269.854 466.662L269.854 467.162L266.418 467.162L266.418 466.662L262.983 466.662L262.983 467.162L259.548 467.162L259.548 466.662L256.113 466.662L256.113 467.162L252.678 467.162L252.678 466.662L249.243 466.662L249.243 467.162L245.807 467.162L245.807 466.662L242.372 466.662L242.372 467.162L238.937 467.162L238.937 466.662L235.502 466.662L235.502 467.162L232.067 467.162L232.067 466.662L228.632 466.662L228.632 467.162L225.196 467.162L225.196 466.662L221.761 466.662L221.761 467.162L218.326 467.162L218.326 466.662L214.891 466.662L214.891 467.162L211.456 467.162L211.456 466.662L208.021 466.662L208.021 467.162L204.585 467.162L204.585 466.662L201.15 466.662L201.15 467.162L197.715 467.162L197.715 466.662L194.28 466.662L194.28 467.162L190.845 467.162L190.845 466.662L187.41 466.662L187.41 467.162L183.974 467.162L183.974 466.662L180.539 466.662L180.539 467.162L177.104 467.162L177.104 466.662L173.669 466.662L173.669 467.162L170.234 467.162L170.234 466.662L166.799 466.662L166.799 467.162L163.363 467.162L163.363 466.662L159.928 466.662L159.928 467.162L156.493 467.162L156.493 466.662L153.058 466.662L153.058 467.162L149.623 467.162L149.623 466.662L146.188 466.662L146.188 467.162L142.752 467.162L142.752 466.662L139.317 466.662L139.317 467.162L135.882 467.162L135.882 466.662L132.447 466.662L132.447 467.162L129.012 467.162L129.012 466.662L125.577 466.662L125.577 467.162L122.141 467.162L122.141 466.662L118.706 466.662L118.706 467.162L115.271 467.162L115.271 466.662L111.836 466.662L111.836 467.162L108.401 467.162L108.401 466.662L104.966 466.662L104.966 467.162L101.53 467.162L101.53 466.662L98.0952 466.662L98.0952 467.162L94.66 467.162L94.66 466.662L91.2248 466.662L91.2248 467.162L87.7896 467.162L87.7896 466.662L84.3544 466.662L84.3544 467.162L80.9193 467.162L80.9193 466.662L77.4841 466.662L77.4841 467.162L74.0489 467.162L74.0489 466.662L70.6137 466.662L70.6137 467.162L67.1785 467.162L67.1785 466.662L63.7434 466.662L63.7434 467.162L60.3082 467.162L60.3082 466.662L56.873 466.662L56.873 467.162L53.4378 467.162L53.4378 466.662L50.0026 466.662L50.0026 467.162L46.5675 467.162L46.5675 466.662L43.1323 466.662L43.1323 467.162L39.6971 467.162L39.6971 466.662L36.2619 466.662L36.2619 467.162L32.8267 467.162L32.8267 466.662L29.3916 466.662L29.3916 467.162L25.9564 467.162L25.9564 466.662L22.5212 466.662L22.5212 467.162L19.086 467.162L19.086 466.662L17.3686 466.662C16.795 466.662 16.2282 466.632 15.6696 466.572L15.6169 467.07C14.4366 466.945 13.2911 466.695 12.1924 466.332L12.349 465.858C11.2656 465.5 10.2287 465.03 9.25053 464.46L8.99881 464.892C7.98897 464.304 7.04044 463.612 6.16592 462.831L6.49906 462.458C5.65559 461.705 4.88256 460.865 4.19222 459.951L3.79332 460.253C3.09384 459.327 2.47724 458.328 1.95539 457.269L2.40392 457.048C1.90655 456.039 1.49751 454.972 1.18777 453.861L0.706121 453.995C0.396993 452.886 0.184223 451.733 0.078057 450.547L0.576065 450.502C0.525733 449.94 0.49998 449.37 0.49998 448.794L0.49998 447.058L-1.95416e-05 447.058L-1.93899e-05 443.587L0.499981 443.587L0.499981 440.116L-1.92381e-05 440.116L-1.90864e-05 436.645L0.499981 436.645L0.499981 433.174L-1.89347e-05 433.174L-1.87829e-05 429.702L0.499981 429.702L0.499981 426.231L-1.86312e-05 426.231L-1.84795e-05 422.76L0.499982 422.76L0.499982 419.289L-1.83278e-05 419.289L-1.8176e-05 415.818L0.499982 415.818L0.499982 412.346L-1.80243e-05 412.346L-1.78726e-05 408.875L0.499982 408.875L0.499982 405.404L-1.77208e-05 405.404L-1.75691e-05 401.933L0.499982 401.933L0.499983 398.462L-1.74174e-05 398.462L-1.72656e-05 394.991L0.499983 394.991L0.499983 391.519L-1.71139e-05 391.519L-1.69622e-05 388.048L0.499983 388.048L0.499983 384.577L-1.68104e-05 384.577L-1.66587e-05 381.106L0.499983 381.106L0.499983 377.635L-1.6507e-05 377.635L-1.63553e-05 374.164L0.499984 374.164L0.499984 370.692L-1.62035e-05 370.692L-1.60518e-05 367.221L0.499984 367.221L0.499984 363.75L-1.59001e-05 363.75L-1.57483e-05 360.279L0.499984 360.279L0.499984 356.808L-1.55966e-05 356.808L-1.54449e-05 353.337L0.499985 353.337L0.499985 349.865L-1.52931e-05 349.865L-1.51414e-05 346.394L0.499985 346.394L0.499985 342.923L-1.49897e-05 342.923L-1.4838e-05 339.452L0.499985 339.452L0.499985 335.981L-1.46862e-05 335.981L-1.45345e-05 332.509L0.499985 332.509L0.499986 329.038L-1.43828e-05 329.038L-1.4231e-05 325.567L0.499986 325.567L0.499986 322.096L-1.40793e-05 322.096L-1.39276e-05 318.625L0.499986 318.625L0.499986 315.154L-1.37758e-05 315.154L-1.36241e-05 311.682L0.499986 311.682L0.499987 308.211L-1.34724e-05 308.211L-1.33206e-05 304.74L0.499987 304.74L0.499987 301.269L-1.31689e-05 301.269L-1.30172e-05 297.798L0.499987 297.798L0.499987 294.327L-1.28655e-05 294.327L-1.27137e-05 290.855L0.499987 290.855L0.499987 287.384L-1.2562e-05 287.384L-1.24103e-05 283.913L0.499988 283.913L0.499988 280.442L-1.22585e-05 280.442L-1.21068e-05 276.971L0.499988 276.971L0.499988 273.499L-1.19551e-05 273.499L-1.18033e-05 270.028L0.499988 270.028L0.499988 266.557L-1.16516e-05 266.557L-1.14999e-05 263.086L0.499989 263.086L0.499989 259.615L-1.13482e-05 259.615L-1.11964e-05 256.144L0.499989 256.144L0.499989 252.672L-1.10447e-05 252.672L-1.0893e-05 249.201L0.499989 249.201L0.499989 245.73L-1.07412e-05 245.73L-1.05895e-05 242.259L0.499989 242.259L0.49999 238.788L-1.04378e-05 238.788L-1.0286e-05 235.317L0.49999 235.317L0.49999 231.845L-1.01343e-05 231.845L-9.98258e-06 228.374L0.49999 228.374L0.49999 224.903L-9.83085e-06 224.903L-9.67912e-06 221.432L0.49999 221.432L0.49999 217.961L-9.52739e-06 217.961L-9.37566e-06 214.489L0.499991 214.489L0.499991 211.018L-9.22393e-06 211.018L-9.0722e-06 207.547L0.499991 207.547L0.499991 204.076L-8.92047e-06 204.076L-8.76874e-06 200.605L0.499991 200.605L0.499991 197.134L-8.61701e-06 197.134L-8.46528e-06 193.662L0.499992 193.662L0.499992 190.191L-8.31355e-06 190.191L-8.16182e-06 186.72L0.499992 186.72L0.499992 183.249L-8.01009e-06 183.249L-7.85836e-06 179.778L0.499992 179.778L0.499992 176.307L-7.70663e-06 176.307L-7.5549e-06 172.835L0.499992 172.835L0.499993 169.364L-7.40317e-06 169.364L-7.25144e-06 165.893L0.499993 165.893L0.499993 162.422L-7.09971e-06 162.422L-6.94798e-06 158.951L0.499993 158.951L0.499993 155.48L-6.79625e-06 155.48L-6.64452e-06 152.008L0.499993 152.008L0.499994 148.537L-6.49279e-06 148.537L-6.34106e-06 145.066L0.499994 145.066L0.499994 141.595L-6.18933e-06 141.595L-6.0376e-06 138.124L0.499994 138.124L0.499994 134.653L-5.88587e-06 134.653L-5.73414e-06 131.182L0.499994 131.182L0.499994 127.71L-5.58241e-06 127.71L-5.43068e-06 124.239L0.499995 124.239L0.499995 120.768L-5.27895e-06 120.768L-5.12722e-06 117.297L0.499995 117.297L0.499995 113.826L-4.97549e-06 113.826L-4.82376e-06 110.355L0.499995 110.355L0.499995 106.883L-4.67204e-06 106.883L-4.52031e-06 103.412L0.499995 103.412L0.499996 99.9411L-4.36858e-06 99.9411L-4.21685e-06 96.4699L0.499996 96.4699L0.499996 92.9987L-4.06512e-06 92.9987L-3.91339e-06 89.5276L0.499996 89.5276L0.499996 86.0564L-3.76166e-06 86.0564L-3.60993e-06 82.5853L0.499996 82.5853L0.499997 79.1141L-3.4582e-06 79.1141L-3.30647e-06 75.643L0.499997 75.643L0.499997 72.1718L-3.15474e-06 72.1718L-3.00301e-06 68.7006L0.499997 68.7006L0.499997 65.2295L-2.85128e-06 65.2295L-2.69955e-06 61.7583L0.499997 61.7583L0.499997 58.2871L-2.54782e-06 58.2871L-2.39609e-06 54.816L0.499998 54.816L0.499998 51.3448L-2.24436e-06 51.3448L-2.09263e-06 47.8736L0.499998 47.8736L0.499998 44.4025L-1.9409e-06 44.4025L-1.78917e-06 40.9313L0.499998 40.9313L0.499998 37.4602L-1.63744e-06 37.4602L-1.48571e-06 33.989L0.499999 33.989L0.499999 30.5178L-1.33398e-06 30.5178L-1.18225e-06 27.0467L0.499999 27.0467L0.499999 23.5755L-1.03052e-06 23.5755L-8.78793e-07 20.1044L0.499999 20.1044L0.499999 18.3681C0.499999 17.7917 0.525752 17.2218 0.576084 16.6596L0.078076 16.615Z" stroke="#5B5B5B" stroke-dasharray="3.46 3.46"/>
</svg>
