<svg width="751" height="378" viewBox="0 0 751 378" fill="none" xmlns="http://www.w3.org/2000/svg">
<path d="M0.416011 9.88892C0.914002 8.52031 1.84469 7.233 3.12994 6.06827L3.4657 6.43877C4.5005 5.50101 5.78257 4.63782 7.27268 3.87655L7.0452 3.43129C8.36597 2.75654 9.83862 2.16424 11.4334 1.67009L11.5814 2.14769C13.0014 1.70771 14.522 1.34609 16.1215 1.07485L16.0379 0.581892C17.5444 0.326425 19.1183 0.150412 20.7419 0.0631918L20.7687 0.562472C21.5376 0.521168 22.3179 0.500001 23.1077 0.500001L25.5251 0.500001L25.5251 1.11574e-06L30.3598 1.32707e-06L30.3598 0.500001L35.1945 0.500002L35.1945 1.5384e-06L40.0293 1.74974e-06L40.0293 0.500002L44.864 0.500002L44.864 1.96107e-06L49.6987 2.1724e-06L49.6987 0.500002L54.5335 0.500002L54.5335 2.38373e-06L59.3682 2.59507e-06L59.3682 0.500003L64.2029 0.500003L64.2029 2.8064e-06L69.0377 3.01773e-06L69.0377 0.500003L73.8724 0.500003L73.8724 3.22907e-06L78.7072 3.4404e-06L78.7072 0.500003L83.5419 0.500004L83.5419 3.65173e-06L88.3766 3.86307e-06L88.3766 0.500004L93.2114 0.500004L93.2114 4.0744e-06L98.0461 4.28573e-06L98.0461 0.500004L102.881 0.500004L102.881 4.49706e-06L107.716 4.7084e-06L107.716 0.500005L112.55 0.500005L112.55 4.91973e-06L117.385 5.13106e-06L117.385 0.500005L122.22 0.500005L122.22 5.3424e-06L127.054 5.55373e-06L127.054 0.500006L131.889 0.500006L131.889 5.76506e-06L136.724 5.97639e-06L136.724 0.500006L141.559 0.500006L141.559 6.18773e-06L146.393 6.39906e-06L146.393 0.500006L151.228 0.500007L151.228 6.61039e-06L156.063 6.82173e-06L156.063 0.500007L160.898 0.500007L160.898 7.03306e-06L165.732 7.24439e-06L165.732 0.500007L170.567 0.500007L170.567 7.45572e-06L175.402 7.66706e-06L175.402 0.500008L180.237 0.500008L180.237 7.87839e-06L185.071 8.08972e-06L185.071 0.500008L189.906 0.500008L189.906 8.30106e-06L194.741 8.51239e-06L194.741 0.500009L199.575 0.500009L199.575 8.72372e-06L204.41 8.93505e-06L204.41 0.500009L209.245 0.500009L209.245 9.14639e-06L214.08 9.35772e-06L214.08 0.500009L218.914 0.50001L218.914 9.56905e-06L223.749 9.78039e-06L223.749 0.50001L228.584 0.50001L228.584 9.99172e-06L233.419 1.02031e-05L233.419 0.50001L238.253 0.50001L238.253 1.04144e-05L243.088 1.06257e-05L243.088 0.500011L247.923 0.500011L247.923 1.08371e-05L252.758 1.10484e-05L252.758 0.500011L257.592 0.500011L257.592 1.12597e-05L262.427 1.1471e-05L262.427 0.500011L267.262 0.500012L267.262 1.16824e-05L272.096 1.18937e-05L272.096 0.500012L276.931 0.500012L276.931 1.2105e-05L281.766 1.23164e-05L281.766 0.500012L286.601 0.500013L286.601 1.25277e-05L291.435 1.2739e-05L291.435 0.500013L296.27 0.500013L296.27 1.29504e-05L301.105 1.31617e-05L301.105 0.500013L305.94 0.500013L305.94 1.3373e-05L310.774 1.35844e-05L310.774 0.500014L315.609 0.500014L315.609 1.37957e-05L320.444 1.4007e-05L320.444 0.500014L325.279 0.500014L325.279 1.42184e-05L330.113 1.44297e-05L330.113 0.500014L334.948 0.500015L334.948 1.4641e-05L339.783 1.48524e-05L339.783 0.500015L344.618 0.500015L344.618 1.50637e-05L349.452 1.52751e-05L349.452 0.500015L354.287 0.500015L354.287 1.54864e-05L359.122 1.56977e-05L359.122 0.500016L363.957 0.500016L363.957 1.59091e-05L368.791 1.61204e-05L368.791 0.500016L373.626 0.500016L373.626 1.63317e-05L378.461 1.65431e-05L378.461 0.500017L383.296 0.500017L383.296 1.67544e-05L388.13 1.69657e-05L388.13 0.500017L392.965 0.500017L392.965 1.71771e-05L397.8 1.73884e-05L397.8 0.500017L402.635 0.500018L402.635 1.75997e-05L407.469 1.78111e-05L407.469 0.500018L412.304 0.500018L412.304 1.80224e-05L417.139 1.82337e-05L417.139 0.500018L421.974 0.500018L421.974 1.84451e-05L426.808 1.86564e-05L426.808 0.500019L431.643 0.500019L431.643 1.88677e-05L436.478 1.90791e-05L436.478 0.500019L441.313 0.500019L441.313 1.92904e-05L446.147 1.95017e-05L446.147 0.50002L450.982 0.50002L450.982 1.97131e-05L455.817 1.99244e-05L455.817 0.50002L460.652 0.50002L460.652 2.01357e-05L465.486 2.03471e-05L465.486 0.50002L470.321 0.500021L470.321 2.05584e-05L475.156 2.07697e-05L475.156 0.500021L479.991 0.500021L479.991 2.09811e-05L484.825 2.11924e-05L484.825 0.500021L489.66 0.500021L489.66 2.14037e-05L494.495 2.16151e-05L494.495 0.500022L499.33 0.500022L499.33 2.18264e-05L504.164 2.20377e-05L504.164 0.500022L508.999 0.500022L508.999 2.22491e-05L513.834 2.24604e-05L513.834 0.500022L518.669 0.500023L518.669 2.26717e-05L523.503 2.28831e-05L523.503 0.500023L528.338 0.500023L528.338 2.30944e-05L533.173 2.33057e-05L533.173 0.500023L538.008 0.500024L538.008 2.35171e-05L542.842 2.37284e-05L542.842 0.500024L547.677 0.500024L547.677 2.39397e-05L552.512 2.41511e-05L552.512 0.500024L557.346 0.500024L557.346 2.43624e-05L562.181 2.45737e-05L562.181 0.500025L564.598 0.500025C565.388 0.500025 566.168 0.521192 566.937 0.562496L566.964 0.0632144C568.587 0.150434 570.161 0.326448 571.668 0.581918L571.584 1.07488C573.184 1.34611 574.704 1.70773 576.124 2.14772L576.272 1.67012C577.867 2.16428 579.34 2.75658 580.66 3.43133L580.433 3.87658C581.923 4.63785 583.205 5.50104 584.24 6.43881L584.576 6.0683C585.861 7.23303 586.792 8.52034 587.29 9.88895L586.82 10.0599C587.074 10.7583 587.206 11.4754 587.206 12.2067L587.206 14.5825L587.706 14.5825L587.706 19.3339L587.206 19.3339L587.206 24.0854L587.706 24.0854L587.706 28.8369L587.206 28.8369L587.206 33.5884L587.706 33.5884L587.706 38.3399L587.206 38.3399L587.206 43.0914L587.706 43.0914L587.706 47.8429L587.206 47.8429L587.206 52.5944L587.706 52.5944L587.706 57.3459L587.206 57.3459L587.206 62.0974L587.706 62.0974L587.706 66.8489L587.206 66.8489L587.206 71.6004L587.706 71.6004L587.706 76.3519L587.206 76.3519L587.206 81.1034L587.706 81.1034L587.706 85.8549L587.206 85.8549L587.206 90.6064L587.706 90.6064L587.706 95.3579L587.206 95.3579L587.206 100.109L587.706 100.109L587.706 104.861L587.206 104.861L587.206 109.612L587.706 109.612L587.706 114.364L587.206 114.364L587.206 119.115L587.706 119.115L587.706 123.867L587.206 123.867L587.206 128.618L587.706 128.618L587.706 133.37L587.206 133.37L587.206 138.121L587.706 138.121L587.706 142.873L587.206 142.873L587.206 147.624L587.706 147.624L587.706 152.376L587.206 152.376L587.206 157.127L587.706 157.127L587.706 161.879L587.206 161.879L587.206 166.63L587.706 166.63L587.706 171.382L587.206 171.382L587.206 176.133L587.706 176.133L587.706 180.885L587.206 180.885L587.206 185.636L587.706 185.636L587.706 190.388L587.206 190.388L587.206 195.139L587.706 195.139L587.706 199.891L587.206 199.891L587.206 204.642L587.706 204.642L587.706 209.394L587.206 209.394L587.206 214.145L587.706 214.145L587.706 218.897L587.206 218.897L587.206 223.648L587.706 223.648L587.706 228.4L587.206 228.4L587.206 233.151L587.706 233.151L587.706 237.903L587.206 237.903L587.206 242.654L587.706 242.654L587.706 247.406L587.206 247.406L587.206 249.781C587.206 251.069 587.462 252.297 587.927 253.418L588.389 253.227C589.301 255.427 591.061 257.186 593.261 258.099L593.069 258.56C594.19 259.025 595.418 259.281 596.706 259.281L599.048 259.281L599.048 258.781L603.733 258.781L603.733 259.281L608.419 259.281L608.419 258.781L613.104 258.781L613.104 259.281L617.789 259.281L617.789 258.781L622.474 258.781L622.474 259.281L627.16 259.281L627.16 258.781L631.845 258.781L631.845 259.281L636.53 259.281L636.53 258.781L641.215 258.781L641.215 259.281L645.901 259.281L645.901 258.781L650.586 258.781L650.586 259.281L655.271 259.281L655.271 258.781L659.956 258.781L659.956 259.281L664.642 259.281L664.642 258.781L669.327 258.781L669.327 259.281L674.012 259.281L674.012 258.781L678.697 258.781L678.697 259.281L683.382 259.281L683.382 258.781L688.068 258.781L688.068 259.281L692.753 259.281L692.753 258.781L697.438 258.781L697.438 259.281L702.123 259.281L702.123 258.781L706.809 258.781L706.809 259.281L711.494 259.281L711.494 258.781L716.179 258.781L716.179 259.281L720.864 259.281L720.864 258.781L725.55 258.781L725.55 259.281L727.892 259.281C728.682 259.281 729.462 259.303 730.231 259.344L730.258 258.845C731.882 258.932 733.456 259.108 734.962 259.363L734.878 259.856C736.478 260.128 737.999 260.489 739.419 260.929L739.567 260.452C741.161 260.946 742.634 261.538 743.955 262.213L743.727 262.658C745.217 263.419 746.5 264.283 747.534 265.22L747.87 264.85C749.155 266.014 750.086 267.302 750.584 268.67L750.114 268.841C750.368 269.54 750.5 270.257 750.5 270.988L750.5 273.358L751 273.358L751 278.099L750.5 278.099L750.5 282.839L751 282.839L751 287.579L750.5 287.579L750.5 292.319L751 292.319L751 297.06L750.5 297.06L750.5 301.8L751 301.8L751 306.54L750.5 306.54L750.5 311.28L751 311.28L751 316.021L750.5 316.021L750.5 320.761L751 320.761L751 325.501L750.5 325.501L750.5 330.241L751 330.241L751 334.982L750.5 334.982L750.5 339.722L751 339.722L751 344.462L750.5 344.462L750.5 349.202L751 349.202L751 353.943L750.5 353.943L750.5 358.683L751 358.683L751 363.423L750.5 363.423L750.5 365.793C750.5 366.525 750.368 367.242 750.114 367.94L750.584 368.111C750.086 369.48 749.155 370.767 747.87 371.932L747.534 371.561C746.499 372.499 745.217 373.362 743.727 374.123L743.955 374.569C742.634 375.243 741.161 375.836 739.567 376.33L739.419 375.852C737.999 376.292 736.478 376.654 734.879 376.925L734.962 377.418C733.456 377.674 731.882 377.85 730.258 377.937L730.231 377.438C729.462 377.479 728.682 377.5 727.892 377.5L725.531 377.5L725.531 378L720.808 378L720.808 377.5L716.085 377.5L716.085 378L711.362 378L711.362 377.5L706.639 377.5L706.639 378L701.916 378L701.916 377.5L697.193 377.5L697.193 378L692.471 378L692.471 377.5L687.748 377.5L687.748 378L683.025 378L683.025 377.5L678.302 377.5L678.302 378L673.579 378L673.579 377.5L668.856 377.5L668.856 378L664.133 378L664.133 377.5L659.41 377.5L659.41 378L654.687 378L654.687 377.5L649.965 377.5L649.965 378L645.242 378L645.242 377.5L640.519 377.5L640.519 378L635.796 378L635.796 377.5L631.073 377.5L631.073 378L626.35 378L626.35 377.5L621.627 377.5L621.627 378L616.904 378L616.904 377.5L612.182 377.5L612.182 378L607.459 378L607.459 377.5L602.736 377.5L602.736 378L598.013 378L598.013 377.5L593.29 377.5L593.29 378L588.567 378L588.567 377.5L583.844 377.5L583.844 378L579.121 378L579.121 377.5L574.398 377.5L574.398 378L569.676 378L569.676 377.5L564.953 377.5L564.953 378L560.23 378L560.23 377.5L555.507 377.5L555.507 378L550.784 378L550.784 377.5L548.423 377.5C547.633 377.5 546.852 377.479 546.084 377.438L546.057 377.937C544.433 377.85 542.859 377.674 541.353 377.418L541.436 376.925C539.837 376.654 538.316 376.292 536.896 375.852L536.748 376.33C535.153 375.836 533.681 375.243 532.36 374.569L532.588 374.123C531.097 373.362 529.815 372.499 528.781 371.561L528.445 371.932C527.16 370.767 526.229 369.48 525.731 368.111L526.201 367.94C525.947 367.242 525.815 366.525 525.815 365.793L525.815 363.476L525.315 363.476L525.315 358.843L525.815 358.843L525.815 354.209L525.315 354.209L525.315 349.575L525.815 349.575L525.815 344.942L525.315 344.942L525.315 340.308L525.815 340.308L525.815 335.674L525.315 335.674L525.315 331.041L525.815 331.041L525.815 326.407L525.315 326.407L525.315 321.773L525.815 321.773L525.815 319.456C525.815 318.169 525.559 316.941 525.094 315.82L524.632 316.011C523.72 313.811 521.96 312.052 519.76 311.139L519.951 310.677C518.831 310.213 517.602 309.956 516.315 309.956L513.897 309.956L513.897 310.456L509.062 310.456L509.062 309.956L504.226 309.956L504.226 310.456L499.391 310.456L499.391 309.956L494.556 309.956L494.556 310.456L489.72 310.456L489.72 309.956L484.885 309.956L484.885 310.456L480.05 310.456L480.05 309.956L475.214 309.956L475.214 310.456L470.379 310.456L470.379 309.956L465.544 309.956L465.544 310.456L460.708 310.456L460.708 309.956L455.873 309.956L455.873 310.456L451.037 310.456L451.037 309.956L446.202 309.956L446.202 310.456L441.367 310.456L441.367 309.956L436.531 309.956L436.531 310.456L431.696 310.456L431.696 309.956L426.861 309.956L426.861 310.456L422.025 310.456L422.025 309.956L417.19 309.956L417.19 310.456L412.355 310.456L412.355 309.956L407.519 309.956L407.519 310.456L402.684 310.456L402.684 309.956L397.848 309.956L397.848 310.456L393.013 310.456L393.013 309.956L388.178 309.956L388.178 310.456L383.342 310.456L383.342 309.956L378.507 309.956L378.507 310.456L373.672 310.456L373.672 309.956L368.836 309.956L368.836 310.456L364.001 310.456L364.001 309.956L359.166 309.956L359.166 310.456L354.33 310.456L354.33 309.956L349.495 309.956L349.495 310.456L344.659 310.456L344.659 309.956L339.824 309.956L339.824 310.456L334.989 310.456L334.989 309.956L330.153 309.956L330.153 310.456L325.318 310.456L325.318 309.956L320.483 309.956L320.483 310.456L315.647 310.456L315.647 309.956L310.812 309.956L310.812 310.456L305.977 310.456L305.977 309.956L301.141 309.956L301.141 310.456L296.306 310.456L296.306 309.956L291.471 309.956L291.471 310.456L286.635 310.456L286.635 309.956L281.8 309.956L281.8 310.456L276.964 310.456L276.964 309.956L272.129 309.956L272.129 310.456L267.294 310.456L267.294 309.956L262.458 309.956L262.458 310.456L257.623 310.456L257.623 309.956L252.788 309.956L252.788 310.456L247.952 310.456L247.952 309.956L243.117 309.956L243.117 310.456L238.282 310.456L238.282 309.956L233.446 309.956L233.446 310.456L228.611 310.456L228.611 309.956L223.776 309.956L223.776 310.456L218.94 310.456L218.94 309.956L214.105 309.956L214.105 310.456L209.269 310.456L209.269 309.956L204.434 309.956L204.434 310.456L199.599 310.456L199.599 309.956L194.763 309.956L194.763 310.456L189.928 310.456L189.928 309.956L185.093 309.956L185.093 310.456L180.257 310.456L180.257 309.956L175.422 309.956L175.422 310.456L170.587 310.456L170.587 309.956L165.751 309.956L165.751 310.456L160.916 310.456L160.916 309.956L156.081 309.956L156.081 310.456L151.245 310.456L151.245 309.956L146.41 309.956L146.41 310.456L141.574 310.456L141.574 309.956L136.739 309.956L136.739 310.456L131.904 310.456L131.904 309.956L127.068 309.956L127.068 310.456L122.233 310.456L122.233 309.956L117.398 309.956L117.398 310.456L112.562 310.456L112.562 309.956L107.727 309.956L107.727 310.456L102.892 310.456L102.892 309.956L98.0562 309.956L98.0562 310.456L93.2209 310.456L93.2209 309.956L88.3855 309.956L88.3855 310.456L83.5502 310.456L83.5502 309.956L78.7148 309.956L78.7148 310.456L73.8794 310.456L73.8794 309.956L69.0441 309.956L69.0441 310.456L64.2087 310.456L64.2087 309.956L59.3734 309.956L59.3734 310.456L54.538 310.456L54.538 309.956L49.7027 309.956L49.7027 310.456L44.8673 310.456L44.8673 309.956L40.0319 309.956L40.0319 310.456L35.1966 310.456L35.1966 309.956L30.3612 309.956L30.3612 310.456L25.5259 310.456L25.5259 309.956L23.1077 309.956C22.3179 309.956 21.5376 309.935 20.7687 309.894L20.7419 310.393C19.1183 310.306 17.5444 310.13 16.0379 309.874L16.1215 309.382C14.522 309.11 13.0014 308.749 11.5814 308.309L11.4334 308.786C9.8386 308.292 8.36595 307.7 7.04519 307.025L7.27266 306.58C5.78256 305.819 4.50049 304.955 3.46568 304.018L3.12992 304.388C1.84468 303.223 0.913988 301.936 0.415998 300.567L0.88586 300.396C0.631737 299.698 0.499987 298.981 0.499987 298.25L0.499987 295.866L-1.29327e-05 295.866L-1.27243e-05 291.099L0.499987 291.099L0.499987 286.331L-1.25159e-05 286.331L-1.23075e-05 281.564L0.499988 281.564L0.499988 276.796L-1.20992e-05 276.796L-1.18908e-05 272.029L0.499988 272.029L0.499988 267.262L-1.16824e-05 267.262L-1.1474e-05 262.494L0.499989 262.494L0.499989 257.727L-1.12656e-05 257.727L-1.10572e-05 252.96L0.499989 252.96L0.499989 248.192L-1.08488e-05 248.192L-1.06404e-05 243.425L0.499989 243.425L0.49999 238.657L-1.0432e-05 238.657L-1.02237e-05 233.89L0.49999 233.89L0.49999 229.123L-1.00153e-05 229.123L-9.80688e-06 224.355L0.49999 224.355L0.49999 219.588L-9.59849e-06 219.588L-9.3901e-06 214.82L0.499991 214.82L0.499991 210.053L-9.18171e-06 210.053L-8.97332e-06 205.286L0.499991 205.286L0.499991 200.518L-8.76493e-06 200.518L-8.55654e-06 195.751L0.499991 195.751L0.499992 190.984L-8.34816e-06 190.984L-8.13977e-06 186.216L0.499992 186.216L0.499992 181.449L-7.93138e-06 181.449L-7.72299e-06 176.681L0.499992 176.681L0.499992 171.914L-7.5146e-06 171.914L-7.30621e-06 167.147L0.499993 167.147L0.499993 162.379L-7.09782e-06 162.379L-6.88943e-06 157.612L0.499993 157.612L0.499993 152.844L-6.68104e-06 152.844L-6.47266e-06 148.077L0.499994 148.077L0.499994 143.31L-6.26427e-06 143.31L-6.05588e-06 138.542L0.499994 138.542L0.499994 133.775L-5.84749e-06 133.775L-5.6391e-06 129.008L0.499994 129.008L0.499995 124.24L-5.43071e-06 124.24L-5.22232e-06 119.473L0.499995 119.473L0.499995 114.705L-5.01393e-06 114.705L-4.80554e-06 109.938L0.499995 109.938L0.499995 105.171L-4.59716e-06 105.171L-4.38877e-06 100.403L0.499996 100.403L0.499996 95.6359L-4.18038e-06 95.6359L-3.97199e-06 90.8685L0.499996 90.8685L0.499996 86.1011L-3.7636e-06 86.1011L-3.55521e-06 81.3338L0.499996 81.3338L0.499997 76.5664L-3.34682e-06 76.5664L-3.13843e-06 71.799L0.499997 71.799L0.499997 67.0316L-2.93005e-06 67.0316L-2.72166e-06 62.2642L0.499997 62.2642L0.499997 57.4969L-2.51327e-06 57.4969L-2.30488e-06 52.7295L0.499998 52.7295L0.499998 47.9621L-2.09649e-06 47.9621L-1.8881e-06 43.1947L0.499998 43.1947L0.499998 38.4273L-1.67971e-06 38.4273L-1.47132e-06 33.6599L0.499999 33.6599L0.499999 28.8926L-1.26293e-06 28.8926L-1.05454e-06 24.1252L0.499999 24.1252L0.499999 19.3578L-8.46155e-07 19.3578L-6.37765e-07 14.5904L0.499999 14.5904L0.499999 12.2067C0.499999 11.4754 0.63175 10.7583 0.885873 10.0599L0.416011 9.88892Z" stroke="#5B5B5B" stroke-dasharray="4.8 4.8"/>
</svg>
