<svg width="784" height="790" viewBox="0 0 784 790" fill="none" xmlns="http://www.w3.org/2000/svg">
<path d="M0.108438 23.0765C0.255891 21.4295 0.551403 19.8281 0.980746 18.2874L1.4624 18.4216C1.89585 16.8661 2.46828 15.3739 3.16438 13.961L2.71585 13.74C3.44063 12.2689 4.29703 10.8818 5.26853 9.59628L5.66743 9.89774C6.63376 8.61905 7.71595 7.44323 8.89694 6.38805L8.5638 6.0152C9.77841 4.92997 11.0958 3.9694 12.4984 3.15212L12.7501 3.58413C14.1201 2.78579 15.5727 2.12743 17.0905 1.62696L16.9339 1.15211C18.4598 0.648969 20.0508 0.301768 21.6902 0.128139L21.7428 0.625358C22.5255 0.542464 23.3195 0.500001 24.1231 0.500001L26.5184 0.500001L26.5184 1.15915e-06L31.3089 1.36856e-06L31.3089 0.500001L36.0995 0.500002L36.0995 1.57796e-06L40.89 1.78736e-06L40.89 0.500002L45.6805 0.500002L45.6805 1.99676e-06L50.4711 2.20616e-06L50.4711 0.500002L55.2616 0.500002L55.2616 2.41556e-06L60.0522 2.62496e-06L60.0522 0.500003L64.8427 0.500003L64.8427 2.83437e-06L69.6333 3.04377e-06L69.6333 0.500003L74.4238 0.500003L74.4238 3.25317e-06L79.2143 3.46257e-06L79.2143 0.500003L84.0049 0.500004L84.0049 3.67197e-06L88.7954 3.88137e-06L88.7954 0.500004L93.586 0.500004L93.586 4.09077e-06L98.3765 4.30017e-06L98.3765 0.500004L103.167 0.500005L103.167 4.50958e-06L107.958 4.71898e-06L107.958 0.500005L112.748 0.500005L112.748 4.92838e-06L117.539 5.13778e-06L117.539 0.500005L122.329 0.500005L122.329 5.34718e-06L127.12 5.55658e-06L127.12 0.500006L131.91 0.500006L131.91 5.76598e-06L136.701 5.97538e-06L136.701 0.500006L141.491 0.500006L141.491 6.18479e-06L146.282 6.39419e-06L146.282 0.500006L151.072 0.500007L151.072 6.60359e-06L155.863 6.81299e-06L155.863 0.500007L160.654 0.500007L160.654 7.02239e-06L165.444 7.23179e-06L165.444 0.500007L170.235 0.500007L170.235 7.44119e-06L175.025 7.65059e-06L175.025 0.500008L179.816 0.500008L179.816 7.86e-06L184.606 8.0694e-06L184.606 0.500008L189.397 0.500008L189.397 8.2788e-06L194.187 8.4882e-06L194.187 0.500008L198.978 0.500009L198.978 8.6976e-06L203.768 8.907e-06L203.768 0.500009L208.559 0.500009L208.559 9.1164e-06L213.35 9.32581e-06L213.35 0.500009L218.14 0.50001L218.14 9.53521e-06L222.931 9.74461e-06L222.931 0.50001L227.721 0.50001L227.721 9.95401e-06L232.512 1.01634e-05L232.512 0.50001L237.302 0.50001L237.302 1.03728e-05L242.093 1.05822e-05L242.093 0.500011L246.883 0.500011L246.883 1.07916e-05L251.674 1.1001e-05L251.674 0.500011L256.464 0.500011L256.464 1.12104e-05L261.255 1.14198e-05L261.255 0.500011L266.046 0.500012L266.046 1.16292e-05L270.836 1.18386e-05L270.836 0.500012L275.627 0.500012L275.627 1.2048e-05L280.417 1.22574e-05L280.417 0.500012L285.208 0.500012L285.208 1.24668e-05L289.998 1.26762e-05L289.998 0.500013L294.789 0.500013L294.789 1.28856e-05L299.579 1.3095e-05L299.579 0.500013L304.37 0.500013L304.37 1.33044e-05L309.16 1.35138e-05L309.16 0.500014L313.951 0.500014L313.951 1.37232e-05L318.742 1.39326e-05L318.742 0.500014L323.532 0.500014L323.532 1.4142e-05L328.323 1.43514e-05L328.323 0.500014L333.113 0.500015L333.113 1.45608e-05L337.904 1.47702e-05L337.904 0.500015L342.694 0.500015L342.694 1.49796e-05L347.485 1.5189e-05L347.485 0.500015L352.276 0.500015L352.276 1.53985e-05L357.066 1.56079e-05L357.066 0.500016L361.857 0.500016L361.857 1.58173e-05L366.647 1.60267e-05L366.647 0.500016L371.438 0.500016L371.438 1.62361e-05L376.228 1.64455e-05L376.228 0.500016L381.019 0.500017L381.019 1.66549e-05L385.809 1.68643e-05L385.809 0.500017L390.6 0.500017L390.6 1.70737e-05L395.391 1.72831e-05L395.391 0.500017L400.181 0.500017L400.181 1.74925e-05L404.972 1.77019e-05L404.972 0.500018L409.762 0.500018L409.762 1.79113e-05L414.553 1.81207e-05L414.553 0.500018L419.343 0.500018L419.343 1.83301e-05L424.134 1.85395e-05L424.134 0.500019L428.924 0.500019L428.924 1.87489e-05L433.715 1.89583e-05L433.715 0.500019L438.506 0.500019L438.506 1.91677e-05L443.296 1.93771e-05L443.296 0.500019L448.087 0.50002L448.087 1.95865e-05L452.877 1.97959e-05L452.877 0.50002L457.668 0.50002L457.668 2.00053e-05L462.458 2.02147e-05L462.458 0.50002L467.249 0.50002L467.249 2.04241e-05L472.039 2.06335e-05L472.039 0.500021L476.83 0.500021L476.83 2.08429e-05L481.621 2.10523e-05L481.621 0.500021L486.411 0.500021L486.411 2.12617e-05L491.202 2.14711e-05L491.202 0.500021L495.992 0.500022L495.992 2.16805e-05L500.783 2.18899e-05L500.783 0.500022L505.573 0.500022L505.573 2.20993e-05L510.364 2.23087e-05L510.364 0.500022L515.154 0.500023L515.154 2.25181e-05L519.945 2.27275e-05L519.945 0.500023L524.736 0.500023L524.736 2.29369e-05L529.526 2.31463e-05L529.526 0.500023L534.317 0.500023L534.317 2.33557e-05L539.107 2.35651e-05L539.107 0.500024L543.898 0.500024L543.898 2.37745e-05L548.688 2.39839e-05L548.688 0.500024L553.479 0.500024L553.479 2.41933e-05L558.269 2.44027e-05L558.269 0.500024L563.06 0.500025L563.06 2.46121e-05L567.85 2.48215e-05L567.85 0.500025L572.641 0.500025L572.641 2.50309e-05L577.431 2.52403e-05L577.431 0.500025L582.222 0.500025L582.222 2.54497e-05L587.013 2.56591e-05L587.013 0.500026L589.407 0.500026C590.211 0.500026 591.005 0.542489 591.787 0.625383L591.84 0.128163C593.479 0.301792 595.07 0.648996 596.596 1.15214L596.44 1.62699C597.958 2.12746 599.41 2.78582 600.78 3.58415L601.032 3.15215C602.435 3.96942 603.752 4.93 604.966 6.01522L604.633 6.38808C605.814 7.44326 606.897 8.61908 607.863 9.89778L608.262 9.59631C609.233 10.8818 610.09 12.2689 610.814 13.7401L610.366 13.961C611.062 15.374 611.634 16.8662 612.068 18.4217L612.55 18.2875C612.979 19.8282 613.274 21.4296 613.422 23.0766L612.924 23.1211C612.994 23.9077 613.03 24.705 613.03 25.5113L613.03 27.8997L613.53 27.8997L613.53 32.6764L613.03 32.6764L613.03 37.453L613.53 37.453L613.53 42.2297L613.03 42.2297L613.03 47.0064L613.53 47.0064L613.53 51.7831L613.03 51.7831L613.03 56.5598L613.53 56.5598L613.53 61.3365L613.03 61.3365L613.03 66.1131L613.53 66.1131L613.53 70.8898L613.03 70.8898L613.03 75.6665L613.53 75.6665L613.53 80.4432L613.03 80.4432L613.03 85.2199L613.53 85.2199L613.53 89.9965L613.03 89.9965L613.03 94.7732L613.53 94.7732L613.53 99.5499L613.03 99.5499L613.03 104.327L613.53 104.327L613.53 109.103L613.03 109.103L613.03 113.88L613.53 113.88L613.53 118.657L613.03 118.657L613.03 123.433L613.53 123.433L613.53 128.21L613.03 128.21L613.03 132.987L613.53 132.987L613.53 137.763L613.03 137.763L613.03 142.54L613.53 142.54L613.53 147.317L613.03 147.317L613.03 152.093L613.53 152.093L613.53 156.87L613.03 156.87L613.03 161.647L613.53 161.647L613.53 166.423L613.03 166.423L613.03 171.2L613.53 171.2L613.53 175.977L613.03 175.977L613.03 180.753L613.53 180.753L613.53 185.53L613.03 185.53L613.03 190.307L613.53 190.307L613.53 195.084L613.03 195.084L613.03 199.86L613.53 199.86L613.53 204.637L613.03 204.637L613.03 209.414L613.53 209.414L613.53 214.19L613.03 214.19L613.03 218.967L613.53 218.967L613.53 223.744L613.03 223.744L613.03 228.52L613.53 228.52L613.53 233.297L613.03 233.297L613.03 238.074L613.53 238.074L613.53 242.85L613.03 242.85L613.03 247.627L613.53 247.627L613.53 252.404L613.03 252.404L613.03 257.181L613.53 257.181L613.53 261.957L613.03 261.957L613.03 266.734L613.53 266.734L613.53 271.511L613.03 271.511L613.03 276.287L613.53 276.287L613.53 281.064L613.03 281.064L613.03 285.841L613.53 285.841L613.53 290.617L613.03 290.617L613.03 295.394L613.53 295.394L613.53 300.171L613.03 300.171L613.03 304.947L613.53 304.947L613.53 309.724L613.03 309.724L613.03 314.501L613.53 314.501L613.53 319.277L613.03 319.277L613.03 324.054L613.53 324.054L613.53 328.831L613.03 328.831L613.03 333.607L613.53 333.607L613.53 338.384L613.03 338.384L613.03 343.161L613.53 343.161L613.53 347.937L613.03 347.937L613.03 352.714L613.53 352.714L613.53 357.491L613.03 357.491L613.03 362.267L613.53 362.267L613.53 367.044L613.03 367.044L613.03 371.821L613.53 371.821L613.53 376.597L613.03 376.597L613.03 381.374L613.53 381.374L613.53 386.151L613.03 386.151L613.03 390.927L613.53 390.927L613.53 395.704L613.03 395.704L613.03 400.481L613.53 400.481L613.53 405.257L613.03 405.257L613.03 410.034L613.53 410.034L613.53 414.811L613.03 414.811L613.03 419.587L613.53 419.587L613.53 424.364L613.03 424.364L613.03 429.141L613.53 429.141L613.53 433.917L613.03 433.917L613.03 438.694L613.53 438.694L613.53 443.471L613.03 443.471L613.03 448.247L613.53 448.247L613.53 453.024L613.03 453.024L613.03 457.801L613.53 457.801L613.53 462.578L613.03 462.578L613.03 467.354L613.53 467.354L613.53 472.131L613.03 472.131L613.03 476.908L613.53 476.908L613.53 481.684L613.03 481.684L613.03 486.461L613.53 486.461L613.53 491.238L613.03 491.238L613.03 496.014L613.53 496.014L613.53 500.791L613.03 500.791L613.03 505.568L613.53 505.568L613.53 510.344L613.03 510.344L613.03 515.121L613.53 515.121L613.53 519.898L613.03 519.898L613.03 524.674L613.53 524.674L613.53 529.451L613.03 529.451L613.03 531.84C613.03 533.127 613.287 534.355 613.751 535.476L614.213 535.285C615.125 537.485 616.885 539.244 619.085 540.157L618.894 540.618C620.014 541.083 621.243 541.34 622.53 541.34L624.983 541.34L624.983 540.84L629.888 540.84L629.888 541.34L634.793 541.34L634.793 540.84L639.699 540.84L639.699 541.34L644.604 541.34L644.604 540.84L649.509 540.84L649.509 541.34L654.414 541.34L654.414 540.84L659.32 540.84L659.32 541.34L664.225 541.34L664.225 540.84L669.13 540.84L669.13 541.34L674.035 541.34L674.035 540.84L678.941 540.84L678.941 541.34L683.846 541.34L683.846 540.84L688.751 540.84L688.751 541.34L693.656 541.34L693.656 540.84L698.561 540.84L698.561 541.34L703.467 541.34L703.467 540.84L708.372 540.84L708.372 541.34L713.277 541.34L713.277 540.84L718.182 540.84L718.182 541.34L723.088 541.34L723.088 540.84L727.993 540.84L727.993 541.34L732.898 541.34L732.898 540.84L737.803 540.84L737.803 541.34L742.709 541.34L742.709 540.84L747.614 540.84L747.614 541.34L752.519 541.34L752.519 540.84L757.424 540.84L757.424 541.34L759.877 541.34C760.681 541.34 761.475 541.382 762.257 541.465L762.31 540.968C763.949 541.141 765.54 541.489 767.066 541.992L766.91 542.467C768.427 542.967 769.88 543.625 771.25 544.424L771.502 543.992C772.904 544.809 774.222 545.77 775.436 546.855L775.103 547.228C776.284 548.283 777.366 549.459 778.333 550.737L778.731 550.436C779.703 551.721 780.559 553.108 781.284 554.58L780.836 554.801C781.532 556.213 782.104 557.706 782.538 559.261L783.019 559.127C783.449 560.668 783.744 562.269 783.892 563.916L783.394 563.961C783.464 564.747 783.5 565.545 783.5 566.351L783.5 568.71L784 568.71L784 573.427L783.5 573.427L783.5 578.145L784 578.145L784 582.862L783.5 582.862L783.5 587.58L784 587.58L784 592.297L783.5 592.297L783.5 597.015L784 597.015L784 601.733L783.5 601.733L783.5 606.45L784 606.45L784 611.168L783.5 611.168L783.5 615.885L784 615.885L784 620.603L783.5 620.603L783.5 625.32L784 625.32L784 630.038L783.5 630.038L783.5 634.756L784 634.756L784 639.473L783.5 639.473L783.5 644.191L784 644.191L784 648.908L783.5 648.908L783.5 653.626L784 653.626L784 658.343L783.5 658.343L783.5 663.061L784 663.061L784 667.779L783.5 667.779L783.5 672.496L784 672.496L784 677.214L783.5 677.214L783.5 681.931L784 681.931L784 686.649L783.5 686.649L783.5 691.366L784 691.366L784 696.084L783.5 696.084L783.5 700.802L784 700.802L784 705.519L783.5 705.519L783.5 710.237L784 710.237L784 714.954L783.5 714.954L783.5 719.672L784 719.672L784 724.389L783.5 724.389L783.5 729.107L784 729.107L784 733.824L783.5 733.824L783.5 738.542L784 738.542L784 743.26L783.5 743.26L783.5 747.977L784 747.977L784 752.695L783.5 752.695L783.5 757.412L784 757.412L784 762.13L783.5 762.13L783.5 764.489C783.5 765.295 783.464 766.092 783.394 766.879L783.892 766.923C783.744 768.57 783.449 770.172 783.019 771.713L782.538 771.578C782.104 773.134 781.532 774.626 780.836 776.039L781.284 776.26C780.559 777.731 779.703 779.118 778.731 780.404L778.333 780.102C777.366 781.381 776.284 782.557 775.103 783.612L775.436 783.985C774.222 785.07 772.904 786.031 771.502 786.848L771.25 786.416C769.88 787.214 768.427 787.873 766.91 788.373L767.066 788.848C765.54 789.351 763.949 789.698 762.31 789.872L762.257 789.375C761.475 789.457 760.681 789.5 759.877 789.5L757.535 789.5L757.535 790L752.851 790L752.851 789.5L748.167 789.5L748.167 790L743.483 790L743.483 789.5L738.799 789.5L738.799 790L734.116 790L734.116 789.5L729.432 789.5L729.432 790L724.748 790L724.748 789.5L720.064 789.5L720.064 790L715.38 790L715.38 789.5L710.696 789.5L710.696 790L706.012 790L706.012 789.5L701.328 789.5L701.328 790L696.644 790L696.644 789.5L691.96 789.5L691.96 790L687.277 790L687.277 789.5L682.593 789.5L682.593 790L677.909 790L677.909 789.5L673.225 789.5L673.225 790L668.541 790L668.541 789.5L663.857 789.5L663.857 790L659.173 790L659.173 789.5L654.489 789.5L654.489 790L649.805 790L649.805 789.5L645.121 789.5L645.121 790L640.438 790L640.438 789.5L635.754 789.5L635.754 790L631.07 790L631.07 789.5L626.386 789.5L626.386 790L621.702 790L621.702 789.5L617.018 789.5L617.018 790L612.334 790L612.334 789.5L607.65 789.5L607.65 790L602.966 790L602.966 789.5L598.282 789.5L598.282 790L593.599 790L593.599 789.5L588.915 789.5L588.915 790L584.231 790L584.231 789.5L579.547 789.5L579.547 790L574.863 790L574.863 789.5L572.521 789.5C571.717 789.5 570.923 789.457 570.141 789.375L570.088 789.872C568.449 789.698 566.858 789.351 565.332 788.848L565.488 788.373C563.971 787.873 562.518 787.214 561.148 786.416L560.896 786.848C559.494 786.031 558.176 785.07 556.962 783.985L557.295 783.612C556.114 782.557 555.032 781.381 554.065 780.102L553.666 780.404C552.695 779.118 551.839 777.731 551.114 776.26L551.562 776.039C550.866 774.626 550.294 773.134 549.86 771.578L549.379 771.713C548.949 770.172 548.654 768.57 548.506 766.923L549.004 766.879C548.934 766.092 548.898 765.295 548.898 764.489L548.898 762.065L548.398 762.065L548.398 757.217L548.898 757.217L548.898 752.369L548.398 752.369L548.398 747.521L548.898 747.521L548.898 742.674L548.398 742.674L548.398 737.826L548.898 737.826L548.898 732.978L548.398 732.978L548.398 728.13L548.898 728.13L548.898 723.282L548.398 723.282L548.398 718.435L548.898 718.435L548.898 713.587L548.398 713.587L548.398 708.739L548.898 708.739L548.898 703.891L548.398 703.891L548.398 699.044L548.898 699.044L548.898 694.196L548.398 694.196L548.398 689.348L548.898 689.348L548.898 684.5L548.398 684.5L548.398 679.652L548.898 679.652L548.898 674.805L548.398 674.805L548.398 669.957L548.898 669.957L548.898 665.109L548.398 665.109L548.398 660.261L548.898 660.261L548.898 657.837C548.898 656.55 548.642 655.322 548.177 654.201L547.715 654.392C546.803 652.192 545.043 650.433 542.843 649.52L543.035 649.058C541.914 648.594 540.685 648.337 539.398 648.337L537.012 648.337L537.012 648.837L532.241 648.837L532.241 648.337L527.47 648.337L527.47 648.837L522.699 648.837L522.699 648.337L517.928 648.337L517.928 648.837L513.157 648.837L513.157 648.337L508.386 648.337L508.386 648.837L503.615 648.837L503.615 648.337L498.844 648.337L498.844 648.837L494.073 648.837L494.073 648.337L489.302 648.337L489.302 648.837L484.531 648.837L484.531 648.337L479.76 648.337L479.76 648.837L474.989 648.837L474.989 648.337L470.218 648.337L470.218 648.837L465.446 648.837L465.446 648.337L460.675 648.337L460.675 648.837L455.904 648.837L455.904 648.337L451.133 648.337L451.133 648.837L446.362 648.837L446.362 648.337L441.591 648.337L441.591 648.837L436.82 648.837L436.82 648.337L432.049 648.337L432.049 648.837L427.278 648.837L427.278 648.337L422.507 648.337L422.507 648.837L417.736 648.837L417.736 648.337L412.965 648.337L412.965 648.837L408.194 648.837L408.194 648.337L403.423 648.337L403.423 648.837L398.652 648.837L398.652 648.337L393.88 648.337L393.88 648.837L389.109 648.837L389.109 648.337L384.338 648.337L384.338 648.837L379.567 648.837L379.567 648.337L374.796 648.337L374.796 648.837L370.025 648.837L370.025 648.337L365.254 648.337L365.254 648.837L360.483 648.837L360.483 648.337L355.712 648.337L355.712 648.837L350.941 648.837L350.941 648.337L346.17 648.337L346.17 648.837L341.399 648.837L341.399 648.337L336.628 648.337L336.628 648.837L331.857 648.837L331.857 648.337L327.086 648.337L327.086 648.837L322.315 648.837L322.315 648.337L317.544 648.337L317.544 648.837L312.773 648.837L312.773 648.337L308.001 648.337L308.001 648.837L303.23 648.837L303.23 648.337L298.459 648.337L298.459 648.837L293.688 648.837L293.688 648.337L288.917 648.337L288.917 648.837L284.146 648.837L284.146 648.337L279.375 648.337L279.375 648.837L274.604 648.837L274.604 648.337L269.833 648.337L269.833 648.837L265.062 648.837L265.062 648.337L260.291 648.337L260.291 648.837L255.52 648.837L255.52 648.337L250.749 648.337L250.749 648.837L245.978 648.837L245.978 648.337L241.207 648.337L241.207 648.837L236.436 648.837L236.436 648.337L231.665 648.337L231.665 648.837L226.893 648.837L226.893 648.337L222.122 648.337L222.122 648.837L217.351 648.837L217.351 648.337L212.58 648.337L212.58 648.837L207.809 648.837L207.809 648.337L203.038 648.337L203.038 648.837L198.267 648.837L198.267 648.337L193.496 648.337L193.496 648.837L188.725 648.837L188.725 648.337L183.954 648.337L183.954 648.837L179.183 648.837L179.183 648.337L174.412 648.337L174.412 648.837L169.641 648.837L169.641 648.337L164.87 648.337L164.87 648.837L160.099 648.837L160.099 648.337L155.328 648.337L155.328 648.837L150.557 648.837L150.557 648.337L145.786 648.337L145.786 648.837L141.014 648.837L141.014 648.337L136.243 648.337L136.243 648.837L131.472 648.837L131.472 648.337L126.701 648.337L126.701 648.837L121.93 648.837L121.93 648.337L117.159 648.337L117.159 648.837L112.388 648.837L112.388 648.337L107.617 648.337L107.617 648.837L102.846 648.837L102.846 648.337L98.075 648.337L98.075 648.837L93.3039 648.837L93.3039 648.337L88.5328 648.337L88.5328 648.837L83.7618 648.837L83.7618 648.337L78.9907 648.337L78.9907 648.837L74.2197 648.837L74.2197 648.337L69.4486 648.337L69.4486 648.837L64.6775 648.837L64.6775 648.337L59.9065 648.337L59.9065 648.837L55.1354 648.837L55.1354 648.337L50.3644 648.337L50.3644 648.837L45.5933 648.837L45.5933 648.337L40.8223 648.337L40.8223 648.837L36.0512 648.837L36.0512 648.337L31.2801 648.337L31.2801 648.837L26.5091 648.837L26.5091 648.337L24.123 648.337C23.3195 648.337 22.5254 648.295 21.7428 648.212L21.6901 648.709C20.0508 648.536 18.4598 648.188 16.9339 647.685L17.0905 647.21C15.5726 646.71 14.1201 646.052 12.7501 645.253L12.4983 645.685C11.0958 644.868 9.77838 643.907 8.56377 642.822L8.8969 642.449C7.71592 641.394 6.63373 640.218 5.6674 638.94L5.2685 639.241C4.297 637.956 3.4406 636.569 2.71583 635.097L3.16435 634.876C2.46825 633.464 1.89583 631.971 1.46237 630.416L0.980721 630.55C0.551377 629.009 0.255864 627.408 0.108412 625.761L0.606421 625.716C0.536 624.93 0.499973 624.132 0.499973 623.326L0.499973 620.916L-2.71411e-05 620.916L-2.69303e-05 616.094L0.499973 616.094L0.499973 611.273L-2.67196e-05 611.273L-2.65089e-05 606.452L0.499973 606.452L0.499974 601.631L-2.62981e-05 601.631L-2.60874e-05 596.81L0.499974 596.81L0.499974 591.989L-2.58767e-05 591.989L-2.56659e-05 587.168L0.499974 587.168L0.499975 582.347L-2.54552e-05 582.347L-2.52445e-05 577.526L0.499975 577.526L0.499975 572.705L-2.50337e-05 572.705L-2.4823e-05 567.884L0.499975 567.884L0.499975 563.063L-2.46122e-05 563.062L-2.44015e-05 558.241L0.499976 558.241L0.499976 553.42L-2.41908e-05 553.42L-2.398e-05 548.599L0.499976 548.599L0.499976 543.778L-2.37693e-05 543.778L-2.35586e-05 538.957L0.499976 538.957L0.499977 534.136L-2.33478e-05 534.136L-2.31371e-05 529.315L0.499977 529.315L0.499977 524.494L-2.29264e-05 524.494L-2.27156e-05 519.673L0.499977 519.673L0.499977 514.852L-2.25049e-05 514.852L-2.22941e-05 510.031L0.499978 510.031L0.499978 505.209L-2.20834e-05 505.209L-2.18727e-05 500.388L0.499978 500.388L0.499978 495.567L-2.16619e-05 495.567L-2.14512e-05 490.746L0.499979 490.746L0.499979 485.925L-2.12405e-05 485.925L-2.10297e-05 481.104L0.499979 481.104L0.499979 476.283L-2.0819e-05 476.283L-2.06083e-05 471.462L0.499979 471.462L0.49998 466.641L-2.03975e-05 466.641L-2.01868e-05 461.82L0.49998 461.82L0.49998 456.999L-1.9976e-05 456.999L-1.97653e-05 452.177L0.49998 452.177L0.49998 447.356L-1.95546e-05 447.356L-1.93438e-05 442.535L0.499981 442.535L0.499981 437.714L-1.91331e-05 437.714L-1.89224e-05 432.893L0.499981 432.893L0.499981 428.072L-1.87116e-05 428.072L-1.85009e-05 423.251L0.499981 423.251L0.499982 418.43L-1.82901e-05 418.43L-1.80794e-05 413.609L0.499982 413.609L0.499982 408.788L-1.78687e-05 408.788L-1.76579e-05 403.967L0.499982 403.967L0.499983 399.145L-1.74472e-05 399.145L-1.72365e-05 394.324L0.499983 394.324L0.499983 389.503L-1.70257e-05 389.503L-1.6815e-05 384.682L0.499983 384.682L0.499983 379.861L-1.66043e-05 379.861L-1.63935e-05 375.04L0.499984 375.04L0.499984 370.219L-1.61828e-05 370.219L-1.5972e-05 365.398L0.499984 365.398L0.499984 360.577L-1.57613e-05 360.577L-1.55506e-05 355.756L0.499984 355.756L0.499985 350.935L-1.53398e-05 350.935L-1.51291e-05 346.114L0.499985 346.114L0.499985 341.292L-1.49184e-05 341.292L-1.47076e-05 336.471L0.499985 336.471L0.499986 331.65L-1.44969e-05 331.65L-1.42862e-05 326.829L0.499986 326.829L0.499986 322.008L-1.40754e-05 322.008L-1.38647e-05 317.187L0.499986 317.187L0.499986 312.366L-1.3654e-05 312.366L-1.34432e-05 307.545L0.499987 307.545L0.499987 302.724L-1.32325e-05 302.724L-1.30217e-05 297.903L0.499987 297.903L0.499987 293.082L-1.2811e-05 293.082L-1.26003e-05 288.261L0.499987 288.261L0.499988 283.44L-1.23895e-05 283.44L-1.21788e-05 278.618L0.499988 278.618L0.499988 273.797L-1.19681e-05 273.797L-1.17573e-05 268.976L0.499988 268.976L0.499988 264.155L-1.15466e-05 264.155L-1.13359e-05 259.334L0.499989 259.334L0.499989 254.513L-1.11251e-05 254.513L-1.09144e-05 249.692L0.499989 249.692L0.499989 244.871L-1.07037e-05 244.871L-1.04929e-05 240.05L0.49999 240.05L0.49999 235.229L-1.02822e-05 235.229L-1.00714e-05 230.408L0.49999 230.408L0.49999 225.587L-9.86071e-06 225.587L-9.64997e-06 220.766L0.49999 220.766L0.499991 215.944L-9.43923e-06 215.944L-9.2285e-06 211.123L0.499991 211.123L0.499991 206.302L-9.01776e-06 206.302L-8.80703e-06 201.481L0.499991 201.481L0.499991 196.66L-8.59629e-06 196.66L-8.38555e-06 191.839L0.499992 191.839L0.499992 187.018L-8.17482e-06 187.018L-7.96408e-06 182.197L0.499992 182.197L0.499992 177.376L-7.75335e-06 177.376L-7.54261e-06 172.555L0.499992 172.555L0.499993 167.734L-7.33187e-06 167.734L-7.12114e-06 162.913L0.499993 162.913L0.499993 158.092L-6.9104e-06 158.092L-6.69967e-06 153.271L0.499993 153.271L0.499994 148.449L-6.48893e-06 148.449L-6.2782e-06 143.628L0.499994 143.628L0.499994 138.807L-6.06746e-06 138.807L-5.85672e-06 133.986L0.499994 133.986L0.499994 129.165L-5.64599e-06 129.165L-5.43525e-06 124.344L0.499995 124.344L0.499995 119.523L-5.22452e-06 119.523L-5.01378e-06 114.702L0.499995 114.702L0.499995 109.881L-4.80304e-06 109.881L-4.59231e-06 105.06L0.499995 105.06L0.499996 100.239L-4.38157e-06 100.239L-4.17083e-06 95.4175L0.499996 95.4175L0.499996 90.5964L-3.96009e-06 90.5964L-3.74936e-06 85.7753L0.499996 85.7753L0.499996 80.9542L-3.53862e-06 80.9542L-3.32788e-06 76.1331L0.499997 76.1331L0.499997 71.3119L-3.11714e-06 71.3119L-2.90641e-06 66.4909L0.499997 66.4909L0.499997 61.6697L-2.69567e-06 61.6697L-2.48493e-06 56.8487L0.499998 56.8487L0.499998 52.0275L-2.2742e-06 52.0275L-2.06346e-06 47.2064L0.499998 47.2064L0.499998 42.3853L-1.85272e-06 42.3853L-1.64198e-06 37.5642L0.499998 37.5642L0.499999 32.7431L-1.43125e-06 32.7431L-1.22051e-06 27.922L0.499999 27.922L0.499999 25.5113C0.499999 24.705 0.536026 23.9077 0.606447 23.1211L0.108438 23.0765Z" stroke="#5B5B5B" stroke-dasharray="4.8 4.8"/>
</svg>
