<svg width="204" height="155" viewBox="0 0 204 155" fill="none" xmlns="http://www.w3.org/2000/svg">
<path d="M202.782 24.4453C202.782 16.4962 197.964 9.23179 190.341 6.97768C177.179 3.08565 163.269 1 148.882 1C73.4448 1 11.0925 58.3463 1.16145 132.774C-0.363478 144.202 9.12962 153.6 20.6593 153.6C32.1866 153.6 41.3283 144.172 43.4469 132.841C52.9365 82.0877 96.5336 43.7338 148.882 43.7338C156.527 43.7338 163.985 44.5518 171.177 46.1068C185.884 49.2865 202.782 39.4924 202.782 24.4453Z" fill="url(#paint0_linear_1_233)"/>
<path d="M203.132 24.4453C203.132 16.3604 198.23 8.94536 190.44 6.64205C177.247 2.7406 163.303 0.65 148.882 0.65C73.2609 0.65 10.7676 58.1348 0.814521 132.728C-0.74258 144.397 8.9508 153.95 20.6593 153.95C32.3926 153.95 41.6488 144.362 43.7909 132.905C53.2512 82.3089 96.7109 44.0838 148.882 44.0838C156.502 44.0838 163.935 44.8991 171.103 46.4489C178.553 48.0594 186.548 46.3847 192.685 42.4047C198.825 38.4229 203.132 32.112 203.132 24.4453Z" stroke="white" stroke-opacity="0.15" stroke-width="0.7"/>
<defs>
<linearGradient id="paint0_linear_1_233" x1="1.18222" y1="127.7" x2="156.428" y2="122.804" gradientUnits="userSpaceOnUse">
<stop stop-color="#3B0FB5"/>
<stop offset="1" stop-color="#9327F0"/>
</linearGradient>
</defs>
</svg>
